  0
SECTION
  2
HEADER
  9
$ANGBASE
  50
0.0
  9
$ANGDIR
  70
  1
  9
$MEASUREMENT
  70
0
  0
ENDSEC
  0
SECTION
  2
TABLES
  0
TABLE
  2
LTYPE
  70
4
  0
LTYPE
  5
40F
  2
CONTINUOUS
  70
0
  3
Solid line
  72
65
  73
0
  40
0.0
  0
LTYPE
  5
410
  2
DASHDOT
 70
0
  3
Dash Dot ____ _ ____ _
 72
65
 73
4
 40
2.0
 49
1.25
 49
-0.25
 49
0.25
 49
-0.25
  0
LTYPE
  5
411
  2
DASHED
 70
0
  3
Dashed __ __ __ __ __
 72
65
 73
2
 40
0.75
 49
0.5
 49
-0.25
  0
LTYPE
  5
43B
  2
DOTTED
 70
0
  3
Dotted .  .  .  .
 72
65
 73
2
 40
0.2
 49
0.0
 49
-0.2
  0
ENDTAB
  0
TABLE
  2
STYLE
  70
4
  0
STYLE
  2
KICAD
  70
0
  40
0
  41
1
  42
1
  50
0
  71
0
  3
isocp.shx
  0
STYLE
  2
KICADB
  70
0
  40
0
  41
1
  42
1
  50
0
  71
0
  3
isocp.shx
  0
STYLE
  2
KICADI
  70
0
  40
0
  41
1
  42
1
  50
15
  71
0
  3
isocp.shx
  0
STYLE
  2
KICADBI
  70
0
  40
0
  41
1
  42
1
  50
15
  71
0
  3
isocp.shx
  0
ENDTAB
  0
TABLE
  2
LAYER
  70
30
  0
LAYER
  2
BLACK
  70
0
  62
7
  6
CONTINUOUS
  0
LAYER
  2
GRAY1
  70
0
  62
251
  6
CONTINUOUS
  0
LAYER
  2
GRAY2
  70
0
  62
8
  6
CONTINUOUS
  0
LAYER
  2
GRAY3
  70
0
  62
9
  6
CONTINUOUS
  0
LAYER
  2
WHITE
  70
0
  62
7
  6
CONTINUOUS
  0
LAYER
  2
LYELLOW
  70
0
  62
51
  6
CONTINUOUS
  0
LAYER
  2
BLUE1
  70
0
  62
178
  6
CONTINUOUS
  0
LAYER
  2
GREEN1
  70
0
  62
98
  6
CONTINUOUS
  0
LAYER
  2
CYAN1
  70
0
  62
138
  6
CONTINUOUS
  0
LAYER
  2
RED1
  70
0
  62
18
  6
CONTINUOUS
  0
LAYER
  2
MAGENTA1
  70
0
  62
228
  6
CONTINUOUS
  0
LAYER
  2
BROWN1
  70
0
  62
58
  6
CONTINUOUS
  0
LAYER
  2
BLUE2
  70
0
  62
5
  6
CONTINUOUS
  0
LAYER
  2
GREEN2
  70
0
  62
3
  6
CONTINUOUS
  0
LAYER
  2
CYAN2
  70
0
  62
4
  6
CONTINUOUS
  0
LAYER
  2
RED2
  70
0
  62
1
  6
CONTINUOUS
  0
LAYER
  2
MAGENTA2
  70
0
  62
6
  6
CONTINUOUS
  0
LAYER
  2
BROWN2
  70
0
  62
54
  6
CONTINUOUS
  0
LAYER
  2
BLUE3
  70
0
  62
171
  6
CONTINUOUS
  0
LAYER
  2
GREEN3
  70
0
  62
91
  6
CONTINUOUS
  0
LAYER
  2
CYAN3
  70
0
  62
131
  6
CONTINUOUS
  0
LAYER
  2
RED3
  70
0
  62
11
  6
CONTINUOUS
  0
LAYER
  2
MAGENTA3
  70
0
  62
221
  6
CONTINUOUS
  0
LAYER
  2
YELLOW3
  70
0
  62
2
  6
CONTINUOUS
  0
LAYER
  2
BLUE4
  70
0
  62
5
  6
CONTINUOUS
  0
LAYER
  2
GREEN4
  70
0
  62
3
  6
CONTINUOUS
  0
LAYER
  2
CYAN4
  70
0
  62
4
  6
CONTINUOUS
  0
LAYER
  2
RED4
  70
0
  62
1
  6
CONTINUOUS
  0
LAYER
  2
MAGENTA4
  70
0
  62
6
  6
CONTINUOUS
  0
LAYER
  2
YELLOW4
  70
0
  62
2
  6
CONTINUOUS
  0
ENDTAB
  0
ENDSEC
  0
SECTION
  2
ENTITIES
0
LINE
8
BLACK
6
CONTINUOUS
10
151.914
20
-109.127
11
150.924
21
-109.127
0
LINE
8
BLACK
6
CONTINUOUS
10
150.924
20
-109.127
11
150.924
21
-108.822
0
LINE
8
BLACK
6
CONTINUOUS
10
150.924
20
-108.822
11
151.914
21
-108.822
0
LINE
8
BLACK
6
CONTINUOUS
10
151.914
20
-108.822
11
151.914
21
-109.127
0
LINE
8
BLACK
6
CONTINUOUS
10
146.079
20
-109.127
11
145.088
21
-109.127
0
LINE
8
BLACK
6
CONTINUOUS
10
145.088
20
-109.127
11
145.088
21
-108.822
0
LINE
8
BLACK
6
CONTINUOUS
10
145.088
20
-108.822
11
146.079
21
-108.822
0
LINE
8
BLACK
6
CONTINUOUS
10
146.079
20
-108.822
11
146.079
21
-109.127
0
LINE
8
BLACK
6
CONTINUOUS
10
151.914
20
-108.477
11
150.924
21
-108.477
0
LINE
8
BLACK
6
CONTINUOUS
10
150.924
20
-108.477
11
150.924
21
-108.172
0
LINE
8
BLACK
6
CONTINUOUS
10
150.924
20
-108.172
11
151.914
21
-108.172
0
LINE
8
BLACK
6
CONTINUOUS
10
151.914
20
-108.172
11
151.914
21
-108.477
0
LINE
8
BLACK
6
CONTINUOUS
10
146.079
20
-108.477
11
145.088
21
-108.477
0
LINE
8
BLACK
6
CONTINUOUS
10
145.088
20
-108.477
11
145.088
21
-108.172
0
LINE
8
BLACK
6
CONTINUOUS
10
145.088
20
-108.172
11
146.079
21
-108.172
0
LINE
8
BLACK
6
CONTINUOUS
10
146.079
20
-108.172
11
146.079
21
-108.477
0
LINE
8
BLACK
6
CONTINUOUS
10
164.377
20
-108.336
11
163.927
21
-108.336
0
LINE
8
BLACK
6
CONTINUOUS
10
163.927
20
-108.336
11
163.927
21
-107.436
0
LINE
8
BLACK
6
CONTINUOUS
10
163.927
20
-107.436
11
164.377
21
-107.436
0
LINE
8
BLACK
6
CONTINUOUS
10
164.377
20
-107.436
11
164.377
21
-108.336
0
LINE
8
BLACK
6
CONTINUOUS
10
163.477
20
-108.336
11
163.027
21
-108.336
0
LINE
8
BLACK
6
CONTINUOUS
10
163.027
20
-108.336
11
163.027
21
-107.436
0
LINE
8
BLACK
6
CONTINUOUS
10
163.027
20
-107.436
11
163.477
21
-107.436
0
LINE
8
BLACK
6
CONTINUOUS
10
163.477
20
-107.436
11
163.477
21
-108.336
0
LINE
8
BLACK
6
CONTINUOUS
10
162.677
20
-108.336
11
162.227
21
-108.336
0
LINE
8
BLACK
6
CONTINUOUS
10
162.227
20
-108.336
11
162.227
21
-107.436
0
LINE
8
BLACK
6
CONTINUOUS
10
162.227
20
-107.436
11
162.677
21
-107.436
0
LINE
8
BLACK
6
CONTINUOUS
10
162.677
20
-107.436
11
162.677
21
-108.336
0
LINE
8
BLACK
6
CONTINUOUS
10
161.777
20
-108.336
11
161.327
21
-108.336
0
LINE
8
BLACK
6
CONTINUOUS
10
161.327
20
-108.336
11
161.327
21
-107.436
0
LINE
8
BLACK
6
CONTINUOUS
10
161.327
20
-107.436
11
161.777
21
-107.436
0
LINE
8
BLACK
6
CONTINUOUS
10
161.777
20
-107.436
11
161.777
21
-108.336
0
LINE
8
BLACK
6
CONTINUOUS
10
169.397
20
-108.336
11
168.947
21
-108.336
0
LINE
8
BLACK
6
CONTINUOUS
10
168.947
20
-108.336
11
168.947
21
-107.436
0
LINE
8
BLACK
6
CONTINUOUS
10
168.947
20
-107.436
11
169.397
21
-107.436
0
LINE
8
BLACK
6
CONTINUOUS
10
169.397
20
-107.436
11
169.397
21
-108.336
0
LINE
8
BLACK
6
CONTINUOUS
10
171.997
20
-108.336
11
171.547
21
-108.336
0
LINE
8
BLACK
6
CONTINUOUS
10
171.547
20
-108.336
11
171.547
21
-107.436
0
LINE
8
BLACK
6
CONTINUOUS
10
171.547
20
-107.436
11
171.997
21
-107.436
0
LINE
8
BLACK
6
CONTINUOUS
10
171.997
20
-107.436
11
171.997
21
-108.336
0
LINE
8
BLACK
6
CONTINUOUS
10
171.097
20
-108.336
11
170.647
21
-108.336
0
LINE
8
BLACK
6
CONTINUOUS
10
170.647
20
-108.336
11
170.647
21
-107.436
0
LINE
8
BLACK
6
CONTINUOUS
10
170.647
20
-107.436
11
171.097
21
-107.436
0
LINE
8
BLACK
6
CONTINUOUS
10
171.097
20
-107.436
11
171.097
21
-108.336
0
LINE
8
BLACK
6
CONTINUOUS
10
170.297
20
-108.336
11
169.847
21
-108.336
0
LINE
8
BLACK
6
CONTINUOUS
10
169.847
20
-108.336
11
169.847
21
-107.436
0
LINE
8
BLACK
6
CONTINUOUS
10
169.847
20
-107.436
11
170.297
21
-107.436
0
LINE
8
BLACK
6
CONTINUOUS
10
170.297
20
-107.436
11
170.297
21
-108.336
0
LINE
8
BLACK
6
CONTINUOUS
10
134.091
20
-108.209
11
133.641
21
-108.209
0
LINE
8
BLACK
6
CONTINUOUS
10
133.641
20
-108.209
11
133.641
21
-107.309
0
LINE
8
BLACK
6
CONTINUOUS
10
133.641
20
-107.309
11
134.091
21
-107.309
0
LINE
8
BLACK
6
CONTINUOUS
10
134.091
20
-107.309
11
134.091
21
-108.209
0
LINE
8
BLACK
6
CONTINUOUS
10
134.991
20
-108.209
11
134.541
21
-108.209
0
LINE
8
BLACK
6
CONTINUOUS
10
134.541
20
-108.209
11
134.541
21
-107.309
0
LINE
8
BLACK
6
CONTINUOUS
10
134.541
20
-107.309
11
134.991
21
-107.309
0
LINE
8
BLACK
6
CONTINUOUS
10
134.991
20
-107.309
11
134.991
21
-108.209
0
LINE
8
BLACK
6
CONTINUOUS
10
135.791
20
-108.209
11
135.341
21
-108.209
0
LINE
8
BLACK
6
CONTINUOUS
10
135.341
20
-108.209
11
135.341
21
-107.309
0
LINE
8
BLACK
6
CONTINUOUS
10
135.341
20
-107.309
11
135.791
21
-107.309
0
LINE
8
BLACK
6
CONTINUOUS
10
135.791
20
-107.309
11
135.791
21
-108.209
0
LINE
8
BLACK
6
CONTINUOUS
10
136.691
20
-108.209
11
136.241
21
-108.209
0
LINE
8
BLACK
6
CONTINUOUS
10
136.241
20
-108.209
11
136.241
21
-107.309
0
LINE
8
BLACK
6
CONTINUOUS
10
136.241
20
-107.309
11
136.691
21
-107.309
0
LINE
8
BLACK
6
CONTINUOUS
10
136.691
20
-107.309
11
136.691
21
-108.209
0
LINE
8
BLACK
6
CONTINUOUS
10
127.741
20
-108.209
11
127.291
21
-108.209
0
LINE
8
BLACK
6
CONTINUOUS
10
127.291
20
-108.209
11
127.291
21
-107.309
0
LINE
8
BLACK
6
CONTINUOUS
10
127.291
20
-107.309
11
127.741
21
-107.309
0
LINE
8
BLACK
6
CONTINUOUS
10
127.741
20
-107.309
11
127.741
21
-108.209
0
LINE
8
BLACK
6
CONTINUOUS
10
128.641
20
-108.209
11
128.191
21
-108.209
0
LINE
8
BLACK
6
CONTINUOUS
10
128.191
20
-108.209
11
128.191
21
-107.309
0
LINE
8
BLACK
6
CONTINUOUS
10
128.191
20
-107.309
11
128.641
21
-107.309
0
LINE
8
BLACK
6
CONTINUOUS
10
128.641
20
-107.309
11
128.641
21
-108.209
0
LINE
8
BLACK
6
CONTINUOUS
10
129.441
20
-108.209
11
128.991
21
-108.209
0
LINE
8
BLACK
6
CONTINUOUS
10
128.991
20
-108.209
11
128.991
21
-107.309
0
LINE
8
BLACK
6
CONTINUOUS
10
128.991
20
-107.309
11
129.441
21
-107.309
0
LINE
8
BLACK
6
CONTINUOUS
10
129.441
20
-107.309
11
129.441
21
-108.209
0
LINE
8
BLACK
6
CONTINUOUS
10
130.341
20
-108.209
11
129.891
21
-108.209
0
LINE
8
BLACK
6
CONTINUOUS
10
129.891
20
-108.209
11
129.891
21
-107.309
0
LINE
8
BLACK
6
CONTINUOUS
10
129.891
20
-107.309
11
130.341
21
-107.309
0
LINE
8
BLACK
6
CONTINUOUS
10
130.341
20
-107.309
11
130.341
21
-108.209
0
LINE
8
BLACK
6
CONTINUOUS
10
151.914
20
-107.827
11
150.924
21
-107.827
0
LINE
8
BLACK
6
CONTINUOUS
10
150.924
20
-107.827
11
150.924
21
-107.522
0
LINE
8
BLACK
6
CONTINUOUS
10
150.924
20
-107.522
11
151.914
21
-107.522
0
LINE
8
BLACK
6
CONTINUOUS
10
151.914
20
-107.522
11
151.914
21
-107.827
0
LINE
8
BLACK
6
CONTINUOUS
10
146.079
20
-107.827
11
145.088
21
-107.827
0
LINE
8
BLACK
6
CONTINUOUS
10
145.088
20
-107.827
11
145.088
21
-107.522
0
LINE
8
BLACK
6
CONTINUOUS
10
145.088
20
-107.522
11
146.079
21
-107.522
0
LINE
8
BLACK
6
CONTINUOUS
10
146.079
20
-107.522
11
146.079
21
-107.827
0
LINE
8
BLACK
6
CONTINUOUS
10
151.914
20
-107.177
11
150.924
21
-107.177
0
LINE
8
BLACK
6
CONTINUOUS
10
150.924
20
-107.177
11
150.924
21
-106.872
0
LINE
8
BLACK
6
CONTINUOUS
10
150.924
20
-106.872
11
151.914
21
-106.872
0
LINE
8
BLACK
6
CONTINUOUS
10
151.914
20
-106.872
11
151.914
21
-107.177
0
LINE
8
BLACK
6
CONTINUOUS
10
146.079
20
-107.177
11
145.088
21
-107.177
0
LINE
8
BLACK
6
CONTINUOUS
10
145.088
20
-107.177
11
145.088
21
-106.872
0
LINE
8
BLACK
6
CONTINUOUS
10
145.088
20
-106.872
11
146.079
21
-106.872
0
LINE
8
BLACK
6
CONTINUOUS
10
146.079
20
-106.872
11
146.079
21
-107.177
0
LINE
8
BLACK
6
CONTINUOUS
10
170.297
20
-106.636
11
169.847
21
-106.636
0
LINE
8
BLACK
6
CONTINUOUS
10
169.847
20
-106.636
11
169.847
21
-105.736
0
LINE
8
BLACK
6
CONTINUOUS
10
169.847
20
-105.736
11
170.297
21
-105.736
0
LINE
8
BLACK
6
CONTINUOUS
10
170.297
20
-105.736
11
170.297
21
-106.636
0
LINE
8
BLACK
6
CONTINUOUS
10
162.677
20
-106.636
11
162.227
21
-106.636
0
LINE
8
BLACK
6
CONTINUOUS
10
162.227
20
-106.636
11
162.227
21
-105.736
0
LINE
8
BLACK
6
CONTINUOUS
10
162.227
20
-105.736
11
162.677
21
-105.736
0
LINE
8
BLACK
6
CONTINUOUS
10
162.677
20
-105.736
11
162.677
21
-106.636
0
LINE
8
BLACK
6
CONTINUOUS
10
163.477
20
-106.636
11
163.027
21
-106.636
0
LINE
8
BLACK
6
CONTINUOUS
10
163.027
20
-106.636
11
163.027
21
-105.736
0
LINE
8
BLACK
6
CONTINUOUS
10
163.027
20
-105.736
11
163.477
21
-105.736
0
LINE
8
BLACK
6
CONTINUOUS
10
163.477
20
-105.736
11
163.477
21
-106.636
0
LINE
8
BLACK
6
CONTINUOUS
10
171.997
20
-106.636
11
171.547
21
-106.636
0
LINE
8
BLACK
6
CONTINUOUS
10
171.547
20
-106.636
11
171.547
21
-105.736
0
LINE
8
BLACK
6
CONTINUOUS
10
171.547
20
-105.736
11
171.997
21
-105.736
0
LINE
8
BLACK
6
CONTINUOUS
10
171.997
20
-105.736
11
171.997
21
-106.636
0
LINE
8
BLACK
6
CONTINUOUS
10
164.377
20
-106.636
11
163.927
21
-106.636
0
LINE
8
BLACK
6
CONTINUOUS
10
163.927
20
-106.636
11
163.927
21
-105.736
0
LINE
8
BLACK
6
CONTINUOUS
10
163.927
20
-105.736
11
164.377
21
-105.736
0
LINE
8
BLACK
6
CONTINUOUS
10
164.377
20
-105.736
11
164.377
21
-106.636
0
LINE
8
BLACK
6
CONTINUOUS
10
169.397
20
-106.636
11
168.947
21
-106.636
0
LINE
8
BLACK
6
CONTINUOUS
10
168.947
20
-106.636
11
168.947
21
-105.736
0
LINE
8
BLACK
6
CONTINUOUS
10
168.947
20
-105.736
11
169.397
21
-105.736
0
LINE
8
BLACK
6
CONTINUOUS
10
169.397
20
-105.736
11
169.397
21
-106.636
0
LINE
8
BLACK
6
CONTINUOUS
10
171.097
20
-106.636
11
170.647
21
-106.636
0
LINE
8
BLACK
6
CONTINUOUS
10
170.647
20
-106.636
11
170.647
21
-105.736
0
LINE
8
BLACK
6
CONTINUOUS
10
170.647
20
-105.736
11
171.097
21
-105.736
0
LINE
8
BLACK
6
CONTINUOUS
10
171.097
20
-105.736
11
171.097
21
-106.636
0
LINE
8
BLACK
6
CONTINUOUS
10
161.777
20
-106.636
11
161.327
21
-106.636
0
LINE
8
BLACK
6
CONTINUOUS
10
161.327
20
-106.636
11
161.327
21
-105.736
0
LINE
8
BLACK
6
CONTINUOUS
10
161.327
20
-105.736
11
161.777
21
-105.736
0
LINE
8
BLACK
6
CONTINUOUS
10
161.777
20
-105.736
11
161.777
21
-106.636
0
LINE
8
BLACK
6
CONTINUOUS
10
146.079
20
-106.527
11
145.088
21
-106.527
0
LINE
8
BLACK
6
CONTINUOUS
10
145.088
20
-106.527
11
145.088
21
-106.222
0
LINE
8
BLACK
6
CONTINUOUS
10
145.088
20
-106.222
11
146.079
21
-106.222
0
LINE
8
BLACK
6
CONTINUOUS
10
146.079
20
-106.222
11
146.079
21
-106.527
0
LINE
8
BLACK
6
CONTINUOUS
10
151.914
20
-106.527
11
150.924
21
-106.527
0
LINE
8
BLACK
6
CONTINUOUS
10
150.924
20
-106.527
11
150.924
21
-106.222
0
LINE
8
BLACK
6
CONTINUOUS
10
150.924
20
-106.222
11
151.914
21
-106.222
0
LINE
8
BLACK
6
CONTINUOUS
10
151.914
20
-106.222
11
151.914
21
-106.527
0
LINE
8
BLACK
6
CONTINUOUS
10
134.991
20
-106.509
11
134.541
21
-106.509
0
LINE
8
BLACK
6
CONTINUOUS
10
134.541
20
-106.509
11
134.541
21
-105.609
0
LINE
8
BLACK
6
CONTINUOUS
10
134.541
20
-105.609
11
134.991
21
-105.609
0
LINE
8
BLACK
6
CONTINUOUS
10
134.991
20
-105.609
11
134.991
21
-106.509
0
LINE
8
BLACK
6
CONTINUOUS
10
135.791
20
-106.509
11
135.341
21
-106.509
0
LINE
8
BLACK
6
CONTINUOUS
10
135.341
20
-106.509
11
135.341
21
-105.609
0
LINE
8
BLACK
6
CONTINUOUS
10
135.341
20
-105.609
11
135.791
21
-105.609
0
LINE
8
BLACK
6
CONTINUOUS
10
135.791
20
-105.609
11
135.791
21
-106.509
0
LINE
8
BLACK
6
CONTINUOUS
10
134.091
20
-106.509
11
133.641
21
-106.509
0
LINE
8
BLACK
6
CONTINUOUS
10
133.641
20
-106.509
11
133.641
21
-105.609
0
LINE
8
BLACK
6
CONTINUOUS
10
133.641
20
-105.609
11
134.091
21
-105.609
0
LINE
8
BLACK
6
CONTINUOUS
10
134.091
20
-105.609
11
134.091
21
-106.509
0
LINE
8
BLACK
6
CONTINUOUS
10
136.691
20
-106.509
11
136.241
21
-106.509
0
LINE
8
BLACK
6
CONTINUOUS
10
136.241
20
-106.509
11
136.241
21
-105.609
0
LINE
8
BLACK
6
CONTINUOUS
10
136.241
20
-105.609
11
136.691
21
-105.609
0
LINE
8
BLACK
6
CONTINUOUS
10
136.691
20
-105.609
11
136.691
21
-106.509
0
LINE
8
BLACK
6
CONTINUOUS
10
130.341
20
-106.509
11
129.891
21
-106.509
0
LINE
8
BLACK
6
CONTINUOUS
10
129.891
20
-106.509
11
129.891
21
-105.609
0
LINE
8
BLACK
6
CONTINUOUS
10
129.891
20
-105.609
11
130.341
21
-105.609
0
LINE
8
BLACK
6
CONTINUOUS
10
130.341
20
-105.609
11
130.341
21
-106.509
0
LINE
8
BLACK
6
CONTINUOUS
10
128.641
20
-106.509
11
128.191
21
-106.509
0
LINE
8
BLACK
6
CONTINUOUS
10
128.191
20
-106.509
11
128.191
21
-105.609
0
LINE
8
BLACK
6
CONTINUOUS
10
128.191
20
-105.609
11
128.641
21
-105.609
0
LINE
8
BLACK
6
CONTINUOUS
10
128.641
20
-105.609
11
128.641
21
-106.509
0
LINE
8
BLACK
6
CONTINUOUS
10
129.441
20
-106.509
11
128.991
21
-106.509
0
LINE
8
BLACK
6
CONTINUOUS
10
128.991
20
-106.509
11
128.991
21
-105.609
0
LINE
8
BLACK
6
CONTINUOUS
10
128.991
20
-105.609
11
129.441
21
-105.609
0
LINE
8
BLACK
6
CONTINUOUS
10
129.441
20
-105.609
11
129.441
21
-106.509
0
LINE
8
BLACK
6
CONTINUOUS
10
127.741
20
-106.509
11
127.291
21
-106.509
0
LINE
8
BLACK
6
CONTINUOUS
10
127.291
20
-106.509
11
127.291
21
-105.609
0
LINE
8
BLACK
6
CONTINUOUS
10
127.291
20
-105.609
11
127.741
21
-105.609
0
LINE
8
BLACK
6
CONTINUOUS
10
127.741
20
-105.609
11
127.741
21
-106.509
0
LINE
8
BLACK
6
CONTINUOUS
10
146.079
20
-105.877
11
145.088
21
-105.877
0
LINE
8
BLACK
6
CONTINUOUS
10
145.088
20
-105.877
11
145.088
21
-105.572
0
LINE
8
BLACK
6
CONTINUOUS
10
145.088
20
-105.572
11
146.079
21
-105.572
0
LINE
8
BLACK
6
CONTINUOUS
10
146.079
20
-105.572
11
146.079
21
-105.877
0
LINE
8
BLACK
6
CONTINUOUS
10
151.914
20
-105.877
11
150.924
21
-105.877
0
LINE
8
BLACK
6
CONTINUOUS
10
150.924
20
-105.877
11
150.924
21
-105.572
0
LINE
8
BLACK
6
CONTINUOUS
10
150.924
20
-105.572
11
151.914
21
-105.572
0
LINE
8
BLACK
6
CONTINUOUS
10
151.914
20
-105.572
11
151.914
21
-105.877
0
LINE
8
BLACK
6
CONTINUOUS
10
151.914
20
-105.227
11
150.924
21
-105.227
0
LINE
8
BLACK
6
CONTINUOUS
10
150.924
20
-105.227
11
150.924
21
-104.922
0
LINE
8
BLACK
6
CONTINUOUS
10
150.924
20
-104.922
11
151.914
21
-104.922
0
LINE
8
BLACK
6
CONTINUOUS
10
151.914
20
-104.922
11
151.914
21
-105.227
0
LINE
8
BLACK
6
CONTINUOUS
10
146.079
20
-105.227
11
145.088
21
-105.227
0
LINE
8
BLACK
6
CONTINUOUS
10
145.088
20
-105.227
11
145.088
21
-104.922
0
LINE
8
BLACK
6
CONTINUOUS
10
145.088
20
-104.922
11
146.079
21
-104.922
0
LINE
8
BLACK
6
CONTINUOUS
10
146.079
20
-104.922
11
146.079
21
-105.227
0
LINE
8
BLACK
6
CONTINUOUS
10
126.82
20
-104.889
11
125.32
21
-104.889
0
LINE
8
BLACK
6
CONTINUOUS
10
125.32
20
-104.889
11
125.32
21
-103.589
0
LINE
8
BLACK
6
CONTINUOUS
10
125.32
20
-103.589
11
126.82
21
-103.589
0
LINE
8
BLACK
6
CONTINUOUS
10
126.82
20
-103.589
11
126.82
21
-104.889
0
LINE
8
BLACK
6
CONTINUOUS
10
151.914
20
-104.577
11
150.924
21
-104.577
0
LINE
8
BLACK
6
CONTINUOUS
10
150.924
20
-104.577
11
150.924
21
-104.272
0
LINE
8
BLACK
6
CONTINUOUS
10
150.924
20
-104.272
11
151.914
21
-104.272
0
LINE
8
BLACK
6
CONTINUOUS
10
151.914
20
-104.272
11
151.914
21
-104.577
0
LINE
8
BLACK
6
CONTINUOUS
10
146.079
20
-104.577
11
145.088
21
-104.577
0
LINE
8
BLACK
6
CONTINUOUS
10
145.088
20
-104.577
11
145.088
21
-104.272
0
LINE
8
BLACK
6
CONTINUOUS
10
145.088
20
-104.272
11
146.079
21
-104.272
0
LINE
8
BLACK
6
CONTINUOUS
10
146.079
20
-104.272
11
146.079
21
-104.577
0
LINE
8
BLACK
6
CONTINUOUS
10
151.914
20
-103.927
11
150.924
21
-103.927
0
LINE
8
BLACK
6
CONTINUOUS
10
150.924
20
-103.927
11
150.924
21
-103.622
0
LINE
8
BLACK
6
CONTINUOUS
10
150.924
20
-103.622
11
151.914
21
-103.622
0
LINE
8
BLACK
6
CONTINUOUS
10
151.914
20
-103.622
11
151.914
21
-103.927
0
LINE
8
BLACK
6
CONTINUOUS
10
146.079
20
-103.927
11
145.088
21
-103.927
0
LINE
8
BLACK
6
CONTINUOUS
10
145.088
20
-103.927
11
145.088
21
-103.622
0
LINE
8
BLACK
6
CONTINUOUS
10
145.088
20
-103.622
11
146.079
21
-103.622
0
LINE
8
BLACK
6
CONTINUOUS
10
146.079
20
-103.622
11
146.079
21
-103.927
0
LINE
8
BLACK
6
CONTINUOUS
10
151.914
20
-103.277
11
150.924
21
-103.277
0
LINE
8
BLACK
6
CONTINUOUS
10
150.924
20
-103.277
11
150.924
21
-102.972
0
LINE
8
BLACK
6
CONTINUOUS
10
150.924
20
-102.972
11
151.914
21
-102.972
0
LINE
8
BLACK
6
CONTINUOUS
10
151.914
20
-102.972
11
151.914
21
-103.277
0
LINE
8
BLACK
6
CONTINUOUS
10
146.079
20
-103.277
11
145.088
21
-103.277
0
LINE
8
BLACK
6
CONTINUOUS
10
145.088
20
-103.277
11
145.088
21
-102.972
0
LINE
8
BLACK
6
CONTINUOUS
10
145.088
20
-102.972
11
146.079
21
-102.972
0
LINE
8
BLACK
6
CONTINUOUS
10
146.079
20
-102.972
11
146.079
21
-103.277
0
LINE
8
BLACK
6
CONTINUOUS
10
126.82
20
-102.989
11
125.32
21
-102.989
0
LINE
8
BLACK
6
CONTINUOUS
10
125.32
20
-102.989
11
125.32
21
-101.689
0
LINE
8
BLACK
6
CONTINUOUS
10
125.32
20
-101.689
11
126.82
21
-101.689
0
LINE
8
BLACK
6
CONTINUOUS
10
126.82
20
-101.689
11
126.82
21
-102.989
0
LINE
8
BLACK
6
CONTINUOUS
10
151.914
20
-102.627
11
150.924
21
-102.627
0
LINE
8
BLACK
6
CONTINUOUS
10
150.924
20
-102.627
11
150.924
21
-102.322
0
LINE
8
BLACK
6
CONTINUOUS
10
150.924
20
-102.322
11
151.914
21
-102.322
0
LINE
8
BLACK
6
CONTINUOUS
10
151.914
20
-102.322
11
151.914
21
-102.627
0
LINE
8
BLACK
6
CONTINUOUS
10
146.079
20
-102.627
11
145.088
21
-102.627
0
LINE
8
BLACK
6
CONTINUOUS
10
145.088
20
-102.627
11
145.088
21
-102.322
0
LINE
8
BLACK
6
CONTINUOUS
10
145.088
20
-102.322
11
146.079
21
-102.322
0
LINE
8
BLACK
6
CONTINUOUS
10
146.079
20
-102.322
11
146.079
21
-102.627
0
LINE
8
BLACK
6
CONTINUOUS
10
151.914
20
-101.977
11
150.924
21
-101.977
0
LINE
8
BLACK
6
CONTINUOUS
10
150.924
20
-101.977
11
150.924
21
-101.672
0
LINE
8
BLACK
6
CONTINUOUS
10
150.924
20
-101.672
11
151.914
21
-101.672
0
LINE
8
BLACK
6
CONTINUOUS
10
151.914
20
-101.672
11
151.914
21
-101.977
0
LINE
8
BLACK
6
CONTINUOUS
10
146.079
20
-101.977
11
145.088
21
-101.977
0
LINE
8
BLACK
6
CONTINUOUS
10
145.088
20
-101.977
11
145.088
21
-101.672
0
LINE
8
BLACK
6
CONTINUOUS
10
145.088
20
-101.672
11
146.079
21
-101.672
0
LINE
8
BLACK
6
CONTINUOUS
10
146.079
20
-101.672
11
146.079
21
-101.977
0
LINE
8
BLACK
6
CONTINUOUS
10
151.914
20
-101.327
11
150.924
21
-101.327
0
LINE
8
BLACK
6
CONTINUOUS
10
150.924
20
-101.327
11
150.924
21
-101.022
0
LINE
8
BLACK
6
CONTINUOUS
10
150.924
20
-101.022
11
151.914
21
-101.022
0
LINE
8
BLACK
6
CONTINUOUS
10
151.914
20
-101.022
11
151.914
21
-101.327
0
LINE
8
BLACK
6
CONTINUOUS
10
146.079
20
-101.327
11
145.088
21
-101.327
0
LINE
8
BLACK
6
CONTINUOUS
10
145.088
20
-101.327
11
145.088
21
-101.022
0
LINE
8
BLACK
6
CONTINUOUS
10
145.088
20
-101.022
11
146.079
21
-101.022
0
LINE
8
BLACK
6
CONTINUOUS
10
146.079
20
-101.022
11
146.079
21
-101.327
0
LINE
8
BLACK
6
CONTINUOUS
10
168.265
20
-100.843
11
167.815
21
-100.843
0
LINE
8
BLACK
6
CONTINUOUS
10
167.815
20
-100.843
11
167.815
21
-99.9426
0
LINE
8
BLACK
6
CONTINUOUS
10
167.815
20
-99.9426
11
168.265
21
-99.9426
0
LINE
8
BLACK
6
CONTINUOUS
10
168.265
20
-99.9426
11
168.265
21
-100.843
0
LINE
8
BLACK
6
CONTINUOUS
10
160.38
20
-100.843
11
159.93
21
-100.843
0
LINE
8
BLACK
6
CONTINUOUS
10
159.93
20
-100.843
11
159.93
21
-99.9426
0
LINE
8
BLACK
6
CONTINUOUS
10
159.93
20
-99.9426
11
160.38
21
-99.9426
0
LINE
8
BLACK
6
CONTINUOUS
10
160.38
20
-99.9426
11
160.38
21
-100.843
0
LINE
8
BLACK
6
CONTINUOUS
10
162.98
20
-100.843
11
162.53
21
-100.843
0
LINE
8
BLACK
6
CONTINUOUS
10
162.53
20
-100.843
11
162.53
21
-99.9426
0
LINE
8
BLACK
6
CONTINUOUS
10
162.53
20
-99.9426
11
162.98
21
-99.9426
0
LINE
8
BLACK
6
CONTINUOUS
10
162.98
20
-99.9426
11
162.98
21
-100.843
0
LINE
8
BLACK
6
CONTINUOUS
10
161.28
20
-100.843
11
160.83
21
-100.843
0
LINE
8
BLACK
6
CONTINUOUS
10
160.83
20
-100.843
11
160.83
21
-99.9426
0
LINE
8
BLACK
6
CONTINUOUS
10
160.83
20
-99.9426
11
161.28
21
-99.9426
0
LINE
8
BLACK
6
CONTINUOUS
10
161.28
20
-99.9426
11
161.28
21
-100.843
0
LINE
8
BLACK
6
CONTINUOUS
10
162.08
20
-100.843
11
161.63
21
-100.843
0
LINE
8
BLACK
6
CONTINUOUS
10
161.63
20
-100.843
11
161.63
21
-99.9426
0
LINE
8
BLACK
6
CONTINUOUS
10
161.63
20
-99.9426
11
162.08
21
-99.9426
0
LINE
8
BLACK
6
CONTINUOUS
10
162.08
20
-99.9426
11
162.08
21
-100.843
0
LINE
8
BLACK
6
CONTINUOUS
10
169.065
20
-100.843
11
168.615
21
-100.843
0
LINE
8
BLACK
6
CONTINUOUS
10
168.615
20
-100.843
11
168.615
21
-99.9426
0
LINE
8
BLACK
6
CONTINUOUS
10
168.615
20
-99.9426
11
169.065
21
-99.9426
0
LINE
8
BLACK
6
CONTINUOUS
10
169.065
20
-99.9426
11
169.065
21
-100.843
0
LINE
8
BLACK
6
CONTINUOUS
10
169.965
20
-100.843
11
169.515
21
-100.843
0
LINE
8
BLACK
6
CONTINUOUS
10
169.515
20
-100.843
11
169.515
21
-99.9426
0
LINE
8
BLACK
6
CONTINUOUS
10
169.515
20
-99.9426
11
169.965
21
-99.9426
0
LINE
8
BLACK
6
CONTINUOUS
10
169.965
20
-99.9426
11
169.965
21
-100.843
0
LINE
8
BLACK
6
CONTINUOUS
10
167.365
20
-100.843
11
166.915
21
-100.843
0
LINE
8
BLACK
6
CONTINUOUS
10
166.915
20
-100.843
11
166.915
21
-99.9426
0
LINE
8
BLACK
6
CONTINUOUS
10
166.915
20
-99.9426
11
167.365
21
-99.9426
0
LINE
8
BLACK
6
CONTINUOUS
10
167.365
20
-99.9426
11
167.365
21
-100.843
0
LINE
8
BLACK
6
CONTINUOUS
10
146.079
20
-100.677
11
145.088
21
-100.677
0
LINE
8
BLACK
6
CONTINUOUS
10
145.088
20
-100.677
11
145.088
21
-100.372
0
LINE
8
BLACK
6
CONTINUOUS
10
145.088
20
-100.372
11
146.079
21
-100.372
0
LINE
8
BLACK
6
CONTINUOUS
10
146.079
20
-100.372
11
146.079
21
-100.677
0
LINE
8
BLACK
6
CONTINUOUS
10
151.914
20
-100.677
11
150.924
21
-100.677
0
LINE
8
BLACK
6
CONTINUOUS
10
150.924
20
-100.677
11
150.924
21
-100.372
0
LINE
8
BLACK
6
CONTINUOUS
10
150.924
20
-100.372
11
151.914
21
-100.372
0
LINE
8
BLACK
6
CONTINUOUS
10
151.914
20
-100.372
11
151.914
21
-100.677
0
LINE
8
BLACK
6
CONTINUOUS
10
155.374
20
-100.524
11
154.074
21
-100.524
0
LINE
8
BLACK
6
CONTINUOUS
10
154.074
20
-100.524
11
154.074
21
-99.3236
0
LINE
8
BLACK
6
CONTINUOUS
10
154.074
20
-99.3236
11
155.374
21
-99.3236
0
LINE
8
BLACK
6
CONTINUOUS
10
155.374
20
-99.3236
11
155.374
21
-100.524
0
LINE
8
BLACK
6
CONTINUOUS
10
167.365
20
-99.1426
11
166.915
21
-99.1426
0
LINE
8
BLACK
6
CONTINUOUS
10
166.915
20
-99.1426
11
166.915
21
-98.2426
0
LINE
8
BLACK
6
CONTINUOUS
10
166.915
20
-98.2426
11
167.365
21
-98.2426
0
LINE
8
BLACK
6
CONTINUOUS
10
167.365
20
-98.2426
11
167.365
21
-99.1426
0
LINE
8
BLACK
6
CONTINUOUS
10
169.965
20
-99.1426
11
169.515
21
-99.1426
0
LINE
8
BLACK
6
CONTINUOUS
10
169.515
20
-99.1426
11
169.515
21
-98.2426
0
LINE
8
BLACK
6
CONTINUOUS
10
169.515
20
-98.2426
11
169.965
21
-98.2426
0
LINE
8
BLACK
6
CONTINUOUS
10
169.965
20
-98.2426
11
169.965
21
-99.1426
0
LINE
8
BLACK
6
CONTINUOUS
10
169.065
20
-99.1426
11
168.615
21
-99.1426
0
LINE
8
BLACK
6
CONTINUOUS
10
168.615
20
-99.1426
11
168.615
21
-98.2426
0
LINE
8
BLACK
6
CONTINUOUS
10
168.615
20
-98.2426
11
169.065
21
-98.2426
0
LINE
8
BLACK
6
CONTINUOUS
10
169.065
20
-98.2426
11
169.065
21
-99.1426
0
LINE
8
BLACK
6
CONTINUOUS
10
168.265
20
-99.1426
11
167.815
21
-99.1426
0
LINE
8
BLACK
6
CONTINUOUS
10
167.815
20
-99.1426
11
167.815
21
-98.2426
0
LINE
8
BLACK
6
CONTINUOUS
10
167.815
20
-98.2426
11
168.265
21
-98.2426
0
LINE
8
BLACK
6
CONTINUOUS
10
168.265
20
-98.2426
11
168.265
21
-99.1426
0
LINE
8
BLACK
6
CONTINUOUS
10
160.38
20
-99.1426
11
159.93
21
-99.1426
0
LINE
8
BLACK
6
CONTINUOUS
10
159.93
20
-99.1426
11
159.93
21
-98.2426
0
LINE
8
BLACK
6
CONTINUOUS
10
159.93
20
-98.2426
11
160.38
21
-98.2426
0
LINE
8
BLACK
6
CONTINUOUS
10
160.38
20
-98.2426
11
160.38
21
-99.1426
0
LINE
8
BLACK
6
CONTINUOUS
10
161.28
20
-99.1426
11
160.83
21
-99.1426
0
LINE
8
BLACK
6
CONTINUOUS
10
160.83
20
-99.1426
11
160.83
21
-98.2426
0
LINE
8
BLACK
6
CONTINUOUS
10
160.83
20
-98.2426
11
161.28
21
-98.2426
0
LINE
8
BLACK
6
CONTINUOUS
10
161.28
20
-98.2426
11
161.28
21
-99.1426
0
LINE
8
BLACK
6
CONTINUOUS
10
162.08
20
-99.1426
11
161.63
21
-99.1426
0
LINE
8
BLACK
6
CONTINUOUS
10
161.63
20
-99.1426
11
161.63
21
-98.2426
0
LINE
8
BLACK
6
CONTINUOUS
10
161.63
20
-98.2426
11
162.08
21
-98.2426
0
LINE
8
BLACK
6
CONTINUOUS
10
162.08
20
-98.2426
11
162.08
21
-99.1426
0
LINE
8
BLACK
6
CONTINUOUS
10
162.98
20
-99.1426
11
162.53
21
-99.1426
0
LINE
8
BLACK
6
CONTINUOUS
10
162.53
20
-99.1426
11
162.53
21
-98.2426
0
LINE
8
BLACK
6
CONTINUOUS
10
162.53
20
-98.2426
11
162.98
21
-98.2426
0
LINE
8
BLACK
6
CONTINUOUS
10
162.98
20
-98.2426
11
162.98
21
-99.1426
0
LINE
8
BLACK
6
CONTINUOUS
10
133.846
20
-98.8286
11
132.246
21
-98.8286
0
LINE
8
BLACK
6
CONTINUOUS
10
132.246
20
-98.8286
11
132.246
21
-97.8286
0
LINE
8
BLACK
6
CONTINUOUS
10
132.246
20
-97.8286
11
133.846
21
-97.8286
0
LINE
8
BLACK
6
CONTINUOUS
10
133.846
20
-97.8286
11
133.846
21
-98.8286
0
LINE
8
BLACK
6
CONTINUOUS
10
143.446
20
-98.7486
11
137.246
21
-98.7486
0
LINE
8
BLACK
6
CONTINUOUS
10
137.246
20
-98.7486
11
137.246
21
-93.3486
0
LINE
8
BLACK
6
CONTINUOUS
10
137.246
20
-93.3486
11
143.446
21
-93.3486
0
LINE
8
BLACK
6
CONTINUOUS
10
143.446
20
-93.3486
11
143.446
21
-98.7486
0
LINE
8
BLACK
6
CONTINUOUS
10
124.994
20
-98.5391
11
123.494
21
-98.5391
0
LINE
8
BLACK
6
CONTINUOUS
10
123.494
20
-98.5391
11
123.494
21
-97.2391
0
LINE
8
BLACK
6
CONTINUOUS
10
123.494
20
-97.2391
11
124.994
21
-97.2391
0
LINE
8
BLACK
6
CONTINUOUS
10
124.994
20
-97.2391
11
124.994
21
-98.5391
0
LINE
8
BLACK
6
CONTINUOUS
10
155.374
20
-98.4916
11
154.074
21
-98.4916
0
LINE
8
BLACK
6
CONTINUOUS
10
154.074
20
-98.4916
11
154.074
21
-97.2916
0
LINE
8
BLACK
6
CONTINUOUS
10
154.074
20
-97.2916
11
155.374
21
-97.2916
0
LINE
8
BLACK
6
CONTINUOUS
10
155.374
20
-97.2916
11
155.374
21
-98.4916
0
LINE
8
BLACK
6
CONTINUOUS
10
124.994
20
-96.6391
11
123.494
21
-96.6391
0
LINE
8
BLACK
6
CONTINUOUS
10
123.494
20
-96.6391
11
123.494
21
-95.3391
0
LINE
8
BLACK
6
CONTINUOUS
10
123.494
20
-95.3391
11
124.994
21
-95.3391
0
LINE
8
BLACK
6
CONTINUOUS
10
124.994
20
-95.3391
11
124.994
21
-96.6391
0
LINE
8
BLACK
6
CONTINUOUS
10
155.324
20
-96.3666
11
154.124
21
-96.3666
0
LINE
8
BLACK
6
CONTINUOUS
10
154.124
20
-96.3666
11
154.124
21
-95.1666
0
LINE
8
BLACK
6
CONTINUOUS
10
154.124
20
-95.1666
11
155.324
21
-95.1666
0
LINE
8
BLACK
6
CONTINUOUS
10
155.324
20
-95.1666
11
155.324
21
-96.3666
0
LINE
8
BLACK
6
CONTINUOUS
10
133.846
20
-94.2686
11
132.246
21
-94.2686
0
LINE
8
BLACK
6
CONTINUOUS
10
132.246
20
-94.2686
11
132.246
21
-93.2686
0
LINE
8
BLACK
6
CONTINUOUS
10
132.246
20
-93.2686
11
133.846
21
-93.2686
0
LINE
8
BLACK
6
CONTINUOUS
10
133.846
20
-93.2686
11
133.846
21
-94.2686
0
LINE
8
BLACK
6
CONTINUOUS
10
155.324
20
-94.2666
11
154.124
21
-94.2666
0
LINE
8
BLACK
6
CONTINUOUS
10
154.124
20
-94.2666
11
154.124
21
-93.0666
0
LINE
8
BLACK
6
CONTINUOUS
10
154.124
20
-93.0666
11
155.324
21
-93.0666
0
LINE
8
BLACK
6
CONTINUOUS
10
155.324
20
-93.0666
11
155.324
21
-94.2666
  0
ENDSEC
  0
EOF
