  0
SECTION
  2
HEADER
  9
$ANGBASE
  50
0.0
  9
$ANGDIR
  70
  1
  9
$MEASUREMENT
  70
0
  0
ENDSEC
  0
SECTION
  2
TABLES
  0
TABLE
  2
LTYPE
  70
4
  0
LTYPE
  5
40F
  2
CONTINUOUS
  70
0
  3
Solid line
  72
65
  73
0
  40
0.0
  0
LTYPE
  5
410
  2
DASHDOT
 70
0
  3
Dash Dot ____ _ ____ _
 72
65
 73
4
 40
2.0
 49
1.25
 49
-0.25
 49
0.25
 49
-0.25
  0
LTYPE
  5
411
  2
DASHED
 70
0
  3
Dashed __ __ __ __ __
 72
65
 73
2
 40
0.75
 49
0.5
 49
-0.25
  0
LTYPE
  5
43B
  2
DOTTED
 70
0
  3
Dotted .  .  .  .
 72
65
 73
2
 40
0.2
 49
0.0
 49
-0.2
  0
ENDTAB
  0
TABLE
  2
STYLE
  70
4
  0
STYLE
  2
KICAD
  70
0
  40
0
  41
1
  42
1
  50
0
  71
0
  3
isocp.shx
  0
STYLE
  2
KICADB
  70
0
  40
0
  41
1
  42
1
  50
0
  71
0
  3
isocp.shx
  0
STYLE
  2
KICADI
  70
0
  40
0
  41
1
  42
1
  50
15
  71
0
  3
isocp.shx
  0
STYLE
  2
KICADBI
  70
0
  40
0
  41
1
  42
1
  50
15
  71
0
  3
isocp.shx
  0
ENDTAB
  0
TABLE
  2
LAYER
  70
30
  0
LAYER
  2
BLACK
  70
0
  62
7
  6
CONTINUOUS
  0
LAYER
  2
GRAY1
  70
0
  62
251
  6
CONTINUOUS
  0
LAYER
  2
GRAY2
  70
0
  62
8
  6
CONTINUOUS
  0
LAYER
  2
GRAY3
  70
0
  62
9
  6
CONTINUOUS
  0
LAYER
  2
WHITE
  70
0
  62
7
  6
CONTINUOUS
  0
LAYER
  2
LYELLOW
  70
0
  62
51
  6
CONTINUOUS
  0
LAYER
  2
BLUE1
  70
0
  62
178
  6
CONTINUOUS
  0
LAYER
  2
GREEN1
  70
0
  62
98
  6
CONTINUOUS
  0
LAYER
  2
CYAN1
  70
0
  62
138
  6
CONTINUOUS
  0
LAYER
  2
RED1
  70
0
  62
18
  6
CONTINUOUS
  0
LAYER
  2
MAGENTA1
  70
0
  62
228
  6
CONTINUOUS
  0
LAYER
  2
BROWN1
  70
0
  62
58
  6
CONTINUOUS
  0
LAYER
  2
BLUE2
  70
0
  62
5
  6
CONTINUOUS
  0
LAYER
  2
GREEN2
  70
0
  62
3
  6
CONTINUOUS
  0
LAYER
  2
CYAN2
  70
0
  62
4
  6
CONTINUOUS
  0
LAYER
  2
RED2
  70
0
  62
1
  6
CONTINUOUS
  0
LAYER
  2
MAGENTA2
  70
0
  62
6
  6
CONTINUOUS
  0
LAYER
  2
BROWN2
  70
0
  62
54
  6
CONTINUOUS
  0
LAYER
  2
BLUE3
  70
0
  62
171
  6
CONTINUOUS
  0
LAYER
  2
GREEN3
  70
0
  62
91
  6
CONTINUOUS
  0
LAYER
  2
CYAN3
  70
0
  62
131
  6
CONTINUOUS
  0
LAYER
  2
RED3
  70
0
  62
11
  6
CONTINUOUS
  0
LAYER
  2
MAGENTA3
  70
0
  62
221
  6
CONTINUOUS
  0
LAYER
  2
YELLOW3
  70
0
  62
2
  6
CONTINUOUS
  0
LAYER
  2
BLUE4
  70
0
  62
5
  6
CONTINUOUS
  0
LAYER
  2
GREEN4
  70
0
  62
3
  6
CONTINUOUS
  0
LAYER
  2
CYAN4
  70
0
  62
4
  6
CONTINUOUS
  0
LAYER
  2
RED4
  70
0
  62
1
  6
CONTINUOUS
  0
LAYER
  2
MAGENTA4
  70
0
  62
6
  6
CONTINUOUS
  0
LAYER
  2
YELLOW4
  70
0
  62
2
  6
CONTINUOUS
  0
ENDTAB
  0
ENDSEC
  0
SECTION
  2
ENTITIES
0
LINE
8
BLACK
6
CONTINUOUS
10
151.914
20
-109.127
11
150.924
21
-109.127
0
LINE
8
BLACK
6
CONTINUOUS
10
150.924
20
-109.127
11
150.924
21
-108.822
0
LINE
8
BLACK
6
CONTINUOUS
10
150.924
20
-108.822
11
151.914
21
-108.822
0
LINE
8
BLACK
6
CONTINUOUS
10
151.914
20
-108.822
11
151.914
21
-109.127
0
LINE
8
BLACK
6
CONTINUOUS
10
146.079
20
-109.127
11
145.088
21
-109.127
0
LINE
8
BLACK
6
CONTINUOUS
10
145.088
20
-109.127
11
145.088
21
-108.822
0
LINE
8
BLACK
6
CONTINUOUS
10
145.088
20
-108.822
11
146.079
21
-108.822
0
LINE
8
BLACK
6
CONTINUOUS
10
146.079
20
-108.822
11
146.079
21
-109.127
0
LINE
8
BLACK
6
CONTINUOUS
10
151.914
20
-108.477
11
150.924
21
-108.477
0
LINE
8
BLACK
6
CONTINUOUS
10
150.924
20
-108.477
11
150.924
21
-108.172
0
LINE
8
BLACK
6
CONTINUOUS
10
150.924
20
-108.172
11
151.914
21
-108.172
0
LINE
8
BLACK
6
CONTINUOUS
10
151.914
20
-108.172
11
151.914
21
-108.477
0
LINE
8
BLACK
6
CONTINUOUS
10
146.079
20
-108.477
11
145.088
21
-108.477
0
LINE
8
BLACK
6
CONTINUOUS
10
145.088
20
-108.477
11
145.088
21
-108.172
0
LINE
8
BLACK
6
CONTINUOUS
10
145.088
20
-108.172
11
146.079
21
-108.172
0
LINE
8
BLACK
6
CONTINUOUS
10
146.079
20
-108.172
11
146.079
21
-108.477
0
LINE
8
BLACK
6
CONTINUOUS
10
164.377
20
-108.336
11
163.927
21
-108.336
0
LINE
8
BLACK
6
CONTINUOUS
10
163.927
20
-108.336
11
163.927
21
-107.436
0
LINE
8
BLACK
6
CONTINUOUS
10
163.927
20
-107.436
11
164.377
21
-107.436
0
LINE
8
BLACK
6
CONTINUOUS
10
164.377
20
-107.436
11
164.377
21
-108.336
0
LINE
8
BLACK
6
CONTINUOUS
10
163.477
20
-108.336
11
163.027
21
-108.336
0
LINE
8
BLACK
6
CONTINUOUS
10
163.027
20
-108.336
11
163.027
21
-107.436
0
LINE
8
BLACK
6
CONTINUOUS
10
163.027
20
-107.436
11
163.477
21
-107.436
0
LINE
8
BLACK
6
CONTINUOUS
10
163.477
20
-107.436
11
163.477
21
-108.336
0
LINE
8
BLACK
6
CONTINUOUS
10
162.677
20
-108.336
11
162.227
21
-108.336
0
LINE
8
BLACK
6
CONTINUOUS
10
162.227
20
-108.336
11
162.227
21
-107.436
0
LINE
8
BLACK
6
CONTINUOUS
10
162.227
20
-107.436
11
162.677
21
-107.436
0
LINE
8
BLACK
6
CONTINUOUS
10
162.677
20
-107.436
11
162.677
21
-108.336
0
LINE
8
BLACK
6
CONTINUOUS
10
161.777
20
-108.336
11
161.327
21
-108.336
0
LINE
8
BLACK
6
CONTINUOUS
10
161.327
20
-108.336
11
161.327
21
-107.436
0
LINE
8
BLACK
6
CONTINUOUS
10
161.327
20
-107.436
11
161.777
21
-107.436
0
LINE
8
BLACK
6
CONTINUOUS
10
161.777
20
-107.436
11
161.777
21
-108.336
0
LINE
8
BLACK
6
CONTINUOUS
10
169.397
20
-108.336
11
168.947
21
-108.336
0
LINE
8
BLACK
6
CONTINUOUS
10
168.947
20
-108.336
11
168.947
21
-107.436
0
LINE
8
BLACK
6
CONTINUOUS
10
168.947
20
-107.436
11
169.397
21
-107.436
0
LINE
8
BLACK
6
CONTINUOUS
10
169.397
20
-107.436
11
169.397
21
-108.336
0
LINE
8
BLACK
6
CONTINUOUS
10
171.997
20
-108.336
11
171.547
21
-108.336
0
LINE
8
BLACK
6
CONTINUOUS
10
171.547
20
-108.336
11
171.547
21
-107.436
0
LINE
8
BLACK
6
CONTINUOUS
10
171.547
20
-107.436
11
171.997
21
-107.436
0
LINE
8
BLACK
6
CONTINUOUS
10
171.997
20
-107.436
11
171.997
21
-108.336
0
LINE
8
BLACK
6
CONTINUOUS
10
171.097
20
-108.336
11
170.647
21
-108.336
0
LINE
8
BLACK
6
CONTINUOUS
10
170.647
20
-108.336
11
170.647
21
-107.436
0
LINE
8
BLACK
6
CONTINUOUS
10
170.647
20
-107.436
11
171.097
21
-107.436
0
LINE
8
BLACK
6
CONTINUOUS
10
171.097
20
-107.436
11
171.097
21
-108.336
0
LINE
8
BLACK
6
CONTINUOUS
10
170.297
20
-108.336
11
169.847
21
-108.336
0
LINE
8
BLACK
6
CONTINUOUS
10
169.847
20
-108.336
11
169.847
21
-107.436
0
LINE
8
BLACK
6
CONTINUOUS
10
169.847
20
-107.436
11
170.297
21
-107.436
0
LINE
8
BLACK
6
CONTINUOUS
10
170.297
20
-107.436
11
170.297
21
-108.336
0
LINE
8
BLACK
6
CONTINUOUS
10
134.091
20
-108.209
11
133.641
21
-108.209
0
LINE
8
BLACK
6
CONTINUOUS
10
133.641
20
-108.209
11
133.641
21
-107.309
0
LINE
8
BLACK
6
CONTINUOUS
10
133.641
20
-107.309
11
134.091
21
-107.309
0
LINE
8
BLACK
6
CONTINUOUS
10
134.091
20
-107.309
11
134.091
21
-108.209
0
LINE
8
BLACK
6
CONTINUOUS
10
134.991
20
-108.209
11
134.541
21
-108.209
0
LINE
8
BLACK
6
CONTINUOUS
10
134.541
20
-108.209
11
134.541
21
-107.309
0
LINE
8
BLACK
6
CONTINUOUS
10
134.541
20
-107.309
11
134.991
21
-107.309
0
LINE
8
BLACK
6
CONTINUOUS
10
134.991
20
-107.309
11
134.991
21
-108.209
0
LINE
8
BLACK
6
CONTINUOUS
10
135.791
20
-108.209
11
135.341
21
-108.209
0
LINE
8
BLACK
6
CONTINUOUS
10
135.341
20
-108.209
11
135.341
21
-107.309
0
LINE
8
BLACK
6
CONTINUOUS
10
135.341
20
-107.309
11
135.791
21
-107.309
0
LINE
8
BLACK
6
CONTINUOUS
10
135.791
20
-107.309
11
135.791
21
-108.209
0
LINE
8
BLACK
6
CONTINUOUS
10
136.691
20
-108.209
11
136.241
21
-108.209
0
LINE
8
BLACK
6
CONTINUOUS
10
136.241
20
-108.209
11
136.241
21
-107.309
0
LINE
8
BLACK
6
CONTINUOUS
10
136.241
20
-107.309
11
136.691
21
-107.309
0
LINE
8
BLACK
6
CONTINUOUS
10
136.691
20
-107.309
11
136.691
21
-108.209
0
LINE
8
BLACK
6
CONTINUOUS
10
127.741
20
-108.209
11
127.291
21
-108.209
0
LINE
8
BLACK
6
CONTINUOUS
10
127.291
20
-108.209
11
127.291
21
-107.309
0
LINE
8
BLACK
6
CONTINUOUS
10
127.291
20
-107.309
11
127.741
21
-107.309
0
LINE
8
BLACK
6
CONTINUOUS
10
127.741
20
-107.309
11
127.741
21
-108.209
0
LINE
8
BLACK
6
CONTINUOUS
10
128.641
20
-108.209
11
128.191
21
-108.209
0
LINE
8
BLACK
6
CONTINUOUS
10
128.191
20
-108.209
11
128.191
21
-107.309
0
LINE
8
BLACK
6
CONTINUOUS
10
128.191
20
-107.309
11
128.641
21
-107.309
0
LINE
8
BLACK
6
CONTINUOUS
10
128.641
20
-107.309
11
128.641
21
-108.209
0
LINE
8
BLACK
6
CONTINUOUS
10
129.441
20
-108.209
11
128.991
21
-108.209
0
LINE
8
BLACK
6
CONTINUOUS
10
128.991
20
-108.209
11
128.991
21
-107.309
0
LINE
8
BLACK
6
CONTINUOUS
10
128.991
20
-107.309
11
129.441
21
-107.309
0
LINE
8
BLACK
6
CONTINUOUS
10
129.441
20
-107.309
11
129.441
21
-108.209
0
LINE
8
BLACK
6
CONTINUOUS
10
130.341
20
-108.209
11
129.891
21
-108.209
0
LINE
8
BLACK
6
CONTINUOUS
10
129.891
20
-108.209
11
129.891
21
-107.309
0
LINE
8
BLACK
6
CONTINUOUS
10
129.891
20
-107.309
11
130.341
21
-107.309
0
LINE
8
BLACK
6
CONTINUOUS
10
130.341
20
-107.309
11
130.341
21
-108.209
0
LINE
8
BLACK
6
CONTINUOUS
10
151.914
20
-107.827
11
150.924
21
-107.827
0
LINE
8
BLACK
6
CONTINUOUS
10
150.924
20
-107.827
11
150.924
21
-107.522
0
LINE
8
BLACK
6
CONTINUOUS
10
150.924
20
-107.522
11
151.914
21
-107.522
0
LINE
8
BLACK
6
CONTINUOUS
10
151.914
20
-107.522
11
151.914
21
-107.827
0
LINE
8
BLACK
6
CONTINUOUS
10
146.079
20
-107.827
11
145.088
21
-107.827
0
LINE
8
BLACK
6
CONTINUOUS
10
145.088
20
-107.827
11
145.088
21
-107.522
0
LINE
8
BLACK
6
CONTINUOUS
10
145.088
20
-107.522
11
146.079
21
-107.522
0
LINE
8
BLACK
6
CONTINUOUS
10
146.079
20
-107.522
11
146.079
21
-107.827
0
LINE
8
BLACK
6
CONTINUOUS
10
151.914
20
-107.177
11
150.924
21
-107.177
0
LINE
8
BLACK
6
CONTINUOUS
10
150.924
20
-107.177
11
150.924
21
-106.872
0
LINE
8
BLACK
6
CONTINUOUS
10
150.924
20
-106.872
11
151.914
21
-106.872
0
LINE
8
BLACK
6
CONTINUOUS
10
151.914
20
-106.872
11
151.914
21
-107.177
0
LINE
8
BLACK
6
CONTINUOUS
10
146.079
20
-107.177
11
145.088
21
-107.177
0
LINE
8
BLACK
6
CONTINUOUS
10
145.088
20
-107.177
11
145.088
21
-106.872
0
LINE
8
BLACK
6
CONTINUOUS
10
145.088
20
-106.872
11
146.079
21
-106.872
0
LINE
8
BLACK
6
CONTINUOUS
10
146.079
20
-106.872
11
146.079
21
-107.177
0
LINE
8
BLACK
6
CONTINUOUS
10
170.297
20
-106.636
11
169.847
21
-106.636
0
LINE
8
BLACK
6
CONTINUOUS
10
169.847
20
-106.636
11
169.847
21
-105.736
0
LINE
8
BLACK
6
CONTINUOUS
10
169.847
20
-105.736
11
170.297
21
-105.736
0
LINE
8
BLACK
6
CONTINUOUS
10
170.297
20
-105.736
11
170.297
21
-106.636
0
LINE
8
BLACK
6
CONTINUOUS
10
162.677
20
-106.636
11
162.227
21
-106.636
0
LINE
8
BLACK
6
CONTINUOUS
10
162.227
20
-106.636
11
162.227
21
-105.736
0
LINE
8
BLACK
6
CONTINUOUS
10
162.227
20
-105.736
11
162.677
21
-105.736
0
LINE
8
BLACK
6
CONTINUOUS
10
162.677
20
-105.736
11
162.677
21
-106.636
0
LINE
8
BLACK
6
CONTINUOUS
10
163.477
20
-106.636
11
163.027
21
-106.636
0
LINE
8
BLACK
6
CONTINUOUS
10
163.027
20
-106.636
11
163.027
21
-105.736
0
LINE
8
BLACK
6
CONTINUOUS
10
163.027
20
-105.736
11
163.477
21
-105.736
0
LINE
8
BLACK
6
CONTINUOUS
10
163.477
20
-105.736
11
163.477
21
-106.636
0
LINE
8
BLACK
6
CONTINUOUS
10
171.997
20
-106.636
11
171.547
21
-106.636
0
LINE
8
BLACK
6
CONTINUOUS
10
171.547
20
-106.636
11
171.547
21
-105.736
0
LINE
8
BLACK
6
CONTINUOUS
10
171.547
20
-105.736
11
171.997
21
-105.736
0
LINE
8
BLACK
6
CONTINUOUS
10
171.997
20
-105.736
11
171.997
21
-106.636
0
LINE
8
BLACK
6
CONTINUOUS
10
164.377
20
-106.636
11
163.927
21
-106.636
0
LINE
8
BLACK
6
CONTINUOUS
10
163.927
20
-106.636
11
163.927
21
-105.736
0
LINE
8
BLACK
6
CONTINUOUS
10
163.927
20
-105.736
11
164.377
21
-105.736
0
LINE
8
BLACK
6
CONTINUOUS
10
164.377
20
-105.736
11
164.377
21
-106.636
0
LINE
8
BLACK
6
CONTINUOUS
10
169.397
20
-106.636
11
168.947
21
-106.636
0
LINE
8
BLACK
6
CONTINUOUS
10
168.947
20
-106.636
11
168.947
21
-105.736
0
LINE
8
BLACK
6
CONTINUOUS
10
168.947
20
-105.736
11
169.397
21
-105.736
0
LINE
8
BLACK
6
CONTINUOUS
10
169.397
20
-105.736
11
169.397
21
-106.636
0
LINE
8
BLACK
6
CONTINUOUS
10
171.097
20
-106.636
11
170.647
21
-106.636
0
LINE
8
BLACK
6
CONTINUOUS
10
170.647
20
-106.636
11
170.647
21
-105.736
0
LINE
8
BLACK
6
CONTINUOUS
10
170.647
20
-105.736
11
171.097
21
-105.736
0
LINE
8
BLACK
6
CONTINUOUS
10
171.097
20
-105.736
11
171.097
21
-106.636
0
LINE
8
BLACK
6
CONTINUOUS
10
161.777
20
-106.636
11
161.327
21
-106.636
0
LINE
8
BLACK
6
CONTINUOUS
10
161.327
20
-106.636
11
161.327
21
-105.736
0
LINE
8
BLACK
6
CONTINUOUS
10
161.327
20
-105.736
11
161.777
21
-105.736
0
LINE
8
BLACK
6
CONTINUOUS
10
161.777
20
-105.736
11
161.777
21
-106.636
0
LINE
8
BLACK
6
CONTINUOUS
10
146.079
20
-106.527
11
145.088
21
-106.527
0
LINE
8
BLACK
6
CONTINUOUS
10
145.088
20
-106.527
11
145.088
21
-106.222
0
LINE
8
BLACK
6
CONTINUOUS
10
145.088
20
-106.222
11
146.079
21
-106.222
0
LINE
8
BLACK
6
CONTINUOUS
10
146.079
20
-106.222
11
146.079
21
-106.527
0
LINE
8
BLACK
6
CONTINUOUS
10
151.914
20
-106.527
11
150.924
21
-106.527
0
LINE
8
BLACK
6
CONTINUOUS
10
150.924
20
-106.527
11
150.924
21
-106.222
0
LINE
8
BLACK
6
CONTINUOUS
10
150.924
20
-106.222
11
151.914
21
-106.222
0
LINE
8
BLACK
6
CONTINUOUS
10
151.914
20
-106.222
11
151.914
21
-106.527
0
LINE
8
BLACK
6
CONTINUOUS
10
134.991
20
-106.509
11
134.541
21
-106.509
0
LINE
8
BLACK
6
CONTINUOUS
10
134.541
20
-106.509
11
134.541
21
-105.609
0
LINE
8
BLACK
6
CONTINUOUS
10
134.541
20
-105.609
11
134.991
21
-105.609
0
LINE
8
BLACK
6
CONTINUOUS
10
134.991
20
-105.609
11
134.991
21
-106.509
0
LINE
8
BLACK
6
CONTINUOUS
10
135.791
20
-106.509
11
135.341
21
-106.509
0
LINE
8
BLACK
6
CONTINUOUS
10
135.341
20
-106.509
11
135.341
21
-105.609
0
LINE
8
BLACK
6
CONTINUOUS
10
135.341
20
-105.609
11
135.791
21
-105.609
0
LINE
8
BLACK
6
CONTINUOUS
10
135.791
20
-105.609
11
135.791
21
-106.509
0
LINE
8
BLACK
6
CONTINUOUS
10
134.091
20
-106.509
11
133.641
21
-106.509
0
LINE
8
BLACK
6
CONTINUOUS
10
133.641
20
-106.509
11
133.641
21
-105.609
0
LINE
8
BLACK
6
CONTINUOUS
10
133.641
20
-105.609
11
134.091
21
-105.609
0
LINE
8
BLACK
6
CONTINUOUS
10
134.091
20
-105.609
11
134.091
21
-106.509
0
LINE
8
BLACK
6
CONTINUOUS
10
136.691
20
-106.509
11
136.241
21
-106.509
0
LINE
8
BLACK
6
CONTINUOUS
10
136.241
20
-106.509
11
136.241
21
-105.609
0
LINE
8
BLACK
6
CONTINUOUS
10
136.241
20
-105.609
11
136.691
21
-105.609
0
LINE
8
BLACK
6
CONTINUOUS
10
136.691
20
-105.609
11
136.691
21
-106.509
0
LINE
8
BLACK
6
CONTINUOUS
10
130.341
20
-106.509
11
129.891
21
-106.509
0
LINE
8
BLACK
6
CONTINUOUS
10
129.891
20
-106.509
11
129.891
21
-105.609
0
LINE
8
BLACK
6
CONTINUOUS
10
129.891
20
-105.609
11
130.341
21
-105.609
0
LINE
8
BLACK
6
CONTINUOUS
10
130.341
20
-105.609
11
130.341
21
-106.509
0
LINE
8
BLACK
6
CONTINUOUS
10
128.641
20
-106.509
11
128.191
21
-106.509
0
LINE
8
BLACK
6
CONTINUOUS
10
128.191
20
-106.509
11
128.191
21
-105.609
0
LINE
8
BLACK
6
CONTINUOUS
10
128.191
20
-105.609
11
128.641
21
-105.609
0
LINE
8
BLACK
6
CONTINUOUS
10
128.641
20
-105.609
11
128.641
21
-106.509
0
LINE
8
BLACK
6
CONTINUOUS
10
129.441
20
-106.509
11
128.991
21
-106.509
0
LINE
8
BLACK
6
CONTINUOUS
10
128.991
20
-106.509
11
128.991
21
-105.609
0
LINE
8
BLACK
6
CONTINUOUS
10
128.991
20
-105.609
11
129.441
21
-105.609
0
LINE
8
BLACK
6
CONTINUOUS
10
129.441
20
-105.609
11
129.441
21
-106.509
0
LINE
8
BLACK
6
CONTINUOUS
10
127.741
20
-106.509
11
127.291
21
-106.509
0
LINE
8
BLACK
6
CONTINUOUS
10
127.291
20
-106.509
11
127.291
21
-105.609
0
LINE
8
BLACK
6
CONTINUOUS
10
127.291
20
-105.609
11
127.741
21
-105.609
0
LINE
8
BLACK
6
CONTINUOUS
10
127.741
20
-105.609
11
127.741
21
-106.509
0
LINE
8
BLACK
6
CONTINUOUS
10
146.079
20
-105.877
11
145.088
21
-105.877
0
LINE
8
BLACK
6
CONTINUOUS
10
145.088
20
-105.877
11
145.088
21
-105.572
0
LINE
8
BLACK
6
CONTINUOUS
10
145.088
20
-105.572
11
146.079
21
-105.572
0
LINE
8
BLACK
6
CONTINUOUS
10
146.079
20
-105.572
11
146.079
21
-105.877
0
LINE
8
BLACK
6
CONTINUOUS
10
151.914
20
-105.877
11
150.924
21
-105.877
0
LINE
8
BLACK
6
CONTINUOUS
10
150.924
20
-105.877
11
150.924
21
-105.572
0
LINE
8
BLACK
6
CONTINUOUS
10
150.924
20
-105.572
11
151.914
21
-105.572
0
LINE
8
BLACK
6
CONTINUOUS
10
151.914
20
-105.572
11
151.914
21
-105.877
0
LINE
8
BLACK
6
CONTINUOUS
10
151.914
20
-105.227
11
150.924
21
-105.227
0
LINE
8
BLACK
6
CONTINUOUS
10
150.924
20
-105.227
11
150.924
21
-104.922
0
LINE
8
BLACK
6
CONTINUOUS
10
150.924
20
-104.922
11
151.914
21
-104.922
0
LINE
8
BLACK
6
CONTINUOUS
10
151.914
20
-104.922
11
151.914
21
-105.227
0
LINE
8
BLACK
6
CONTINUOUS
10
146.079
20
-105.227
11
145.088
21
-105.227
0
LINE
8
BLACK
6
CONTINUOUS
10
145.088
20
-105.227
11
145.088
21
-104.922
0
LINE
8
BLACK
6
CONTINUOUS
10
145.088
20
-104.922
11
146.079
21
-104.922
0
LINE
8
BLACK
6
CONTINUOUS
10
146.079
20
-104.922
11
146.079
21
-105.227
0
LINE
8
BLACK
6
CONTINUOUS
10
126.82
20
-104.889
11
125.32
21
-104.889
0
LINE
8
BLACK
6
CONTINUOUS
10
125.32
20
-104.889
11
125.32
21
-103.589
0
LINE
8
BLACK
6
CONTINUOUS
10
125.32
20
-103.589
11
126.82
21
-103.589
0
LINE
8
BLACK
6
CONTINUOUS
10
126.82
20
-103.589
11
126.82
21
-104.889
0
LINE
8
BLACK
6
CONTINUOUS
10
151.914
20
-104.577
11
150.924
21
-104.577
0
LINE
8
BLACK
6
CONTINUOUS
10
150.924
20
-104.577
11
150.924
21
-104.272
0
LINE
8
BLACK
6
CONTINUOUS
10
150.924
20
-104.272
11
151.914
21
-104.272
0
LINE
8
BLACK
6
CONTINUOUS
10
151.914
20
-104.272
11
151.914
21
-104.577
0
LINE
8
BLACK
6
CONTINUOUS
10
146.079
20
-104.577
11
145.088
21
-104.577
0
LINE
8
BLACK
6
CONTINUOUS
10
145.088
20
-104.577
11
145.088
21
-104.272
0
LINE
8
BLACK
6
CONTINUOUS
10
145.088
20
-104.272
11
146.079
21
-104.272
0
LINE
8
BLACK
6
CONTINUOUS
10
146.079
20
-104.272
11
146.079
21
-104.577
0
LINE
8
BLACK
6
CONTINUOUS
10
151.914
20
-103.927
11
150.924
21
-103.927
0
LINE
8
BLACK
6
CONTINUOUS
10
150.924
20
-103.927
11
150.924
21
-103.622
0
LINE
8
BLACK
6
CONTINUOUS
10
150.924
20
-103.622
11
151.914
21
-103.622
0
LINE
8
BLACK
6
CONTINUOUS
10
151.914
20
-103.622
11
151.914
21
-103.927
0
LINE
8
BLACK
6
CONTINUOUS
10
146.079
20
-103.927
11
145.088
21
-103.927
0
LINE
8
BLACK
6
CONTINUOUS
10
145.088
20
-103.927
11
145.088
21
-103.622
0
LINE
8
BLACK
6
CONTINUOUS
10
145.088
20
-103.622
11
146.079
21
-103.622
0
LINE
8
BLACK
6
CONTINUOUS
10
146.079
20
-103.622
11
146.079
21
-103.927
0
LINE
8
BLACK
6
CONTINUOUS
10
151.914
20
-103.277
11
150.924
21
-103.277
0
LINE
8
BLACK
6
CONTINUOUS
10
150.924
20
-103.277
11
150.924
21
-102.972
0
LINE
8
BLACK
6
CONTINUOUS
10
150.924
20
-102.972
11
151.914
21
-102.972
0
LINE
8
BLACK
6
CONTINUOUS
10
151.914
20
-102.972
11
151.914
21
-103.277
0
LINE
8
BLACK
6
CONTINUOUS
10
146.079
20
-103.277
11
145.088
21
-103.277
0
LINE
8
BLACK
6
CONTINUOUS
10
145.088
20
-103.277
11
145.088
21
-102.972
0
LINE
8
BLACK
6
CONTINUOUS
10
145.088
20
-102.972
11
146.079
21
-102.972
0
LINE
8
BLACK
6
CONTINUOUS
10
146.079
20
-102.972
11
146.079
21
-103.277
0
LINE
8
BLACK
6
CONTINUOUS
10
126.82
20
-102.989
11
125.32
21
-102.989
0
LINE
8
BLACK
6
CONTINUOUS
10
125.32
20
-102.989
11
125.32
21
-101.689
0
LINE
8
BLACK
6
CONTINUOUS
10
125.32
20
-101.689
11
126.82
21
-101.689
0
LINE
8
BLACK
6
CONTINUOUS
10
126.82
20
-101.689
11
126.82
21
-102.989
0
LINE
8
BLACK
6
CONTINUOUS
10
151.914
20
-102.627
11
150.924
21
-102.627
0
LINE
8
BLACK
6
CONTINUOUS
10
150.924
20
-102.627
11
150.924
21
-102.322
0
LINE
8
BLACK
6
CONTINUOUS
10
150.924
20
-102.322
11
151.914
21
-102.322
0
LINE
8
BLACK
6
CONTINUOUS
10
151.914
20
-102.322
11
151.914
21
-102.627
0
LINE
8
BLACK
6
CONTINUOUS
10
146.079
20
-102.627
11
145.088
21
-102.627
0
LINE
8
BLACK
6
CONTINUOUS
10
145.088
20
-102.627
11
145.088
21
-102.322
0
LINE
8
BLACK
6
CONTINUOUS
10
145.088
20
-102.322
11
146.079
21
-102.322
0
LINE
8
BLACK
6
CONTINUOUS
10
146.079
20
-102.322
11
146.079
21
-102.627
0
LINE
8
BLACK
6
CONTINUOUS
10
151.914
20
-101.977
11
150.924
21
-101.977
0
LINE
8
BLACK
6
CONTINUOUS
10
150.924
20
-101.977
11
150.924
21
-101.672
0
LINE
8
BLACK
6
CONTINUOUS
10
150.924
20
-101.672
11
151.914
21
-101.672
0
LINE
8
BLACK
6
CONTINUOUS
10
151.914
20
-101.672
11
151.914
21
-101.977
0
LINE
8
BLACK
6
CONTINUOUS
10
146.079
20
-101.977
11
145.088
21
-101.977
0
LINE
8
BLACK
6
CONTINUOUS
10
145.088
20
-101.977
11
145.088
21
-101.672
0
LINE
8
BLACK
6
CONTINUOUS
10
145.088
20
-101.672
11
146.079
21
-101.672
0
LINE
8
BLACK
6
CONTINUOUS
10
146.079
20
-101.672
11
146.079
21
-101.977
0
LINE
8
BLACK
6
CONTINUOUS
10
151.914
20
-101.327
11
150.924
21
-101.327
0
LINE
8
BLACK
6
CONTINUOUS
10
150.924
20
-101.327
11
150.924
21
-101.022
0
LINE
8
BLACK
6
CONTINUOUS
10
150.924
20
-101.022
11
151.914
21
-101.022
0
LINE
8
BLACK
6
CONTINUOUS
10
151.914
20
-101.022
11
151.914
21
-101.327
0
LINE
8
BLACK
6
CONTINUOUS
10
146.079
20
-101.327
11
145.088
21
-101.327
0
LINE
8
BLACK
6
CONTINUOUS
10
145.088
20
-101.327
11
145.088
21
-101.022
0
LINE
8
BLACK
6
CONTINUOUS
10
145.088
20
-101.022
11
146.079
21
-101.022
0
LINE
8
BLACK
6
CONTINUOUS
10
146.079
20
-101.022
11
146.079
21
-101.327
0
LINE
8
BLACK
6
CONTINUOUS
10
168.265
20
-100.843
11
167.815
21
-100.843
0
LINE
8
BLACK
6
CONTINUOUS
10
167.815
20
-100.843
11
167.815
21
-99.9426
0
LINE
8
BLACK
6
CONTINUOUS
10
167.815
20
-99.9426
11
168.265
21
-99.9426
0
LINE
8
BLACK
6
CONTINUOUS
10
168.265
20
-99.9426
11
168.265
21
-100.843
0
LINE
8
BLACK
6
CONTINUOUS
10
160.38
20
-100.843
11
159.93
21
-100.843
0
LINE
8
BLACK
6
CONTINUOUS
10
159.93
20
-100.843
11
159.93
21
-99.9426
0
LINE
8
BLACK
6
CONTINUOUS
10
159.93
20
-99.9426
11
160.38
21
-99.9426
0
LINE
8
BLACK
6
CONTINUOUS
10
160.38
20
-99.9426
11
160.38
21
-100.843
0
LINE
8
BLACK
6
CONTINUOUS
10
162.98
20
-100.843
11
162.53
21
-100.843
0
LINE
8
BLACK
6
CONTINUOUS
10
162.53
20
-100.843
11
162.53
21
-99.9426
0
LINE
8
BLACK
6
CONTINUOUS
10
162.53
20
-99.9426
11
162.98
21
-99.9426
0
LINE
8
BLACK
6
CONTINUOUS
10
162.98
20
-99.9426
11
162.98
21
-100.843
0
LINE
8
BLACK
6
CONTINUOUS
10
161.28
20
-100.843
11
160.83
21
-100.843
0
LINE
8
BLACK
6
CONTINUOUS
10
160.83
20
-100.843
11
160.83
21
-99.9426
0
LINE
8
BLACK
6
CONTINUOUS
10
160.83
20
-99.9426
11
161.28
21
-99.9426
0
LINE
8
BLACK
6
CONTINUOUS
10
161.28
20
-99.9426
11
161.28
21
-100.843
0
LINE
8
BLACK
6
CONTINUOUS
10
162.08
20
-100.843
11
161.63
21
-100.843
0
LINE
8
BLACK
6
CONTINUOUS
10
161.63
20
-100.843
11
161.63
21
-99.9426
0
LINE
8
BLACK
6
CONTINUOUS
10
161.63
20
-99.9426
11
162.08
21
-99.9426
0
LINE
8
BLACK
6
CONTINUOUS
10
162.08
20
-99.9426
11
162.08
21
-100.843
0
LINE
8
BLACK
6
CONTINUOUS
10
169.065
20
-100.843
11
168.615
21
-100.843
0
LINE
8
BLACK
6
CONTINUOUS
10
168.615
20
-100.843
11
168.615
21
-99.9426
0
LINE
8
BLACK
6
CONTINUOUS
10
168.615
20
-99.9426
11
169.065
21
-99.9426
0
LINE
8
BLACK
6
CONTINUOUS
10
169.065
20
-99.9426
11
169.065
21
-100.843
0
LINE
8
BLACK
6
CONTINUOUS
10
169.965
20
-100.843
11
169.515
21
-100.843
0
LINE
8
BLACK
6
CONTINUOUS
10
169.515
20
-100.843
11
169.515
21
-99.9426
0
LINE
8
BLACK
6
CONTINUOUS
10
169.515
20
-99.9426
11
169.965
21
-99.9426
0
LINE
8
BLACK
6
CONTINUOUS
10
169.965
20
-99.9426
11
169.965
21
-100.843
0
LINE
8
BLACK
6
CONTINUOUS
10
167.365
20
-100.843
11
166.915
21
-100.843
0
LINE
8
BLACK
6
CONTINUOUS
10
166.915
20
-100.843
11
166.915
21
-99.9426
0
LINE
8
BLACK
6
CONTINUOUS
10
166.915
20
-99.9426
11
167.365
21
-99.9426
0
LINE
8
BLACK
6
CONTINUOUS
10
167.365
20
-99.9426
11
167.365
21
-100.843
0
LINE
8
BLACK
6
CONTINUOUS
10
146.079
20
-100.677
11
145.088
21
-100.677
0
LINE
8
BLACK
6
CONTINUOUS
10
145.088
20
-100.677
11
145.088
21
-100.372
0
LINE
8
BLACK
6
CONTINUOUS
10
145.088
20
-100.372
11
146.079
21
-100.372
0
LINE
8
BLACK
6
CONTINUOUS
10
146.079
20
-100.372
11
146.079
21
-100.677
0
LINE
8
BLACK
6
CONTINUOUS
10
151.914
20
-100.677
11
150.924
21
-100.677
0
LINE
8
BLACK
6
CONTINUOUS
10
150.924
20
-100.677
11
150.924
21
-100.372
0
LINE
8
BLACK
6
CONTINUOUS
10
150.924
20
-100.372
11
151.914
21
-100.372
0
LINE
8
BLACK
6
CONTINUOUS
10
151.914
20
-100.372
11
151.914
21
-100.677
0
LINE
8
BLACK
6
CONTINUOUS
10
155.374
20
-100.524
11
154.074
21
-100.524
0
LINE
8
BLACK
6
CONTINUOUS
10
154.074
20
-100.524
11
154.074
21
-99.3236
0
LINE
8
BLACK
6
CONTINUOUS
10
154.074
20
-99.3236
11
155.374
21
-99.3236
0
LINE
8
BLACK
6
CONTINUOUS
10
155.374
20
-99.3236
11
155.374
21
-100.524
0
LINE
8
BLACK
6
CONTINUOUS
10
167.365
20
-99.1426
11
166.915
21
-99.1426
0
LINE
8
BLACK
6
CONTINUOUS
10
166.915
20
-99.1426
11
166.915
21
-98.2426
0
LINE
8
BLACK
6
CONTINUOUS
10
166.915
20
-98.2426
11
167.365
21
-98.2426
0
LINE
8
BLACK
6
CONTINUOUS
10
167.365
20
-98.2426
11
167.365
21
-99.1426
0
LINE
8
BLACK
6
CONTINUOUS
10
169.965
20
-99.1426
11
169.515
21
-99.1426
0
LINE
8
BLACK
6
CONTINUOUS
10
169.515
20
-99.1426
11
169.515
21
-98.2426
0
LINE
8
BLACK
6
CONTINUOUS
10
169.515
20
-98.2426
11
169.965
21
-98.2426
0
LINE
8
BLACK
6
CONTINUOUS
10
169.965
20
-98.2426
11
169.965
21
-99.1426
0
LINE
8
BLACK
6
CONTINUOUS
10
169.065
20
-99.1426
11
168.615
21
-99.1426
0
LINE
8
BLACK
6
CONTINUOUS
10
168.615
20
-99.1426
11
168.615
21
-98.2426
0
LINE
8
BLACK
6
CONTINUOUS
10
168.615
20
-98.2426
11
169.065
21
-98.2426
0
LINE
8
BLACK
6
CONTINUOUS
10
169.065
20
-98.2426
11
169.065
21
-99.1426
0
LINE
8
BLACK
6
CONTINUOUS
10
168.265
20
-99.1426
11
167.815
21
-99.1426
0
LINE
8
BLACK
6
CONTINUOUS
10
167.815
20
-99.1426
11
167.815
21
-98.2426
0
LINE
8
BLACK
6
CONTINUOUS
10
167.815
20
-98.2426
11
168.265
21
-98.2426
0
LINE
8
BLACK
6
CONTINUOUS
10
168.265
20
-98.2426
11
168.265
21
-99.1426
0
LINE
8
BLACK
6
CONTINUOUS
10
160.38
20
-99.1426
11
159.93
21
-99.1426
0
LINE
8
BLACK
6
CONTINUOUS
10
159.93
20
-99.1426
11
159.93
21
-98.2426
0
LINE
8
BLACK
6
CONTINUOUS
10
159.93
20
-98.2426
11
160.38
21
-98.2426
0
LINE
8
BLACK
6
CONTINUOUS
10
160.38
20
-98.2426
11
160.38
21
-99.1426
0
LINE
8
BLACK
6
CONTINUOUS
10
161.28
20
-99.1426
11
160.83
21
-99.1426
0
LINE
8
BLACK
6
CONTINUOUS
10
160.83
20
-99.1426
11
160.83
21
-98.2426
0
LINE
8
BLACK
6
CONTINUOUS
10
160.83
20
-98.2426
11
161.28
21
-98.2426
0
LINE
8
BLACK
6
CONTINUOUS
10
161.28
20
-98.2426
11
161.28
21
-99.1426
0
LINE
8
BLACK
6
CONTINUOUS
10
162.08
20
-99.1426
11
161.63
21
-99.1426
0
LINE
8
BLACK
6
CONTINUOUS
10
161.63
20
-99.1426
11
161.63
21
-98.2426
0
LINE
8
BLACK
6
CONTINUOUS
10
161.63
20
-98.2426
11
162.08
21
-98.2426
0
LINE
8
BLACK
6
CONTINUOUS
10
162.08
20
-98.2426
11
162.08
21
-99.1426
0
LINE
8
BLACK
6
CONTINUOUS
10
162.98
20
-99.1426
11
162.53
21
-99.1426
0
LINE
8
BLACK
6
CONTINUOUS
10
162.53
20
-99.1426
11
162.53
21
-98.2426
0
LINE
8
BLACK
6
CONTINUOUS
10
162.53
20
-98.2426
11
162.98
21
-98.2426
0
LINE
8
BLACK
6
CONTINUOUS
10
162.98
20
-98.2426
11
162.98
21
-99.1426
0
LINE
8
BLACK
6
CONTINUOUS
10
133.846
20
-98.8286
11
132.246
21
-98.8286
0
LINE
8
BLACK
6
CONTINUOUS
10
132.246
20
-98.8286
11
132.246
21
-97.8286
0
LINE
8
BLACK
6
CONTINUOUS
10
132.246
20
-97.8286
11
133.846
21
-97.8286
0
LINE
8
BLACK
6
CONTINUOUS
10
133.846
20
-97.8286
11
133.846
21
-98.8286
0
LINE
8
BLACK
6
CONTINUOUS
10
143.446
20
-98.7486
11
137.246
21
-98.7486
0
LINE
8
BLACK
6
CONTINUOUS
10
137.246
20
-98.7486
11
137.246
21
-93.3486
0
LINE
8
BLACK
6
CONTINUOUS
10
137.246
20
-93.3486
11
143.446
21
-93.3486
0
LINE
8
BLACK
6
CONTINUOUS
10
143.446
20
-93.3486
11
143.446
21
-98.7486
0
LINE
8
BLACK
6
CONTINUOUS
10
124.994
20
-98.5391
11
123.494
21
-98.5391
0
LINE
8
BLACK
6
CONTINUOUS
10
123.494
20
-98.5391
11
123.494
21
-97.2391
0
LINE
8
BLACK
6
CONTINUOUS
10
123.494
20
-97.2391
11
124.994
21
-97.2391
0
LINE
8
BLACK
6
CONTINUOUS
10
124.994
20
-97.2391
11
124.994
21
-98.5391
0
LINE
8
BLACK
6
CONTINUOUS
10
155.374
20
-98.4916
11
154.074
21
-98.4916
0
LINE
8
BLACK
6
CONTINUOUS
10
154.074
20
-98.4916
11
154.074
21
-97.2916
0
LINE
8
BLACK
6
CONTINUOUS
10
154.074
20
-97.2916
11
155.374
21
-97.2916
0
LINE
8
BLACK
6
CONTINUOUS
10
155.374
20
-97.2916
11
155.374
21
-98.4916
0
LINE
8
BLACK
6
CONTINUOUS
10
124.994
20
-96.6391
11
123.494
21
-96.6391
0
LINE
8
BLACK
6
CONTINUOUS
10
123.494
20
-96.6391
11
123.494
21
-95.3391
0
LINE
8
BLACK
6
CONTINUOUS
10
123.494
20
-95.3391
11
124.994
21
-95.3391
0
LINE
8
BLACK
6
CONTINUOUS
10
124.994
20
-95.3391
11
124.994
21
-96.6391
0
LINE
8
BLACK
6
CONTINUOUS
10
155.324
20
-96.3666
11
154.124
21
-96.3666
0
LINE
8
BLACK
6
CONTINUOUS
10
154.124
20
-96.3666
11
154.124
21
-95.1666
0
LINE
8
BLACK
6
CONTINUOUS
10
154.124
20
-95.1666
11
155.324
21
-95.1666
0
LINE
8
BLACK
6
CONTINUOUS
10
155.324
20
-95.1666
11
155.324
21
-96.3666
0
LINE
8
BLACK
6
CONTINUOUS
10
133.846
20
-94.2686
11
132.246
21
-94.2686
0
LINE
8
BLACK
6
CONTINUOUS
10
132.246
20
-94.2686
11
132.246
21
-93.2686
0
LINE
8
BLACK
6
CONTINUOUS
10
132.246
20
-93.2686
11
133.846
21
-93.2686
0
LINE
8
BLACK
6
CONTINUOUS
10
133.846
20
-93.2686
11
133.846
21
-94.2686
0
LINE
8
BLACK
6
CONTINUOUS
10
155.324
20
-94.2666
11
154.124
21
-94.2666
0
LINE
8
BLACK
6
CONTINUOUS
10
154.124
20
-94.2666
11
154.124
21
-93.0666
0
LINE
8
BLACK
6
CONTINUOUS
10
154.124
20
-93.0666
11
155.324
21
-93.0666
0
LINE
8
BLACK
6
CONTINUOUS
10
155.324
20
-93.0666
11
155.324
21
-94.2666
0
LINE
8
BLACK
6
CONTINUOUS
10
120.55
20
-117.778
11
119.849
21
-117.699
0
LINE
8
BLACK
6
CONTINUOUS
10
119.849
20
-117.699
11
119.848
21
-117.699
0
LINE
8
BLACK
6
CONTINUOUS
10
119.848
20
-117.699
11
119.841
21
-117.697
0
LINE
8
BLACK
6
CONTINUOUS
10
119.841
20
-117.697
11
119.833
21
-117.696
0
LINE
8
BLACK
6
CONTINUOUS
10
119.833
20
-117.696
11
119.165
21
-117.463
0
LINE
8
BLACK
6
CONTINUOUS
10
119.165
20
-117.463
11
119.164
21
-117.462
0
LINE
8
BLACK
6
CONTINUOUS
10
119.164
20
-117.462
11
119.157
21
-117.459
0
LINE
8
BLACK
6
CONTINUOUS
10
119.157
20
-117.459
11
119.149
21
-117.456
0
LINE
8
BLACK
6
CONTINUOUS
10
119.149
20
-117.456
11
118.549
21
-117.08
0
LINE
8
BLACK
6
CONTINUOUS
10
118.549
20
-117.08
11
118.548
21
-117.08
0
LINE
8
BLACK
6
CONTINUOUS
10
118.548
20
-117.08
11
118.542
21
-117.075
0
LINE
8
BLACK
6
CONTINUOUS
10
118.542
20
-117.075
11
118.536
21
-117.07
0
LINE
8
BLACK
6
CONTINUOUS
10
118.536
20
-117.07
11
118.034
21
-116.571
0
LINE
8
BLACK
6
CONTINUOUS
10
118.034
20
-116.571
11
118.033
21
-116.571
0
LINE
8
BLACK
6
CONTINUOUS
10
118.033
20
-116.571
11
118.028
21
-116.564
0
LINE
8
BLACK
6
CONTINUOUS
10
118.028
20
-116.564
11
118.023
21
-116.558
0
LINE
8
BLACK
6
CONTINUOUS
10
118.023
20
-116.558
11
117.644
21
-115.961
0
LINE
8
BLACK
6
CONTINUOUS
10
117.644
20
-115.961
11
117.644
21
-115.96
0
LINE
8
BLACK
6
CONTINUOUS
10
117.644
20
-115.96
11
117.64
21
-115.953
0
LINE
8
BLACK
6
CONTINUOUS
10
117.64
20
-115.953
11
117.637
21
-115.946
0
LINE
8
BLACK
6
CONTINUOUS
10
117.637
20
-115.946
11
117.399
21
-115.279
0
LINE
8
BLACK
6
CONTINUOUS
10
117.399
20
-115.279
11
117.399
21
-115.278
0
LINE
8
BLACK
6
CONTINUOUS
10
117.399
20
-115.278
11
117.397
21
-115.27
0
LINE
8
BLACK
6
CONTINUOUS
10
117.397
20
-115.27
11
117.396
21
-115.262
0
LINE
8
BLACK
6
CONTINUOUS
10
117.396
20
-115.262
11
117.312
21
-114.56
0
LINE
8
BLACK
6
CONTINUOUS
10
117.312
20
-114.56
11
117.312
21
-114.559
0
LINE
8
BLACK
6
CONTINUOUS
10
117.312
20
-114.559
11
117.312
21
-114.555
0
LINE
8
BLACK
6
CONTINUOUS
10
117.312
20
-114.555
11
117.311
21
-114.551
0
LINE
8
BLACK
6
CONTINUOUS
10
117.311
20
-114.551
11
117.311
21
-114.535
0
LINE
8
BLACK
6
CONTINUOUS
10
117.311
20
-114.535
11
117.311
21
-114.535
0
LINE
8
BLACK
6
CONTINUOUS
10
117.311
20
-114.535
11
117.311
21
-95.472
0
LINE
8
BLACK
6
CONTINUOUS
10
117.311
20
-95.472
11
117.312
21
-95.4679
0
LINE
8
BLACK
6
CONTINUOUS
10
117.312
20
-95.4679
11
117.39
21
-94.7668
0
LINE
8
BLACK
6
CONTINUOUS
10
117.39
20
-94.7668
11
117.391
21
-94.7658
0
LINE
8
BLACK
6
CONTINUOUS
10
117.391
20
-94.7658
11
117.392
21
-94.7581
0
LINE
8
BLACK
6
CONTINUOUS
10
117.392
20
-94.7581
11
117.394
21
-94.7505
0
LINE
8
BLACK
6
CONTINUOUS
10
117.394
20
-94.7505
11
117.627
21
-94.0821
0
LINE
8
BLACK
6
CONTINUOUS
10
117.627
20
-94.0821
11
117.627
21
-94.0811
0
LINE
8
BLACK
6
CONTINUOUS
10
117.627
20
-94.0811
11
117.631
21
-94.0741
0
LINE
8
BLACK
6
CONTINUOUS
10
117.631
20
-94.0741
11
117.634
21
-94.067
0
LINE
8
BLACK
6
CONTINUOUS
10
117.634
20
-94.067
11
118.009
21
-93.4667
0
LINE
8
BLACK
6
CONTINUOUS
10
118.009
20
-93.4667
11
118.01
21
-93.4658
0
LINE
8
BLACK
6
CONTINUOUS
10
118.01
20
-93.4658
11
118.015
21
-93.4597
0
LINE
8
BLACK
6
CONTINUOUS
10
118.015
20
-93.4597
11
118.02
21
-93.4536
0
LINE
8
BLACK
6
CONTINUOUS
10
118.02
20
-93.4536
11
118.518
21
-92.9514
0
LINE
8
BLACK
6
CONTINUOUS
10
118.518
20
-92.9514
11
118.519
21
-92.9506
0
LINE
8
BLACK
6
CONTINUOUS
10
118.519
20
-92.9506
11
118.525
21
-92.9458
0
LINE
8
BLACK
6
CONTINUOUS
10
118.525
20
-92.9458
11
118.531
21
-92.9409
0
LINE
8
BLACK
6
CONTINUOUS
10
118.531
20
-92.9409
11
119.129
21
-92.5616
0
LINE
8
BLACK
6
CONTINUOUS
10
119.129
20
-92.5616
11
119.13
21
-92.561
0
LINE
8
BLACK
6
CONTINUOUS
10
119.13
20
-92.561
11
119.137
21
-92.5577
0
LINE
8
BLACK
6
CONTINUOUS
10
119.137
20
-92.5577
11
119.144
21
-92.5543
0
LINE
8
BLACK
6
CONTINUOUS
10
119.144
20
-92.5543
11
119.811
21
-92.3168
0
LINE
8
BLACK
6
CONTINUOUS
10
119.811
20
-92.3168
11
119.812
21
-92.3165
0
LINE
8
BLACK
6
CONTINUOUS
10
119.812
20
-92.3165
11
119.82
21
-92.3148
0
LINE
8
BLACK
6
CONTINUOUS
10
119.82
20
-92.3148
11
119.827
21
-92.313
0
LINE
8
BLACK
6
CONTINUOUS
10
119.827
20
-92.313
11
120.53
21
-92.2292
0
LINE
8
BLACK
6
CONTINUOUS
10
120.53
20
-92.2292
11
120.531
21
-92.2291
0
LINE
8
BLACK
6
CONTINUOUS
10
120.531
20
-92.2291
11
120.535
21
-92.2291
0
LINE
8
BLACK
6
CONTINUOUS
10
120.535
20
-92.2291
11
120.539
21
-92.2287
0
LINE
8
BLACK
6
CONTINUOUS
10
120.539
20
-92.2287
11
120.554
21
-92.2286
0
LINE
8
BLACK
6
CONTINUOUS
10
120.554
20
-92.2286
11
120.555
21
-92.2286
0
LINE
8
BLACK
6
CONTINUOUS
10
120.555
20
-92.2286
11
176.448
21
-92.2286
0
LINE
8
BLACK
6
CONTINUOUS
10
176.448
20
-92.2286
11
176.452
21
-92.2293
0
LINE
8
BLACK
6
CONTINUOUS
10
176.452
20
-92.2293
11
177.153
21
-92.308
0
LINE
8
BLACK
6
CONTINUOUS
10
177.153
20
-92.308
11
177.154
21
-92.3081
0
LINE
8
BLACK
6
CONTINUOUS
10
177.154
20
-92.3081
11
177.162
21
-92.3099
0
LINE
8
BLACK
6
CONTINUOUS
10
177.162
20
-92.3099
11
177.169
21
-92.3117
0
LINE
8
BLACK
6
CONTINUOUS
10
177.169
20
-92.3117
11
177.838
21
-92.5445
0
LINE
8
BLACK
6
CONTINUOUS
10
177.838
20
-92.5445
11
177.839
21
-92.5448
0
LINE
8
BLACK
6
CONTINUOUS
10
177.839
20
-92.5448
11
177.846
21
-92.5483
0
LINE
8
BLACK
6
CONTINUOUS
10
177.846
20
-92.5483
11
177.853
21
-92.5517
0
LINE
8
BLACK
6
CONTINUOUS
10
177.853
20
-92.5517
11
178.453
21
-92.9268
0
LINE
8
BLACK
6
CONTINUOUS
10
178.453
20
-92.9268
11
178.454
21
-92.9273
0
LINE
8
BLACK
6
CONTINUOUS
10
178.454
20
-92.9273
11
178.46
21
-92.9323
0
LINE
8
BLACK
6
CONTINUOUS
10
178.46
20
-92.9323
11
178.466
21
-92.9372
0
LINE
8
BLACK
6
CONTINUOUS
10
178.466
20
-92.9372
11
178.968
21
-93.4359
0
LINE
8
BLACK
6
CONTINUOUS
10
178.968
20
-93.4359
11
178.969
21
-93.4367
0
LINE
8
BLACK
6
CONTINUOUS
10
178.969
20
-93.4367
11
178.974
21
-93.4428
0
LINE
8
BLACK
6
CONTINUOUS
10
178.974
20
-93.4428
11
178.979
21
-93.4489
0
LINE
8
BLACK
6
CONTINUOUS
10
178.979
20
-93.4489
11
179.358
21
-94.0466
0
LINE
8
BLACK
6
CONTINUOUS
10
179.358
20
-94.0466
11
179.359
21
-94.0475
0
LINE
8
BLACK
6
CONTINUOUS
10
179.359
20
-94.0475
11
179.362
21
-94.0546
0
LINE
8
BLACK
6
CONTINUOUS
10
179.362
20
-94.0546
11
179.365
21
-94.0616
0
LINE
8
BLACK
6
CONTINUOUS
10
179.365
20
-94.0616
11
179.603
21
-94.7284
0
LINE
8
BLACK
6
CONTINUOUS
10
179.603
20
-94.7284
11
179.603
21
-94.7294
0
LINE
8
BLACK
6
CONTINUOUS
10
179.603
20
-94.7294
11
179.605
21
-94.7371
0
LINE
8
BLACK
6
CONTINUOUS
10
179.605
20
-94.7371
11
179.607
21
-94.7447
0
LINE
8
BLACK
6
CONTINUOUS
10
179.607
20
-94.7447
11
179.69
21
-95.4476
0
LINE
8
BLACK
6
CONTINUOUS
10
179.69
20
-95.4476
11
179.691
21
-95.4486
0
LINE
8
BLACK
6
CONTINUOUS
10
179.691
20
-95.4486
11
179.691
21
-95.4524
0
LINE
8
BLACK
6
CONTINUOUS
10
179.691
20
-95.4524
11
179.691
21
-95.4562
0
LINE
8
BLACK
6
CONTINUOUS
10
179.691
20
-95.4562
11
179.691
21
-95.4719
0
LINE
8
BLACK
6
CONTINUOUS
10
179.691
20
-95.4719
11
179.691
21
-95.472
0
LINE
8
BLACK
6
CONTINUOUS
10
179.691
20
-95.472
11
179.691
21
-114.535
0
LINE
8
BLACK
6
CONTINUOUS
10
179.691
20
-114.535
11
179.69
21
-114.539
0
LINE
8
BLACK
6
CONTINUOUS
10
179.69
20
-114.539
11
179.612
21
-115.24
0
LINE
8
BLACK
6
CONTINUOUS
10
179.612
20
-115.24
11
179.612
21
-115.241
0
LINE
8
BLACK
6
CONTINUOUS
10
179.612
20
-115.241
11
179.61
21
-115.249
0
LINE
8
BLACK
6
CONTINUOUS
10
179.61
20
-115.249
11
179.608
21
-115.257
0
LINE
8
BLACK
6
CONTINUOUS
10
179.608
20
-115.257
11
179.375
21
-115.925
0
LINE
8
BLACK
6
CONTINUOUS
10
179.375
20
-115.925
11
179.375
21
-115.926
0
LINE
8
BLACK
6
CONTINUOUS
10
179.375
20
-115.926
11
179.371
21
-115.933
0
LINE
8
BLACK
6
CONTINUOUS
10
179.371
20
-115.933
11
179.368
21
-115.94
0
LINE
8
BLACK
6
CONTINUOUS
10
179.368
20
-115.94
11
178.993
21
-116.54
0
LINE
8
BLACK
6
CONTINUOUS
10
178.993
20
-116.54
11
178.992
21
-116.541
0
LINE
8
BLACK
6
CONTINUOUS
10
178.992
20
-116.541
11
178.987
21
-116.547
0
LINE
8
BLACK
6
CONTINUOUS
10
178.987
20
-116.547
11
178.983
21
-116.554
0
LINE
8
BLACK
6
CONTINUOUS
10
178.983
20
-116.554
11
178.484
21
-117.056
0
LINE
8
BLACK
6
CONTINUOUS
10
178.484
20
-117.056
11
178.483
21
-117.057
0
LINE
8
BLACK
6
CONTINUOUS
10
178.483
20
-117.057
11
178.477
21
-117.061
0
LINE
8
BLACK
6
CONTINUOUS
10
178.477
20
-117.061
11
178.471
21
-117.066
0
LINE
8
BLACK
6
CONTINUOUS
10
178.471
20
-117.066
11
177.873
21
-117.446
0
LINE
8
BLACK
6
CONTINUOUS
10
177.873
20
-117.446
11
177.872
21
-117.446
0
LINE
8
BLACK
6
CONTINUOUS
10
177.872
20
-117.446
11
177.865
21
-117.45
0
LINE
8
BLACK
6
CONTINUOUS
10
177.865
20
-117.45
11
177.858
21
-117.453
0
LINE
8
BLACK
6
CONTINUOUS
10
177.858
20
-117.453
11
177.191
21
-117.69
0
LINE
8
BLACK
6
CONTINUOUS
10
177.191
20
-117.69
11
177.19
21
-117.691
0
LINE
8
BLACK
6
CONTINUOUS
10
177.19
20
-117.691
11
177.183
21
-117.692
0
LINE
8
BLACK
6
CONTINUOUS
10
177.183
20
-117.692
11
177.175
21
-117.694
0
LINE
8
BLACK
6
CONTINUOUS
10
177.175
20
-117.694
11
176.472
21
-117.778
0
LINE
8
BLACK
6
CONTINUOUS
10
176.472
20
-117.778
11
176.471
21
-117.778
0
LINE
8
BLACK
6
CONTINUOUS
10
176.471
20
-117.778
11
176.467
21
-117.778
0
LINE
8
BLACK
6
CONTINUOUS
10
176.467
20
-117.778
11
176.464
21
-117.779
0
LINE
8
BLACK
6
CONTINUOUS
10
176.464
20
-117.779
11
176.448
21
-117.779
0
LINE
8
BLACK
6
CONTINUOUS
10
176.448
20
-117.779
11
176.448
21
-117.779
0
LINE
8
BLACK
6
CONTINUOUS
10
176.448
20
-117.779
11
120.555
21
-117.779
0
LINE
8
BLACK
6
CONTINUOUS
10
120.555
20
-117.779
11
120.55
21
-117.778
0
LINE
8
BLACK
6
CONTINUOUS
10
120.561
20
-92.3786
11
120.544
21
-92.3787
0
LINE
8
BLACK
6
CONTINUOUS
10
120.544
20
-92.3787
11
119.853
21
-92.461
0
LINE
8
BLACK
6
CONTINUOUS
10
119.853
20
-92.461
11
119.202
21
-92.6928
0
LINE
8
BLACK
6
CONTINUOUS
10
119.202
20
-92.6928
11
118.619
21
-93.063
0
LINE
8
BLACK
6
CONTINUOUS
10
118.619
20
-93.063
11
118.132
21
-93.5533
0
LINE
8
BLACK
6
CONTINUOUS
10
118.132
20
-93.5533
11
117.766
21
-94.1393
0
LINE
8
BLACK
6
CONTINUOUS
10
117.766
20
-94.1393
11
117.539
21
-94.7919
0
LINE
8
BLACK
6
CONTINUOUS
10
117.539
20
-94.7919
11
117.461
21
-95.4828
0
LINE
8
BLACK
6
CONTINUOUS
10
117.461
20
-95.4828
11
117.461
21
-114.528
0
LINE
8
BLACK
6
CONTINUOUS
10
117.461
20
-114.528
11
117.461
21
-114.546
0
LINE
8
BLACK
6
CONTINUOUS
10
117.461
20
-114.546
11
117.543
21
-115.236
0
LINE
8
BLACK
6
CONTINUOUS
10
117.543
20
-115.236
11
117.775
21
-115.887
0
LINE
8
BLACK
6
CONTINUOUS
10
117.775
20
-115.887
11
118.146
21
-116.471
0
LINE
8
BLACK
6
CONTINUOUS
10
118.146
20
-116.471
11
118.636
21
-116.958
0
LINE
8
BLACK
6
CONTINUOUS
10
118.636
20
-116.958
11
119.222
21
-117.324
0
LINE
8
BLACK
6
CONTINUOUS
10
119.222
20
-117.324
11
119.874
21
-117.551
0
LINE
8
BLACK
6
CONTINUOUS
10
119.874
20
-117.551
11
120.565
21
-117.629
0
LINE
8
BLACK
6
CONTINUOUS
10
120.565
20
-117.629
11
176.441
21
-117.629
0
LINE
8
BLACK
6
CONTINUOUS
10
176.441
20
-117.629
11
176.459
21
-117.629
0
LINE
8
BLACK
6
CONTINUOUS
10
176.459
20
-117.629
11
177.149
21
-117.546
0
LINE
8
BLACK
6
CONTINUOUS
10
177.149
20
-117.546
11
177.8
21
-117.314
0
LINE
8
BLACK
6
CONTINUOUS
10
177.8
20
-117.314
11
178.383
21
-116.944
0
LINE
8
BLACK
6
CONTINUOUS
10
178.383
20
-116.944
11
178.87
21
-116.454
0
LINE
8
BLACK
6
CONTINUOUS
10
178.87
20
-116.454
11
179.236
21
-115.868
0
LINE
8
BLACK
6
CONTINUOUS
10
179.236
20
-115.868
11
179.464
21
-115.215
0
LINE
8
BLACK
6
CONTINUOUS
10
179.464
20
-115.215
11
179.541
21
-114.524
0
LINE
8
BLACK
6
CONTINUOUS
10
179.541
20
-114.524
11
179.541
21
-95.4789
0
LINE
8
BLACK
6
CONTINUOUS
10
179.541
20
-95.4789
11
179.541
21
-95.461
0
LINE
8
BLACK
6
CONTINUOUS
10
179.541
20
-95.461
11
179.459
21
-94.7708
0
LINE
8
BLACK
6
CONTINUOUS
10
179.459
20
-94.7708
11
179.227
21
-94.1199
0
LINE
8
BLACK
6
CONTINUOUS
10
179.227
20
-94.1199
11
178.857
21
-93.5364
0
LINE
8
BLACK
6
CONTINUOUS
10
178.857
20
-93.5364
11
178.366
21
-93.0495
0
LINE
8
BLACK
6
CONTINUOUS
10
178.366
20
-93.0495
11
177.78
21
-92.6833
0
LINE
8
BLACK
6
CONTINUOUS
10
177.78
20
-92.6833
11
177.128
21
-92.4561
0
LINE
8
BLACK
6
CONTINUOUS
10
177.128
20
-92.4561
11
176.437
21
-92.3786
0
LINE
8
BLACK
6
CONTINUOUS
10
176.437
20
-92.3786
11
120.561
21
-92.3786
  0
ENDSEC
  0
EOF
