  0
SECTION
  2
HEADER
  9
$ANGBASE
  50
0.0
  9
$ANGDIR
  70
  1
  9
$MEASUREMENT
  70
0
  0
ENDSEC
  0
SECTION
  2
TABLES
  0
TABLE
  2
LTYPE
  70
4
  0
LTYPE
  5
40F
  2
CONTINUOUS
  70
0
  3
Solid line
  72
65
  73
0
  40
0.0
  0
LTYPE
  5
410
  2
DASHDOT
 70
0
  3
Dash Dot ____ _ ____ _
 72
65
 73
4
 40
2.0
 49
1.25
 49
-0.25
 49
0.25
 49
-0.25
  0
LTYPE
  5
411
  2
DASHED
 70
0
  3
Dashed __ __ __ __ __
 72
65
 73
2
 40
0.75
 49
0.5
 49
-0.25
  0
LTYPE
  5
43B
  2
DOTTED
 70
0
  3
Dotted .  .  .  .
 72
65
 73
2
 40
0.2
 49
0.0
 49
-0.2
  0
ENDTAB
  0
TABLE
  2
STYLE
  70
4
  0
STYLE
  2
KICAD
  70
0
  40
0
  41
1
  42
1
  50
0
  71
0
  3
isocp.shx
  0
STYLE
  2
KICADB
  70
0
  40
0
  41
1
  42
1
  50
0
  71
0
  3
isocp.shx
  0
STYLE
  2
KICADI
  70
0
  40
0
  41
1
  42
1
  50
15
  71
0
  3
isocp.shx
  0
STYLE
  2
KICADBI
  70
0
  40
0
  41
1
  42
1
  50
15
  71
0
  3
isocp.shx
  0
ENDTAB
  0
TABLE
  2
LAYER
  70
30
  0
LAYER
  2
BLACK
  70
0
  62
7
  6
CONTINUOUS
  0
LAYER
  2
GRAY1
  70
0
  62
251
  6
CONTINUOUS
  0
LAYER
  2
GRAY2
  70
0
  62
8
  6
CONTINUOUS
  0
LAYER
  2
GRAY3
  70
0
  62
9
  6
CONTINUOUS
  0
LAYER
  2
WHITE
  70
0
  62
7
  6
CONTINUOUS
  0
LAYER
  2
LYELLOW
  70
0
  62
51
  6
CONTINUOUS
  0
LAYER
  2
BLUE1
  70
0
  62
178
  6
CONTINUOUS
  0
LAYER
  2
GREEN1
  70
0
  62
98
  6
CONTINUOUS
  0
LAYER
  2
CYAN1
  70
0
  62
138
  6
CONTINUOUS
  0
LAYER
  2
RED1
  70
0
  62
18
  6
CONTINUOUS
  0
LAYER
  2
MAGENTA1
  70
0
  62
228
  6
CONTINUOUS
  0
LAYER
  2
BROWN1
  70
0
  62
58
  6
CONTINUOUS
  0
LAYER
  2
BLUE2
  70
0
  62
5
  6
CONTINUOUS
  0
LAYER
  2
GREEN2
  70
0
  62
3
  6
CONTINUOUS
  0
LAYER
  2
CYAN2
  70
0
  62
4
  6
CONTINUOUS
  0
LAYER
  2
RED2
  70
0
  62
1
  6
CONTINUOUS
  0
LAYER
  2
MAGENTA2
  70
0
  62
6
  6
CONTINUOUS
  0
LAYER
  2
BROWN2
  70
0
  62
54
  6
CONTINUOUS
  0
LAYER
  2
BLUE3
  70
0
  62
171
  6
CONTINUOUS
  0
LAYER
  2
GREEN3
  70
0
  62
91
  6
CONTINUOUS
  0
LAYER
  2
CYAN3
  70
0
  62
131
  6
CONTINUOUS
  0
LAYER
  2
RED3
  70
0
  62
11
  6
CONTINUOUS
  0
LAYER
  2
MAGENTA3
  70
0
  62
221
  6
CONTINUOUS
  0
LAYER
  2
YELLOW3
  70
0
  62
2
  6
CONTINUOUS
  0
LAYER
  2
BLUE4
  70
0
  62
5
  6
CONTINUOUS
  0
LAYER
  2
GREEN4
  70
0
  62
3
  6
CONTINUOUS
  0
LAYER
  2
CYAN4
  70
0
  62
4
  6
CONTINUOUS
  0
LAYER
  2
RED4
  70
0
  62
1
  6
CONTINUOUS
  0
LAYER
  2
MAGENTA4
  70
0
  62
6
  6
CONTINUOUS
  0
LAYER
  2
YELLOW4
  70
0
  62
2
  6
CONTINUOUS
  0
ENDTAB
  0
ENDSEC
  0
SECTION
  2
ENTITIES
0
ARC
8
BLACK
10
120.561
20
-114.529
40
3.175
50
-180
51
-90
0
LINE
8
BLACK
6
CONTINUOUS
10
117.386
20
-114.529
11
117.386
21
-95.4786
0
ARC
8
BLACK
10
120.561
20
-95.4786
40
3.175
50
90
51
180
0
LINE
8
BLACK
6
CONTINUOUS
10
120.561
20
-92.3036
11
176.441
21
-92.3036
0
ARC
8
BLACK
10
176.441
20
-95.4786
40
3.175
50
-0
51
90
0
LINE
8
BLACK
6
CONTINUOUS
10
179.616
20
-95.4786
11
179.616
21
-114.529
0
ARC
8
BLACK
10
176.441
20
-114.529
40
3.175
50
-90
51
-0
0
LINE
8
BLACK
6
CONTINUOUS
10
176.441
20
-117.704
11
120.561
21
-117.704
0
LINE
8
BLACK
6
CONTINUOUS
10
168.835
20
-101.683
11
168.385
21
-103.034
0
LINE
8
BLACK
6
CONTINUOUS
10
168.385
20
-103.034
11
167.935
21
-101.683
0
LINE
8
BLACK
6
CONTINUOUS
10
166.712
20
-102.906
11
166.776
21
-102.97
0
LINE
8
BLACK
6
CONTINUOUS
10
166.776
20
-102.97
11
166.969
21
-103.034
0
LINE
8
BLACK
6
CONTINUOUS
10
166.969
20
-103.034
11
167.098
21
-103.034
0
LINE
8
BLACK
6
CONTINUOUS
10
167.098
20
-103.034
11
167.291
21
-102.97
0
LINE
8
BLACK
6
CONTINUOUS
10
167.291
20
-102.97
11
167.42
21
-102.841
0
LINE
8
BLACK
6
CONTINUOUS
10
167.42
20
-102.841
11
167.484
21
-102.713
0
LINE
8
BLACK
6
CONTINUOUS
10
167.484
20
-102.713
11
167.549
21
-102.455
0
LINE
8
BLACK
6
CONTINUOUS
10
167.549
20
-102.455
11
167.549
21
-102.262
0
LINE
8
BLACK
6
CONTINUOUS
10
167.549
20
-102.262
11
167.484
21
-102.005
0
LINE
8
BLACK
6
CONTINUOUS
10
167.484
20
-102.005
11
167.42
21
-101.876
0
LINE
8
BLACK
6
CONTINUOUS
10
167.42
20
-101.876
11
167.291
21
-101.747
0
LINE
8
BLACK
6
CONTINUOUS
10
167.291
20
-101.747
11
167.098
21
-101.683
0
LINE
8
BLACK
6
CONTINUOUS
10
167.098
20
-101.683
11
166.969
21
-101.683
0
LINE
8
BLACK
6
CONTINUOUS
10
166.969
20
-101.683
11
166.776
21
-101.747
0
LINE
8
BLACK
6
CONTINUOUS
10
166.776
20
-101.747
11
166.712
21
-101.812
0
LINE
8
BLACK
6
CONTINUOUS
10
165.361
20
-102.906
11
165.425
21
-102.97
0
LINE
8
BLACK
6
CONTINUOUS
10
165.425
20
-102.97
11
165.618
21
-103.034
0
LINE
8
BLACK
6
CONTINUOUS
10
165.618
20
-103.034
11
165.747
21
-103.034
0
LINE
8
BLACK
6
CONTINUOUS
10
165.747
20
-103.034
11
165.94
21
-102.97
0
LINE
8
BLACK
6
CONTINUOUS
10
165.94
20
-102.97
11
166.069
21
-102.841
0
LINE
8
BLACK
6
CONTINUOUS
10
166.069
20
-102.841
11
166.133
21
-102.713
0
LINE
8
BLACK
6
CONTINUOUS
10
166.133
20
-102.713
11
166.197
21
-102.455
0
LINE
8
BLACK
6
CONTINUOUS
10
166.197
20
-102.455
11
166.197
21
-102.262
0
LINE
8
BLACK
6
CONTINUOUS
10
166.197
20
-102.262
11
166.133
21
-102.005
0
LINE
8
BLACK
6
CONTINUOUS
10
166.133
20
-102.005
11
166.069
21
-101.876
0
LINE
8
BLACK
6
CONTINUOUS
10
166.069
20
-101.876
11
165.94
21
-101.747
0
LINE
8
BLACK
6
CONTINUOUS
10
165.94
20
-101.747
11
165.747
21
-101.683
0
LINE
8
BLACK
6
CONTINUOUS
10
165.747
20
-101.683
11
165.618
21
-101.683
0
LINE
8
BLACK
6
CONTINUOUS
10
165.618
20
-101.683
11
165.425
21
-101.747
0
LINE
8
BLACK
6
CONTINUOUS
10
165.425
20
-101.747
11
165.361
21
-101.812
0
LINE
8
BLACK
6
CONTINUOUS
10
164.782
20
-102.906
11
164.717
21
-102.97
0
LINE
8
BLACK
6
CONTINUOUS
10
164.717
20
-102.97
11
164.782
21
-103.034
0
LINE
8
BLACK
6
CONTINUOUS
10
164.782
20
-103.034
11
164.846
21
-102.97
0
LINE
8
BLACK
6
CONTINUOUS
10
164.846
20
-102.97
11
164.782
21
-102.906
0
LINE
8
BLACK
6
CONTINUOUS
10
164.782
20
-102.906
11
164.782
21
-103.034
0
LINE
8
BLACK
6
CONTINUOUS
10
164.782
20
-102.198
11
164.717
21
-102.262
0
LINE
8
BLACK
6
CONTINUOUS
10
164.717
20
-102.262
11
164.782
21
-102.326
0
LINE
8
BLACK
6
CONTINUOUS
10
164.782
20
-102.326
11
164.846
21
-102.262
0
LINE
8
BLACK
6
CONTINUOUS
10
164.846
20
-102.262
11
164.782
21
-102.198
0
LINE
8
BLACK
6
CONTINUOUS
10
164.782
20
-102.198
11
164.782
21
-102.326
0
LINE
8
BLACK
6
CONTINUOUS
10
167.999
20
-105.32
11
168.642
21
-105.32
0
LINE
8
BLACK
6
CONTINUOUS
10
168.642
20
-105.32
11
168.642
21
-103.969
0
LINE
8
BLACK
6
CONTINUOUS
10
167.355
20
-105.32
11
167.484
21
-105.256
0
LINE
8
BLACK
6
CONTINUOUS
10
167.484
20
-105.256
11
167.549
21
-105.192
0
LINE
8
BLACK
6
CONTINUOUS
10
167.549
20
-105.192
11
167.613
21
-105.063
0
LINE
8
BLACK
6
CONTINUOUS
10
167.613
20
-105.063
11
167.613
21
-104.677
0
LINE
8
BLACK
6
CONTINUOUS
10
167.613
20
-104.677
11
167.549
21
-104.548
0
LINE
8
BLACK
6
CONTINUOUS
10
167.549
20
-104.548
11
167.484
21
-104.484
0
LINE
8
BLACK
6
CONTINUOUS
10
167.484
20
-104.484
11
167.355
21
-104.419
0
LINE
8
BLACK
6
CONTINUOUS
10
167.355
20
-104.419
11
167.162
21
-104.419
0
LINE
8
BLACK
6
CONTINUOUS
10
167.162
20
-104.419
11
167.034
21
-104.484
0
LINE
8
BLACK
6
CONTINUOUS
10
167.034
20
-104.484
11
166.969
21
-104.548
0
LINE
8
BLACK
6
CONTINUOUS
10
166.969
20
-104.548
11
166.905
21
-104.677
0
LINE
8
BLACK
6
CONTINUOUS
10
166.905
20
-104.677
11
166.905
21
-105.063
0
LINE
8
BLACK
6
CONTINUOUS
10
166.905
20
-105.063
11
166.969
21
-105.192
0
LINE
8
BLACK
6
CONTINUOUS
10
166.969
20
-105.192
11
167.034
21
-105.256
0
LINE
8
BLACK
6
CONTINUOUS
10
167.034
20
-105.256
11
167.162
21
-105.32
0
LINE
8
BLACK
6
CONTINUOUS
10
167.162
20
-105.32
11
167.355
21
-105.32
0
LINE
8
BLACK
6
CONTINUOUS
10
165.747
20
-104.419
11
165.747
21
-105.513
0
LINE
8
BLACK
6
CONTINUOUS
10
165.747
20
-105.513
11
165.811
21
-105.642
0
LINE
8
BLACK
6
CONTINUOUS
10
165.811
20
-105.642
11
165.876
21
-105.706
0
LINE
8
BLACK
6
CONTINUOUS
10
165.876
20
-105.706
11
166.004
21
-105.771
0
LINE
8
BLACK
6
CONTINUOUS
10
166.004
20
-105.771
11
166.197
21
-105.771
0
LINE
8
BLACK
6
CONTINUOUS
10
166.197
20
-105.771
11
166.326
21
-105.706
0
LINE
8
BLACK
6
CONTINUOUS
10
165.747
20
-105.256
11
165.876
21
-105.32
0
LINE
8
BLACK
6
CONTINUOUS
10
165.876
20
-105.32
11
166.133
21
-105.32
0
LINE
8
BLACK
6
CONTINUOUS
10
166.133
20
-105.32
11
166.262
21
-105.256
0
LINE
8
BLACK
6
CONTINUOUS
10
166.262
20
-105.256
11
166.326
21
-105.192
0
LINE
8
BLACK
6
CONTINUOUS
10
166.326
20
-105.192
11
166.39
21
-105.063
0
LINE
8
BLACK
6
CONTINUOUS
10
166.39
20
-105.063
11
166.39
21
-104.677
0
LINE
8
BLACK
6
CONTINUOUS
10
166.39
20
-104.677
11
166.326
21
-104.548
0
LINE
8
BLACK
6
CONTINUOUS
10
166.326
20
-104.548
11
166.262
21
-104.484
0
LINE
8
BLACK
6
CONTINUOUS
10
166.262
20
-104.484
11
166.133
21
-104.419
0
LINE
8
BLACK
6
CONTINUOUS
10
166.133
20
-104.419
11
165.876
21
-104.419
0
LINE
8
BLACK
6
CONTINUOUS
10
165.876
20
-104.419
11
165.747
21
-104.484
0
LINE
8
BLACK
6
CONTINUOUS
10
165.103
20
-105.32
11
165.103
21
-104.419
0
LINE
8
BLACK
6
CONTINUOUS
10
165.103
20
-103.969
11
165.168
21
-104.033
0
LINE
8
BLACK
6
CONTINUOUS
10
165.168
20
-104.033
11
165.103
21
-104.098
0
LINE
8
BLACK
6
CONTINUOUS
10
165.103
20
-104.098
11
165.039
21
-104.033
0
LINE
8
BLACK
6
CONTINUOUS
10
165.039
20
-104.033
11
165.103
21
-103.969
0
LINE
8
BLACK
6
CONTINUOUS
10
165.103
20
-103.969
11
165.103
21
-104.098
0
LINE
8
BLACK
6
CONTINUOUS
10
163.881
20
-105.256
11
164.009
21
-105.32
0
LINE
8
BLACK
6
CONTINUOUS
10
164.009
20
-105.32
11
164.267
21
-105.32
0
LINE
8
BLACK
6
CONTINUOUS
10
164.267
20
-105.32
11
164.396
21
-105.256
0
LINE
8
BLACK
6
CONTINUOUS
10
164.396
20
-105.256
11
164.46
21
-105.192
0
LINE
8
BLACK
6
CONTINUOUS
10
164.46
20
-105.192
11
164.524
21
-105.063
0
LINE
8
BLACK
6
CONTINUOUS
10
164.524
20
-105.063
11
164.524
21
-104.677
0
LINE
8
BLACK
6
CONTINUOUS
10
164.524
20
-104.677
11
164.46
21
-104.548
0
LINE
8
BLACK
6
CONTINUOUS
10
164.46
20
-104.548
11
164.396
21
-104.484
0
LINE
8
BLACK
6
CONTINUOUS
10
164.396
20
-104.484
11
164.267
21
-104.419
0
LINE
8
BLACK
6
CONTINUOUS
10
164.267
20
-104.419
11
164.009
21
-104.419
0
LINE
8
BLACK
6
CONTINUOUS
10
164.009
20
-104.419
11
163.881
21
-104.484
0
LINE
8
BLACK
6
CONTINUOUS
10
163.302
20
-105.192
11
163.237
21
-105.256
0
LINE
8
BLACK
6
CONTINUOUS
10
163.237
20
-105.256
11
163.302
21
-105.32
0
LINE
8
BLACK
6
CONTINUOUS
10
163.302
20
-105.32
11
163.366
21
-105.256
0
LINE
8
BLACK
6
CONTINUOUS
10
163.366
20
-105.256
11
163.302
21
-105.192
0
LINE
8
BLACK
6
CONTINUOUS
10
163.302
20
-105.192
11
163.302
21
-105.32
0
LINE
8
BLACK
6
CONTINUOUS
10
163.302
20
-104.484
11
163.237
21
-104.548
0
LINE
8
BLACK
6
CONTINUOUS
10
163.237
20
-104.548
11
163.302
21
-104.612
0
LINE
8
BLACK
6
CONTINUOUS
10
163.302
20
-104.612
11
163.366
21
-104.548
0
LINE
8
BLACK
6
CONTINUOUS
10
163.366
20
-104.548
11
163.302
21
-104.484
0
LINE
8
BLACK
6
CONTINUOUS
10
163.302
20
-104.484
11
163.302
21
-104.612
0
LINE
8
BLACK
6
CONTINUOUS
10
168.962
20
-106.255
11
168.512
21
-107.606
0
LINE
8
BLACK
6
CONTINUOUS
10
168.512
20
-107.606
11
168.062
21
-106.255
0
LINE
8
BLACK
6
CONTINUOUS
10
167.611
20
-107.091
11
166.582
21
-107.091
0
LINE
8
BLACK
6
CONTINUOUS
10
167.096
20
-107.606
11
167.096
21
-106.577
0
LINE
8
BLACK
6
CONTINUOUS
10
165.938
20
-107.478
11
165.874
21
-107.542
0
LINE
8
BLACK
6
CONTINUOUS
10
165.874
20
-107.542
11
165.938
21
-107.606
0
LINE
8
BLACK
6
CONTINUOUS
10
165.938
20
-107.606
11
166.003
21
-107.542
0
LINE
8
BLACK
6
CONTINUOUS
10
166.003
20
-107.542
11
165.938
21
-107.478
0
LINE
8
BLACK
6
CONTINUOUS
10
165.938
20
-107.478
11
165.938
21
-107.606
0
LINE
8
BLACK
6
CONTINUOUS
10
165.938
20
-106.77
11
165.874
21
-106.834
0
LINE
8
BLACK
6
CONTINUOUS
10
165.874
20
-106.834
11
165.938
21
-106.898
0
LINE
8
BLACK
6
CONTINUOUS
10
165.938
20
-106.898
11
166.003
21
-106.834
0
LINE
8
BLACK
6
CONTINUOUS
10
166.003
20
-106.834
11
165.938
21
-106.77
0
LINE
8
BLACK
6
CONTINUOUS
10
165.938
20
-106.77
11
165.938
21
-106.898
0
LINE
8
BLACK
6
CONTINUOUS
10
160.77
20
-101.683
11
159.934
21
-101.683
0
LINE
8
BLACK
6
CONTINUOUS
10
159.934
20
-101.683
11
160.384
21
-102.198
0
LINE
8
BLACK
6
CONTINUOUS
10
160.384
20
-102.198
11
160.191
21
-102.198
0
LINE
8
BLACK
6
CONTINUOUS
10
160.191
20
-102.198
11
160.062
21
-102.262
0
LINE
8
BLACK
6
CONTINUOUS
10
160.062
20
-102.262
11
159.998
21
-102.326
0
LINE
8
BLACK
6
CONTINUOUS
10
159.998
20
-102.326
11
159.934
21
-102.455
0
LINE
8
BLACK
6
CONTINUOUS
10
159.934
20
-102.455
11
159.934
21
-102.777
0
LINE
8
BLACK
6
CONTINUOUS
10
159.934
20
-102.777
11
159.998
21
-102.906
0
LINE
8
BLACK
6
CONTINUOUS
10
159.998
20
-102.906
11
160.062
21
-102.97
0
LINE
8
BLACK
6
CONTINUOUS
10
160.062
20
-102.97
11
160.191
21
-103.034
0
LINE
8
BLACK
6
CONTINUOUS
10
160.191
20
-103.034
11
160.577
21
-103.034
0
LINE
8
BLACK
6
CONTINUOUS
10
160.577
20
-103.034
11
160.706
21
-102.97
0
LINE
8
BLACK
6
CONTINUOUS
10
160.706
20
-102.97
11
160.77
21
-102.906
0
LINE
8
BLACK
6
CONTINUOUS
10
159.354
20
-102.519
11
158.325
21
-102.519
0
LINE
8
BLACK
6
CONTINUOUS
10
157.038
20
-101.683
11
157.681
21
-101.683
0
LINE
8
BLACK
6
CONTINUOUS
10
157.681
20
-101.683
11
157.746
21
-102.326
0
LINE
8
BLACK
6
CONTINUOUS
10
157.746
20
-102.326
11
157.681
21
-102.262
0
LINE
8
BLACK
6
CONTINUOUS
10
157.681
20
-102.262
11
157.553
21
-102.198
0
LINE
8
BLACK
6
CONTINUOUS
10
157.553
20
-102.198
11
157.231
21
-102.198
0
LINE
8
BLACK
6
CONTINUOUS
10
157.231
20
-102.198
11
157.102
21
-102.262
0
LINE
8
BLACK
6
CONTINUOUS
10
157.102
20
-102.262
11
157.038
21
-102.326
0
LINE
8
BLACK
6
CONTINUOUS
10
157.038
20
-102.326
11
156.974
21
-102.455
0
LINE
8
BLACK
6
CONTINUOUS
10
156.974
20
-102.455
11
156.974
21
-102.777
0
LINE
8
BLACK
6
CONTINUOUS
10
156.974
20
-102.777
11
157.038
21
-102.906
0
LINE
8
BLACK
6
CONTINUOUS
10
157.038
20
-102.906
11
157.102
21
-102.97
0
LINE
8
BLACK
6
CONTINUOUS
10
157.102
20
-102.97
11
157.231
21
-103.034
0
LINE
8
BLACK
6
CONTINUOUS
10
157.231
20
-103.034
11
157.553
21
-103.034
0
LINE
8
BLACK
6
CONTINUOUS
10
157.553
20
-103.034
11
157.681
21
-102.97
0
LINE
8
BLACK
6
CONTINUOUS
10
157.681
20
-102.97
11
157.746
21
-102.906
0
LINE
8
BLACK
6
CONTINUOUS
10
156.588
20
-101.683
11
156.137
21
-103.034
0
LINE
8
BLACK
6
CONTINUOUS
10
156.137
20
-103.034
11
155.687
21
-101.683
0
LINE
8
BLACK
6
CONTINUOUS
10
160.77
20
-103.969
11
159.934
21
-103.969
0
LINE
8
BLACK
6
CONTINUOUS
10
159.934
20
-103.969
11
160.384
21
-104.484
0
LINE
8
BLACK
6
CONTINUOUS
10
160.384
20
-104.484
11
160.191
21
-104.484
0
LINE
8
BLACK
6
CONTINUOUS
10
160.191
20
-104.484
11
160.062
21
-104.548
0
LINE
8
BLACK
6
CONTINUOUS
10
160.062
20
-104.548
11
159.998
21
-104.612
0
LINE
8
BLACK
6
CONTINUOUS
10
159.998
20
-104.612
11
159.934
21
-104.741
0
LINE
8
BLACK
6
CONTINUOUS
10
159.934
20
-104.741
11
159.934
21
-105.063
0
LINE
8
BLACK
6
CONTINUOUS
10
159.934
20
-105.063
11
159.998
21
-105.192
0
LINE
8
BLACK
6
CONTINUOUS
10
159.998
20
-105.192
11
160.062
21
-105.256
0
LINE
8
BLACK
6
CONTINUOUS
10
160.062
20
-105.256
11
160.191
21
-105.32
0
LINE
8
BLACK
6
CONTINUOUS
10
160.191
20
-105.32
11
160.577
21
-105.32
0
LINE
8
BLACK
6
CONTINUOUS
10
160.577
20
-105.32
11
160.706
21
-105.256
0
LINE
8
BLACK
6
CONTINUOUS
10
160.706
20
-105.256
11
160.77
21
-105.192
0
LINE
8
BLACK
6
CONTINUOUS
10
159.354
20
-104.805
11
158.325
21
-104.805
0
LINE
8
BLACK
6
CONTINUOUS
10
157.038
20
-103.969
11
157.681
21
-103.969
0
LINE
8
BLACK
6
CONTINUOUS
10
157.681
20
-103.969
11
157.746
21
-104.612
0
LINE
8
BLACK
6
CONTINUOUS
10
157.746
20
-104.612
11
157.681
21
-104.548
0
LINE
8
BLACK
6
CONTINUOUS
10
157.681
20
-104.548
11
157.553
21
-104.484
0
LINE
8
BLACK
6
CONTINUOUS
10
157.553
20
-104.484
11
157.231
21
-104.484
0
LINE
8
BLACK
6
CONTINUOUS
10
157.231
20
-104.484
11
157.102
21
-104.548
0
LINE
8
BLACK
6
CONTINUOUS
10
157.102
20
-104.548
11
157.038
21
-104.612
0
LINE
8
BLACK
6
CONTINUOUS
10
157.038
20
-104.612
11
156.974
21
-104.741
0
LINE
8
BLACK
6
CONTINUOUS
10
156.974
20
-104.741
11
156.974
21
-105.063
0
LINE
8
BLACK
6
CONTINUOUS
10
156.974
20
-105.063
11
157.038
21
-105.192
0
LINE
8
BLACK
6
CONTINUOUS
10
157.038
20
-105.192
11
157.102
21
-105.256
0
LINE
8
BLACK
6
CONTINUOUS
10
157.102
20
-105.256
11
157.231
21
-105.32
0
LINE
8
BLACK
6
CONTINUOUS
10
157.231
20
-105.32
11
157.553
21
-105.32
0
LINE
8
BLACK
6
CONTINUOUS
10
157.553
20
-105.32
11
157.681
21
-105.256
0
LINE
8
BLACK
6
CONTINUOUS
10
157.681
20
-105.256
11
157.746
21
-105.192
0
LINE
8
BLACK
6
CONTINUOUS
10
156.588
20
-103.969
11
156.137
21
-105.32
0
LINE
8
BLACK
6
CONTINUOUS
10
156.137
20
-105.32
11
155.687
21
-103.969
0
LINE
8
BLACK
6
CONTINUOUS
10
160.062
20
-106.255
11
160.32
21
-106.255
0
LINE
8
BLACK
6
CONTINUOUS
10
160.32
20
-106.255
11
160.448
21
-106.319
0
LINE
8
BLACK
6
CONTINUOUS
10
160.448
20
-106.319
11
160.513
21
-106.384
0
LINE
8
BLACK
6
CONTINUOUS
10
160.513
20
-106.384
11
160.641
21
-106.577
0
LINE
8
BLACK
6
CONTINUOUS
10
160.641
20
-106.577
11
160.706
21
-106.834
0
LINE
8
BLACK
6
CONTINUOUS
10
160.706
20
-106.834
11
160.706
21
-107.349
0
LINE
8
BLACK
6
CONTINUOUS
10
160.706
20
-107.349
11
160.641
21
-107.478
0
LINE
8
BLACK
6
CONTINUOUS
10
160.641
20
-107.478
11
160.577
21
-107.542
0
LINE
8
BLACK
6
CONTINUOUS
10
160.577
20
-107.542
11
160.448
21
-107.606
0
LINE
8
BLACK
6
CONTINUOUS
10
160.448
20
-107.606
11
160.191
21
-107.606
0
LINE
8
BLACK
6
CONTINUOUS
10
160.191
20
-107.606
11
160.062
21
-107.542
0
LINE
8
BLACK
6
CONTINUOUS
10
160.062
20
-107.542
11
159.998
21
-107.478
0
LINE
8
BLACK
6
CONTINUOUS
10
159.998
20
-107.478
11
159.934
21
-107.349
0
LINE
8
BLACK
6
CONTINUOUS
10
159.934
20
-107.349
11
159.934
21
-107.027
0
LINE
8
BLACK
6
CONTINUOUS
10
159.934
20
-107.027
11
159.998
21
-106.898
0
LINE
8
BLACK
6
CONTINUOUS
10
159.998
20
-106.898
11
160.062
21
-106.834
0
LINE
8
BLACK
6
CONTINUOUS
10
160.062
20
-106.834
11
160.191
21
-106.77
0
LINE
8
BLACK
6
CONTINUOUS
10
160.191
20
-106.77
11
160.448
21
-106.77
0
LINE
8
BLACK
6
CONTINUOUS
10
160.448
20
-106.77
11
160.577
21
-106.834
0
LINE
8
BLACK
6
CONTINUOUS
10
160.577
20
-106.834
11
160.641
21
-106.898
0
LINE
8
BLACK
6
CONTINUOUS
10
160.641
20
-106.898
11
160.706
21
-107.027
0
LINE
8
BLACK
6
CONTINUOUS
10
159.548
20
-106.255
11
159.097
21
-107.606
0
LINE
8
BLACK
6
CONTINUOUS
10
159.097
20
-107.606
11
158.647
21
-106.255
0
LINE
8
BLACK
6
CONTINUOUS
10
157.167
20
-107.606
11
157.167
21
-106.255
0
LINE
8
BLACK
6
CONTINUOUS
10
157.167
20
-106.255
11
156.716
21
-107.22
0
LINE
8
BLACK
6
CONTINUOUS
10
156.716
20
-107.22
11
156.266
21
-106.255
0
LINE
8
BLACK
6
CONTINUOUS
10
156.266
20
-106.255
11
156.266
21
-107.606
0
LINE
8
BLACK
6
CONTINUOUS
10
155.043
20
-107.606
11
155.043
21
-106.898
0
LINE
8
BLACK
6
CONTINUOUS
10
155.043
20
-106.898
11
155.108
21
-106.77
0
LINE
8
BLACK
6
CONTINUOUS
10
155.108
20
-106.77
11
155.236
21
-106.705
0
LINE
8
BLACK
6
CONTINUOUS
10
155.236
20
-106.705
11
155.494
21
-106.705
0
LINE
8
BLACK
6
CONTINUOUS
10
155.494
20
-106.705
11
155.622
21
-106.77
0
LINE
8
BLACK
6
CONTINUOUS
10
155.043
20
-107.542
11
155.172
21
-107.606
0
LINE
8
BLACK
6
CONTINUOUS
10
155.172
20
-107.606
11
155.494
21
-107.606
0
LINE
8
BLACK
6
CONTINUOUS
10
155.494
20
-107.606
11
155.622
21
-107.542
0
LINE
8
BLACK
6
CONTINUOUS
10
155.622
20
-107.542
11
155.687
21
-107.413
0
LINE
8
BLACK
6
CONTINUOUS
10
155.687
20
-107.413
11
155.687
21
-107.285
0
LINE
8
BLACK
6
CONTINUOUS
10
155.687
20
-107.285
11
155.622
21
-107.156
0
LINE
8
BLACK
6
CONTINUOUS
10
155.622
20
-107.156
11
155.494
21
-107.091
0
LINE
8
BLACK
6
CONTINUOUS
10
155.494
20
-107.091
11
155.172
21
-107.091
0
LINE
8
BLACK
6
CONTINUOUS
10
155.172
20
-107.091
11
155.043
21
-107.027
0
LINE
8
BLACK
6
CONTINUOUS
10
154.528
20
-107.606
11
153.821
21
-106.705
0
LINE
8
BLACK
6
CONTINUOUS
10
154.528
20
-106.705
11
153.821
21
-107.606
0
LINE
8
BLACK
6
CONTINUOUS
10
163.816
20
-99.651
11
163.816
21
-100.745
0
LINE
8
BLACK
6
CONTINUOUS
10
163.816
20
-100.745
11
163.752
21
-100.874
0
LINE
8
BLACK
6
CONTINUOUS
10
163.752
20
-100.874
11
163.688
21
-100.938
0
LINE
8
BLACK
6
CONTINUOUS
10
163.688
20
-100.938
11
163.559
21
-101.002
0
LINE
8
BLACK
6
CONTINUOUS
10
163.559
20
-101.002
11
163.302
21
-101.002
0
LINE
8
BLACK
6
CONTINUOUS
10
163.302
20
-101.002
11
163.173
21
-100.938
0
LINE
8
BLACK
6
CONTINUOUS
10
163.173
20
-100.938
11
163.109
21
-100.874
0
LINE
8
BLACK
6
CONTINUOUS
10
163.109
20
-100.874
11
163.044
21
-100.745
0
LINE
8
BLACK
6
CONTINUOUS
10
163.044
20
-100.745
11
163.044
21
-99.651
0
LINE
8
BLACK
6
CONTINUOUS
10
162.465
20
-100.938
11
162.336
21
-101.002
0
LINE
8
BLACK
6
CONTINUOUS
10
162.336
20
-101.002
11
162.079
21
-101.002
0
LINE
8
BLACK
6
CONTINUOUS
10
162.079
20
-101.002
11
161.95
21
-100.938
0
LINE
8
BLACK
6
CONTINUOUS
10
161.95
20
-100.938
11
161.886
21
-100.809
0
LINE
8
BLACK
6
CONTINUOUS
10
161.886
20
-100.809
11
161.886
21
-100.745
0
LINE
8
BLACK
6
CONTINUOUS
10
161.886
20
-100.745
11
161.95
21
-100.616
0
LINE
8
BLACK
6
CONTINUOUS
10
161.95
20
-100.616
11
162.079
21
-100.552
0
LINE
8
BLACK
6
CONTINUOUS
10
162.079
20
-100.552
11
162.272
21
-100.552
0
LINE
8
BLACK
6
CONTINUOUS
10
162.272
20
-100.552
11
162.401
21
-100.487
0
LINE
8
BLACK
6
CONTINUOUS
10
162.401
20
-100.487
11
162.465
21
-100.359
0
LINE
8
BLACK
6
CONTINUOUS
10
162.465
20
-100.359
11
162.465
21
-100.294
0
LINE
8
BLACK
6
CONTINUOUS
10
162.465
20
-100.294
11
162.401
21
-100.166
0
LINE
8
BLACK
6
CONTINUOUS
10
162.401
20
-100.166
11
162.272
21
-100.101
0
LINE
8
BLACK
6
CONTINUOUS
10
162.272
20
-100.101
11
162.079
21
-100.101
0
LINE
8
BLACK
6
CONTINUOUS
10
162.079
20
-100.101
11
161.95
21
-100.166
0
LINE
8
BLACK
6
CONTINUOUS
10
160.792
20
-100.938
11
160.921
21
-101.002
0
LINE
8
BLACK
6
CONTINUOUS
10
160.921
20
-101.002
11
161.178
21
-101.002
0
LINE
8
BLACK
6
CONTINUOUS
10
161.178
20
-101.002
11
161.307
21
-100.938
0
LINE
8
BLACK
6
CONTINUOUS
10
161.307
20
-100.938
11
161.371
21
-100.809
0
LINE
8
BLACK
6
CONTINUOUS
10
161.371
20
-100.809
11
161.371
21
-100.294
0
LINE
8
BLACK
6
CONTINUOUS
10
161.371
20
-100.294
11
161.307
21
-100.166
0
LINE
8
BLACK
6
CONTINUOUS
10
161.307
20
-100.166
11
161.178
21
-100.101
0
LINE
8
BLACK
6
CONTINUOUS
10
161.178
20
-100.101
11
160.921
21
-100.101
0
LINE
8
BLACK
6
CONTINUOUS
10
160.921
20
-100.101
11
160.792
21
-100.166
0
LINE
8
BLACK
6
CONTINUOUS
10
160.792
20
-100.166
11
160.728
21
-100.294
0
LINE
8
BLACK
6
CONTINUOUS
10
160.728
20
-100.294
11
160.728
21
-100.423
0
LINE
8
BLACK
6
CONTINUOUS
10
160.728
20
-100.423
11
161.371
21
-100.552
0
LINE
8
BLACK
6
CONTINUOUS
10
159.312
20
-99.651
11
158.862
21
-101.002
0
LINE
8
BLACK
6
CONTINUOUS
10
158.862
20
-101.002
11
158.411
21
-99.651
0
LINE
8
BLACK
6
CONTINUOUS
10
157.961
20
-100.487
11
156.931
21
-100.487
0
LINE
8
BLACK
6
CONTINUOUS
10
157.446
20
-101.002
11
157.446
21
-99.9727
0
LINE
8
BLACK
6
CONTINUOUS
10
155.451
20
-100.101
11
154.937
21
-100.101
0
LINE
8
BLACK
6
CONTINUOUS
10
155.258
20
-101.002
11
155.258
21
-99.844
0
LINE
8
BLACK
6
CONTINUOUS
10
155.258
20
-99.844
11
155.194
21
-99.7153
0
LINE
8
BLACK
6
CONTINUOUS
10
155.194
20
-99.7153
11
155.065
21
-99.651
0
LINE
8
BLACK
6
CONTINUOUS
10
155.065
20
-99.651
11
154.937
21
-99.651
0
LINE
8
BLACK
6
CONTINUOUS
10
154.293
20
-101.002
11
154.422
21
-100.938
0
LINE
8
BLACK
6
CONTINUOUS
10
154.422
20
-100.938
11
154.486
21
-100.874
0
LINE
8
BLACK
6
CONTINUOUS
10
154.486
20
-100.874
11
154.55
21
-100.745
0
LINE
8
BLACK
6
CONTINUOUS
10
154.55
20
-100.745
11
154.55
21
-100.359
0
LINE
8
BLACK
6
CONTINUOUS
10
154.55
20
-100.359
11
154.486
21
-100.23
0
LINE
8
BLACK
6
CONTINUOUS
10
154.486
20
-100.23
11
154.422
21
-100.166
0
LINE
8
BLACK
6
CONTINUOUS
10
154.422
20
-100.166
11
154.293
21
-100.101
0
LINE
8
BLACK
6
CONTINUOUS
10
154.293
20
-100.101
11
154.1
21
-100.101
0
LINE
8
BLACK
6
CONTINUOUS
10
154.1
20
-100.101
11
153.971
21
-100.166
0
LINE
8
BLACK
6
CONTINUOUS
10
153.971
20
-100.166
11
153.907
21
-100.23
0
LINE
8
BLACK
6
CONTINUOUS
10
153.907
20
-100.23
11
153.843
21
-100.359
0
LINE
8
BLACK
6
CONTINUOUS
10
153.843
20
-100.359
11
153.843
21
-100.745
0
LINE
8
BLACK
6
CONTINUOUS
10
153.843
20
-100.745
11
153.907
21
-100.874
0
LINE
8
BLACK
6
CONTINUOUS
10
153.907
20
-100.874
11
153.971
21
-100.938
0
LINE
8
BLACK
6
CONTINUOUS
10
153.971
20
-100.938
11
154.1
21
-101.002
0
LINE
8
BLACK
6
CONTINUOUS
10
154.1
20
-101.002
11
154.293
21
-101.002
0
LINE
8
BLACK
6
CONTINUOUS
10
153.264
20
-101.002
11
153.264
21
-100.101
0
LINE
8
BLACK
6
CONTINUOUS
10
153.264
20
-100.359
11
153.199
21
-100.23
0
LINE
8
BLACK
6
CONTINUOUS
10
153.199
20
-100.23
11
153.135
21
-100.166
0
LINE
8
BLACK
6
CONTINUOUS
10
153.135
20
-100.166
11
153.006
21
-100.101
0
LINE
8
BLACK
6
CONTINUOUS
10
153.006
20
-100.101
11
152.877
21
-100.101
0
LINE
8
BLACK
6
CONTINUOUS
10
151.462
20
-100.938
11
151.333
21
-101.002
0
LINE
8
BLACK
6
CONTINUOUS
10
151.333
20
-101.002
11
151.076
21
-101.002
0
LINE
8
BLACK
6
CONTINUOUS
10
151.076
20
-101.002
11
150.947
21
-100.938
0
LINE
8
BLACK
6
CONTINUOUS
10
150.947
20
-100.938
11
150.883
21
-100.809
0
LINE
8
BLACK
6
CONTINUOUS
10
150.883
20
-100.809
11
150.883
21
-100.745
0
LINE
8
BLACK
6
CONTINUOUS
10
150.883
20
-100.745
11
150.947
21
-100.616
0
LINE
8
BLACK
6
CONTINUOUS
10
150.947
20
-100.616
11
151.076
21
-100.552
0
LINE
8
BLACK
6
CONTINUOUS
10
151.076
20
-100.552
11
151.269
21
-100.552
0
LINE
8
BLACK
6
CONTINUOUS
10
151.269
20
-100.552
11
151.398
21
-100.487
0
LINE
8
BLACK
6
CONTINUOUS
10
151.398
20
-100.487
11
151.462
21
-100.359
0
LINE
8
BLACK
6
CONTINUOUS
10
151.462
20
-100.359
11
151.462
21
-100.294
0
LINE
8
BLACK
6
CONTINUOUS
10
151.462
20
-100.294
11
151.398
21
-100.166
0
LINE
8
BLACK
6
CONTINUOUS
10
151.398
20
-100.166
11
151.269
21
-100.101
0
LINE
8
BLACK
6
CONTINUOUS
10
151.269
20
-100.101
11
151.076
21
-100.101
0
LINE
8
BLACK
6
CONTINUOUS
10
151.076
20
-100.101
11
150.947
21
-100.166
0
LINE
8
BLACK
6
CONTINUOUS
10
149.789
20
-100.938
11
149.918
21
-101.002
0
LINE
8
BLACK
6
CONTINUOUS
10
149.918
20
-101.002
11
150.175
21
-101.002
0
LINE
8
BLACK
6
CONTINUOUS
10
150.175
20
-101.002
11
150.304
21
-100.938
0
LINE
8
BLACK
6
CONTINUOUS
10
150.304
20
-100.938
11
150.368
21
-100.809
0
LINE
8
BLACK
6
CONTINUOUS
10
150.368
20
-100.809
11
150.368
21
-100.294
0
LINE
8
BLACK
6
CONTINUOUS
10
150.368
20
-100.294
11
150.304
21
-100.166
0
LINE
8
BLACK
6
CONTINUOUS
10
150.304
20
-100.166
11
150.175
21
-100.101
0
LINE
8
BLACK
6
CONTINUOUS
10
150.175
20
-100.101
11
149.918
21
-100.101
0
LINE
8
BLACK
6
CONTINUOUS
10
149.918
20
-100.101
11
149.789
21
-100.166
0
LINE
8
BLACK
6
CONTINUOUS
10
149.789
20
-100.166
11
149.724
21
-100.294
0
LINE
8
BLACK
6
CONTINUOUS
10
149.724
20
-100.294
11
149.724
21
-100.423
0
LINE
8
BLACK
6
CONTINUOUS
10
149.724
20
-100.423
11
150.368
21
-100.552
0
LINE
8
BLACK
6
CONTINUOUS
10
149.145
20
-101.002
11
149.145
21
-100.101
0
LINE
8
BLACK
6
CONTINUOUS
10
149.145
20
-100.359
11
149.081
21
-100.23
0
LINE
8
BLACK
6
CONTINUOUS
10
149.081
20
-100.23
11
149.017
21
-100.166
0
LINE
8
BLACK
6
CONTINUOUS
10
149.017
20
-100.166
11
148.888
21
-100.101
0
LINE
8
BLACK
6
CONTINUOUS
10
148.888
20
-100.101
11
148.759
21
-100.101
0
LINE
8
BLACK
6
CONTINUOUS
10
148.438
20
-100.101
11
148.116
21
-101.002
0
LINE
8
BLACK
6
CONTINUOUS
10
148.116
20
-101.002
11
147.794
21
-100.101
0
LINE
8
BLACK
6
CONTINUOUS
10
147.086
20
-101.002
11
147.215
21
-100.938
0
LINE
8
BLACK
6
CONTINUOUS
10
147.215
20
-100.938
11
147.279
21
-100.874
0
LINE
8
BLACK
6
CONTINUOUS
10
147.279
20
-100.874
11
147.344
21
-100.745
0
LINE
8
BLACK
6
CONTINUOUS
10
147.344
20
-100.745
11
147.344
21
-100.359
0
LINE
8
BLACK
6
CONTINUOUS
10
147.344
20
-100.359
11
147.279
21
-100.23
0
LINE
8
BLACK
6
CONTINUOUS
10
147.279
20
-100.23
11
147.215
21
-100.166
0
LINE
8
BLACK
6
CONTINUOUS
10
147.215
20
-100.166
11
147.086
21
-100.101
0
LINE
8
BLACK
6
CONTINUOUS
10
147.086
20
-100.101
11
146.893
21
-100.101
0
LINE
8
BLACK
6
CONTINUOUS
10
146.893
20
-100.101
11
146.765
21
-100.166
0
LINE
8
BLACK
6
CONTINUOUS
10
146.765
20
-100.166
11
146.7
21
-100.23
0
LINE
8
BLACK
6
CONTINUOUS
10
146.7
20
-100.23
11
146.636
21
-100.359
0
LINE
8
BLACK
6
CONTINUOUS
10
146.636
20
-100.359
11
146.636
21
-100.745
0
LINE
8
BLACK
6
CONTINUOUS
10
146.636
20
-100.745
11
146.7
21
-100.874
0
LINE
8
BLACK
6
CONTINUOUS
10
146.7
20
-100.874
11
146.765
21
-100.938
0
LINE
8
BLACK
6
CONTINUOUS
10
146.765
20
-100.938
11
146.893
21
-101.002
0
LINE
8
BLACK
6
CONTINUOUS
10
146.893
20
-101.002
11
147.086
21
-101.002
0
LINE
8
BLACK
6
CONTINUOUS
10
145.092
20
-100.938
11
144.963
21
-101.002
0
LINE
8
BLACK
6
CONTINUOUS
10
144.963
20
-101.002
11
144.705
21
-101.002
0
LINE
8
BLACK
6
CONTINUOUS
10
144.705
20
-101.002
11
144.577
21
-100.938
0
LINE
8
BLACK
6
CONTINUOUS
10
144.577
20
-100.938
11
144.512
21
-100.809
0
LINE
8
BLACK
6
CONTINUOUS
10
144.512
20
-100.809
11
144.512
21
-100.745
0
LINE
8
BLACK
6
CONTINUOUS
10
144.512
20
-100.745
11
144.577
21
-100.616
0
LINE
8
BLACK
6
CONTINUOUS
10
144.577
20
-100.616
11
144.705
21
-100.552
0
LINE
8
BLACK
6
CONTINUOUS
10
144.705
20
-100.552
11
144.898
21
-100.552
0
LINE
8
BLACK
6
CONTINUOUS
10
144.898
20
-100.552
11
145.027
21
-100.487
0
LINE
8
BLACK
6
CONTINUOUS
10
145.027
20
-100.487
11
145.092
21
-100.359
0
LINE
8
BLACK
6
CONTINUOUS
10
145.092
20
-100.359
11
145.092
21
-100.294
0
LINE
8
BLACK
6
CONTINUOUS
10
145.092
20
-100.294
11
145.027
21
-100.166
0
LINE
8
BLACK
6
CONTINUOUS
10
145.027
20
-100.166
11
144.898
21
-100.101
0
LINE
8
BLACK
6
CONTINUOUS
10
144.898
20
-100.101
11
144.705
21
-100.101
0
LINE
8
BLACK
6
CONTINUOUS
10
144.705
20
-100.101
11
144.577
21
-100.166
0
LINE
8
BLACK
6
CONTINUOUS
10
143.354
20
-100.101
11
143.354
21
-101.002
0
LINE
8
BLACK
6
CONTINUOUS
10
143.933
20
-100.101
11
143.933
21
-100.809
0
LINE
8
BLACK
6
CONTINUOUS
10
143.933
20
-100.809
11
143.869
21
-100.938
0
LINE
8
BLACK
6
CONTINUOUS
10
143.869
20
-100.938
11
143.74
21
-101.002
0
LINE
8
BLACK
6
CONTINUOUS
10
143.74
20
-101.002
11
143.547
21
-101.002
0
LINE
8
BLACK
6
CONTINUOUS
10
143.547
20
-101.002
11
143.419
21
-100.938
0
LINE
8
BLACK
6
CONTINUOUS
10
143.419
20
-100.938
11
143.354
21
-100.874
0
LINE
8
BLACK
6
CONTINUOUS
10
142.711
20
-100.101
11
142.711
21
-101.453
0
LINE
8
BLACK
6
CONTINUOUS
10
142.711
20
-100.166
11
142.582
21
-100.101
0
LINE
8
BLACK
6
CONTINUOUS
10
142.582
20
-100.101
11
142.325
21
-100.101
0
LINE
8
BLACK
6
CONTINUOUS
10
142.325
20
-100.101
11
142.196
21
-100.166
0
LINE
8
BLACK
6
CONTINUOUS
10
142.196
20
-100.166
11
142.132
21
-100.23
0
LINE
8
BLACK
6
CONTINUOUS
10
142.132
20
-100.23
11
142.067
21
-100.359
0
LINE
8
BLACK
6
CONTINUOUS
10
142.067
20
-100.359
11
142.067
21
-100.745
0
LINE
8
BLACK
6
CONTINUOUS
10
142.067
20
-100.745
11
142.132
21
-100.874
0
LINE
8
BLACK
6
CONTINUOUS
10
142.132
20
-100.874
11
142.196
21
-100.938
0
LINE
8
BLACK
6
CONTINUOUS
10
142.196
20
-100.938
11
142.325
21
-101.002
0
LINE
8
BLACK
6
CONTINUOUS
10
142.325
20
-101.002
11
142.582
21
-101.002
0
LINE
8
BLACK
6
CONTINUOUS
10
142.582
20
-101.002
11
142.711
21
-100.938
0
LINE
8
BLACK
6
CONTINUOUS
10
141.488
20
-100.101
11
141.488
21
-101.453
0
LINE
8
BLACK
6
CONTINUOUS
10
141.488
20
-100.166
11
141.359
21
-100.101
0
LINE
8
BLACK
6
CONTINUOUS
10
141.359
20
-100.101
11
141.102
21
-100.101
0
LINE
8
BLACK
6
CONTINUOUS
10
141.102
20
-100.101
11
140.973
21
-100.166
0
LINE
8
BLACK
6
CONTINUOUS
10
140.973
20
-100.166
11
140.909
21
-100.23
0
LINE
8
BLACK
6
CONTINUOUS
10
140.909
20
-100.23
11
140.845
21
-100.359
0
LINE
8
BLACK
6
CONTINUOUS
10
140.845
20
-100.359
11
140.845
21
-100.745
0
LINE
8
BLACK
6
CONTINUOUS
10
140.845
20
-100.745
11
140.909
21
-100.874
0
LINE
8
BLACK
6
CONTINUOUS
10
140.909
20
-100.874
11
140.973
21
-100.938
0
LINE
8
BLACK
6
CONTINUOUS
10
140.973
20
-100.938
11
141.102
21
-101.002
0
LINE
8
BLACK
6
CONTINUOUS
10
141.102
20
-101.002
11
141.359
21
-101.002
0
LINE
8
BLACK
6
CONTINUOUS
10
141.359
20
-101.002
11
141.488
21
-100.938
0
LINE
8
BLACK
6
CONTINUOUS
10
140.072
20
-101.002
11
140.201
21
-100.938
0
LINE
8
BLACK
6
CONTINUOUS
10
140.201
20
-100.938
11
140.266
21
-100.809
0
LINE
8
BLACK
6
CONTINUOUS
10
140.266
20
-100.809
11
140.266
21
-99.651
0
LINE
8
BLACK
6
CONTINUOUS
10
139.686
20
-100.101
11
139.365
21
-101.002
0
LINE
8
BLACK
6
CONTINUOUS
10
139.043
20
-100.101
11
139.365
21
-101.002
0
LINE
8
BLACK
6
CONTINUOUS
10
139.365
20
-101.002
11
139.493
21
-101.324
0
LINE
8
BLACK
6
CONTINUOUS
10
139.493
20
-101.324
11
139.558
21
-101.388
0
LINE
8
BLACK
6
CONTINUOUS
10
139.558
20
-101.388
11
139.686
21
-101.453
0
LINE
8
BLACK
6
CONTINUOUS
10
152.557
20
-94.4389
11
152.557
21
-93.0876
0
LINE
8
BLACK
6
CONTINUOUS
10
152.557
20
-93.0876
11
152.042
21
-93.0876
0
LINE
8
BLACK
6
CONTINUOUS
10
152.042
20
-93.0876
11
151.913
21
-93.152
0
LINE
8
BLACK
6
CONTINUOUS
10
151.913
20
-93.152
11
151.849
21
-93.2163
0
LINE
8
BLACK
6
CONTINUOUS
10
151.849
20
-93.2163
11
151.784
21
-93.345
0
LINE
8
BLACK
6
CONTINUOUS
10
151.784
20
-93.345
11
151.784
21
-93.538
0
LINE
8
BLACK
6
CONTINUOUS
10
151.784
20
-93.538
11
151.849
21
-93.6667
0
LINE
8
BLACK
6
CONTINUOUS
10
151.849
20
-93.6667
11
151.913
21
-93.7311
0
LINE
8
BLACK
6
CONTINUOUS
10
151.913
20
-93.7311
11
152.042
21
-93.7954
0
LINE
8
BLACK
6
CONTINUOUS
10
152.042
20
-93.7954
11
152.557
21
-93.7954
0
LINE
8
BLACK
6
CONTINUOUS
10
150.433
20
-94.3102
11
150.498
21
-94.3745
0
LINE
8
BLACK
6
CONTINUOUS
10
150.498
20
-94.3745
11
150.691
21
-94.4389
0
LINE
8
BLACK
6
CONTINUOUS
10
150.691
20
-94.4389
11
150.819
21
-94.4389
0
LINE
8
BLACK
6
CONTINUOUS
10
150.819
20
-94.4389
11
151.012
21
-94.3745
0
LINE
8
BLACK
6
CONTINUOUS
10
151.012
20
-94.3745
11
151.141
21
-94.2459
0
LINE
8
BLACK
6
CONTINUOUS
10
151.141
20
-94.2459
11
151.205
21
-94.1172
0
LINE
8
BLACK
6
CONTINUOUS
10
151.205
20
-94.1172
11
151.27
21
-93.8598
0
LINE
8
BLACK
6
CONTINUOUS
10
151.27
20
-93.8598
11
151.27
21
-93.6667
0
LINE
8
BLACK
6
CONTINUOUS
10
151.27
20
-93.6667
11
151.205
21
-93.4093
0
LINE
8
BLACK
6
CONTINUOUS
10
151.205
20
-93.4093
11
151.141
21
-93.2807
0
LINE
8
BLACK
6
CONTINUOUS
10
151.141
20
-93.2807
11
151.012
21
-93.152
0
LINE
8
BLACK
6
CONTINUOUS
10
151.012
20
-93.152
11
150.819
21
-93.0876
0
LINE
8
BLACK
6
CONTINUOUS
10
150.819
20
-93.0876
11
150.691
21
-93.0876
0
LINE
8
BLACK
6
CONTINUOUS
10
150.691
20
-93.0876
11
150.498
21
-93.152
0
LINE
8
BLACK
6
CONTINUOUS
10
150.498
20
-93.152
11
150.433
21
-93.2163
0
LINE
8
BLACK
6
CONTINUOUS
10
149.918
20
-94.0528
11
149.275
21
-94.0528
0
LINE
8
BLACK
6
CONTINUOUS
10
150.047
20
-94.4389
11
149.597
21
-93.0876
0
LINE
8
BLACK
6
CONTINUOUS
10
149.597
20
-93.0876
11
149.146
21
-94.4389
0
LINE
8
BLACK
6
CONTINUOUS
10
148.631
20
-94.4389
11
148.374
21
-94.4389
0
LINE
8
BLACK
6
CONTINUOUS
10
148.374
20
-94.4389
11
148.245
21
-94.3745
0
LINE
8
BLACK
6
CONTINUOUS
10
148.245
20
-94.3745
11
148.181
21
-94.3102
0
LINE
8
BLACK
6
CONTINUOUS
10
148.181
20
-94.3102
11
148.052
21
-94.1172
0
LINE
8
BLACK
6
CONTINUOUS
10
148.052
20
-94.1172
11
147.988
21
-93.8598
0
LINE
8
BLACK
6
CONTINUOUS
10
147.988
20
-93.8598
11
147.988
21
-93.345
0
LINE
8
BLACK
6
CONTINUOUS
10
147.988
20
-93.345
11
148.052
21
-93.2163
0
LINE
8
BLACK
6
CONTINUOUS
10
148.052
20
-93.2163
11
148.117
21
-93.152
0
LINE
8
BLACK
6
CONTINUOUS
10
148.117
20
-93.152
11
148.245
21
-93.0876
0
LINE
8
BLACK
6
CONTINUOUS
10
148.245
20
-93.0876
11
148.503
21
-93.0876
0
LINE
8
BLACK
6
CONTINUOUS
10
148.503
20
-93.0876
11
148.631
21
-93.152
0
LINE
8
BLACK
6
CONTINUOUS
10
148.631
20
-93.152
11
148.696
21
-93.2163
0
LINE
8
BLACK
6
CONTINUOUS
10
148.696
20
-93.2163
11
148.76
21
-93.345
0
LINE
8
BLACK
6
CONTINUOUS
10
148.76
20
-93.345
11
148.76
21
-93.6667
0
LINE
8
BLACK
6
CONTINUOUS
10
148.76
20
-93.6667
11
148.696
21
-93.7954
0
LINE
8
BLACK
6
CONTINUOUS
10
148.696
20
-93.7954
11
148.631
21
-93.8598
0
LINE
8
BLACK
6
CONTINUOUS
10
148.631
20
-93.8598
11
148.503
21
-93.9241
0
LINE
8
BLACK
6
CONTINUOUS
10
148.503
20
-93.9241
11
148.245
21
-93.9241
0
LINE
8
BLACK
6
CONTINUOUS
10
148.245
20
-93.9241
11
148.117
21
-93.8598
0
LINE
8
BLACK
6
CONTINUOUS
10
148.117
20
-93.8598
11
148.052
21
-93.7954
0
LINE
8
BLACK
6
CONTINUOUS
10
148.052
20
-93.7954
11
147.988
21
-93.6667
0
LINE
8
BLACK
6
CONTINUOUS
10
146.83
20
-93.0876
11
147.087
21
-93.0876
0
LINE
8
BLACK
6
CONTINUOUS
10
147.087
20
-93.0876
11
147.216
21
-93.152
0
LINE
8
BLACK
6
CONTINUOUS
10
147.216
20
-93.152
11
147.28
21
-93.2163
0
LINE
8
BLACK
6
CONTINUOUS
10
147.28
20
-93.2163
11
147.409
21
-93.4093
0
LINE
8
BLACK
6
CONTINUOUS
10
147.409
20
-93.4093
11
147.473
21
-93.6667
0
LINE
8
BLACK
6
CONTINUOUS
10
147.473
20
-93.6667
11
147.473
21
-94.1815
0
LINE
8
BLACK
6
CONTINUOUS
10
147.473
20
-94.1815
11
147.409
21
-94.3102
0
LINE
8
BLACK
6
CONTINUOUS
10
147.409
20
-94.3102
11
147.345
21
-94.3745
0
LINE
8
BLACK
6
CONTINUOUS
10
147.345
20
-94.3745
11
147.216
21
-94.4389
0
LINE
8
BLACK
6
CONTINUOUS
10
147.216
20
-94.4389
11
146.958
21
-94.4389
0
LINE
8
BLACK
6
CONTINUOUS
10
146.958
20
-94.4389
11
146.83
21
-94.3745
0
LINE
8
BLACK
6
CONTINUOUS
10
146.83
20
-94.3745
11
146.765
21
-94.3102
0
LINE
8
BLACK
6
CONTINUOUS
10
146.765
20
-94.3102
11
146.701
21
-94.1815
0
LINE
8
BLACK
6
CONTINUOUS
10
146.701
20
-94.1815
11
146.701
21
-93.8598
0
LINE
8
BLACK
6
CONTINUOUS
10
146.701
20
-93.8598
11
146.765
21
-93.7311
0
LINE
8
BLACK
6
CONTINUOUS
10
146.765
20
-93.7311
11
146.83
21
-93.6667
0
LINE
8
BLACK
6
CONTINUOUS
10
146.83
20
-93.6667
11
146.958
21
-93.6024
0
LINE
8
BLACK
6
CONTINUOUS
10
146.958
20
-93.6024
11
147.216
21
-93.6024
0
LINE
8
BLACK
6
CONTINUOUS
10
147.216
20
-93.6024
11
147.345
21
-93.6667
0
LINE
8
BLACK
6
CONTINUOUS
10
147.345
20
-93.6667
11
147.409
21
-93.7311
0
LINE
8
BLACK
6
CONTINUOUS
10
147.409
20
-93.7311
11
147.473
21
-93.8598
0
LINE
8
BLACK
6
CONTINUOUS
10
145.929
20
-93.6667
11
146.058
21
-93.6024
0
LINE
8
BLACK
6
CONTINUOUS
10
146.058
20
-93.6024
11
146.122
21
-93.538
0
LINE
8
BLACK
6
CONTINUOUS
10
146.122
20
-93.538
11
146.186
21
-93.4093
0
LINE
8
BLACK
6
CONTINUOUS
10
146.186
20
-93.4093
11
146.186
21
-93.345
0
LINE
8
BLACK
6
CONTINUOUS
10
146.186
20
-93.345
11
146.122
21
-93.2163
0
LINE
8
BLACK
6
CONTINUOUS
10
146.122
20
-93.2163
11
146.058
21
-93.152
0
LINE
8
BLACK
6
CONTINUOUS
10
146.058
20
-93.152
11
145.929
21
-93.0876
0
LINE
8
BLACK
6
CONTINUOUS
10
145.929
20
-93.0876
11
145.672
21
-93.0876
0
LINE
8
BLACK
6
CONTINUOUS
10
145.672
20
-93.0876
11
145.543
21
-93.152
0
LINE
8
BLACK
6
CONTINUOUS
10
145.543
20
-93.152
11
145.478
21
-93.2163
0
LINE
8
BLACK
6
CONTINUOUS
10
145.478
20
-93.2163
11
145.414
21
-93.345
0
LINE
8
BLACK
6
CONTINUOUS
10
145.414
20
-93.345
11
145.414
21
-93.4093
0
LINE
8
BLACK
6
CONTINUOUS
10
145.414
20
-93.4093
11
145.478
21
-93.538
0
LINE
8
BLACK
6
CONTINUOUS
10
145.478
20
-93.538
11
145.543
21
-93.6024
0
LINE
8
BLACK
6
CONTINUOUS
10
145.543
20
-93.6024
11
145.672
21
-93.6667
0
LINE
8
BLACK
6
CONTINUOUS
10
145.672
20
-93.6667
11
145.929
21
-93.6667
0
LINE
8
BLACK
6
CONTINUOUS
10
145.929
20
-93.6667
11
146.058
21
-93.7311
0
LINE
8
BLACK
6
CONTINUOUS
10
146.058
20
-93.7311
11
146.122
21
-93.7954
0
LINE
8
BLACK
6
CONTINUOUS
10
146.122
20
-93.7954
11
146.186
21
-93.9241
0
LINE
8
BLACK
6
CONTINUOUS
10
146.186
20
-93.9241
11
146.186
21
-94.1815
0
LINE
8
BLACK
6
CONTINUOUS
10
146.186
20
-94.1815
11
146.122
21
-94.3102
0
LINE
8
BLACK
6
CONTINUOUS
10
146.122
20
-94.3102
11
146.058
21
-94.3745
0
LINE
8
BLACK
6
CONTINUOUS
10
146.058
20
-94.3745
11
145.929
21
-94.4389
0
LINE
8
BLACK
6
CONTINUOUS
10
145.929
20
-94.4389
11
145.672
21
-94.4389
0
LINE
8
BLACK
6
CONTINUOUS
10
145.672
20
-94.4389
11
145.543
21
-94.3745
0
LINE
8
BLACK
6
CONTINUOUS
10
145.543
20
-94.3745
11
145.478
21
-94.3102
0
LINE
8
BLACK
6
CONTINUOUS
10
145.478
20
-94.3102
11
145.414
21
-94.1815
0
LINE
8
BLACK
6
CONTINUOUS
10
145.414
20
-94.1815
11
145.414
21
-93.9241
0
LINE
8
BLACK
6
CONTINUOUS
10
145.414
20
-93.9241
11
145.478
21
-93.7954
0
LINE
8
BLACK
6
CONTINUOUS
10
145.478
20
-93.7954
11
145.543
21
-93.7311
0
LINE
8
BLACK
6
CONTINUOUS
10
145.543
20
-93.7311
11
145.672
21
-93.6667
0
LINE
8
BLACK
6
CONTINUOUS
10
144.192
20
-93.0876
11
144.835
21
-93.0876
0
LINE
8
BLACK
6
CONTINUOUS
10
144.835
20
-93.0876
11
144.899
21
-93.7311
0
LINE
8
BLACK
6
CONTINUOUS
10
144.899
20
-93.7311
11
144.835
21
-93.6667
0
LINE
8
BLACK
6
CONTINUOUS
10
144.835
20
-93.6667
11
144.706
21
-93.6024
0
LINE
8
BLACK
6
CONTINUOUS
10
144.706
20
-93.6024
11
144.385
21
-93.6024
0
LINE
8
BLACK
6
CONTINUOUS
10
144.385
20
-93.6024
11
144.256
21
-93.6667
0
LINE
8
BLACK
6
CONTINUOUS
10
144.256
20
-93.6667
11
144.192
21
-93.7311
0
LINE
8
BLACK
6
CONTINUOUS
10
144.192
20
-93.7311
11
144.127
21
-93.8598
0
LINE
8
BLACK
6
CONTINUOUS
10
144.127
20
-93.8598
11
144.127
21
-94.1815
0
LINE
8
BLACK
6
CONTINUOUS
10
144.127
20
-94.1815
11
144.192
21
-94.3102
0
LINE
8
BLACK
6
CONTINUOUS
10
144.192
20
-94.3102
11
144.256
21
-94.3745
0
LINE
8
BLACK
6
CONTINUOUS
10
144.256
20
-94.3745
11
144.385
21
-94.4389
0
LINE
8
BLACK
6
CONTINUOUS
10
144.385
20
-94.4389
11
144.706
21
-94.4389
0
LINE
8
BLACK
6
CONTINUOUS
10
144.706
20
-94.4389
11
144.835
21
-94.3745
0
LINE
8
BLACK
6
CONTINUOUS
10
144.835
20
-94.3745
11
144.899
21
-94.3102
0
LINE
8
BLACK
6
CONTINUOUS
10
145.721
20
-102.445
11
144.949
21
-102.445
0
LINE
8
BLACK
6
CONTINUOUS
10
145.335
20
-103.796
11
145.335
21
-102.445
0
LINE
8
BLACK
6
CONTINUOUS
10
143.984
20
-103.732
11
144.113
21
-103.796
0
LINE
8
BLACK
6
CONTINUOUS
10
144.113
20
-103.796
11
144.37
21
-103.796
0
LINE
8
BLACK
6
CONTINUOUS
10
144.37
20
-103.796
11
144.499
21
-103.732
0
LINE
8
BLACK
6
CONTINUOUS
10
144.499
20
-103.732
11
144.563
21
-103.603
0
LINE
8
BLACK
6
CONTINUOUS
10
144.563
20
-103.603
11
144.563
21
-103.088
0
LINE
8
BLACK
6
CONTINUOUS
10
144.563
20
-103.088
11
144.499
21
-102.96
0
LINE
8
BLACK
6
CONTINUOUS
10
144.499
20
-102.96
11
144.37
21
-102.895
0
LINE
8
BLACK
6
CONTINUOUS
10
144.37
20
-102.895
11
144.113
21
-102.895
0
LINE
8
BLACK
6
CONTINUOUS
10
144.113
20
-102.895
11
143.984
21
-102.96
0
LINE
8
BLACK
6
CONTINUOUS
10
143.984
20
-102.96
11
143.92
21
-103.088
0
LINE
8
BLACK
6
CONTINUOUS
10
143.92
20
-103.088
11
143.92
21
-103.217
0
LINE
8
BLACK
6
CONTINUOUS
10
143.92
20
-103.217
11
144.563
21
-103.346
0
LINE
8
BLACK
6
CONTINUOUS
10
143.341
20
-103.796
11
143.341
21
-102.895
0
LINE
8
BLACK
6
CONTINUOUS
10
143.341
20
-103.153
11
143.276
21
-103.024
0
LINE
8
BLACK
6
CONTINUOUS
10
143.276
20
-103.024
11
143.212
21
-102.96
0
LINE
8
BLACK
6
CONTINUOUS
10
143.212
20
-102.96
11
143.083
21
-102.895
0
LINE
8
BLACK
6
CONTINUOUS
10
143.083
20
-102.895
11
142.955
21
-102.895
0
LINE
8
BLACK
6
CONTINUOUS
10
142.504
20
-103.796
11
142.504
21
-102.895
0
LINE
8
BLACK
6
CONTINUOUS
10
142.504
20
-103.024
11
142.44
21
-102.96
0
LINE
8
BLACK
6
CONTINUOUS
10
142.44
20
-102.96
11
142.311
21
-102.895
0
LINE
8
BLACK
6
CONTINUOUS
10
142.311
20
-102.895
11
142.118
21
-102.895
0
LINE
8
BLACK
6
CONTINUOUS
10
142.118
20
-102.895
11
141.989
21
-102.96
0
LINE
8
BLACK
6
CONTINUOUS
10
141.989
20
-102.96
11
141.925
21
-103.088
0
LINE
8
BLACK
6
CONTINUOUS
10
141.925
20
-103.088
11
141.925
21
-103.796
0
LINE
8
BLACK
6
CONTINUOUS
10
141.925
20
-103.088
11
141.861
21
-102.96
0
LINE
8
BLACK
6
CONTINUOUS
10
141.861
20
-102.96
11
141.732
21
-102.895
0
LINE
8
BLACK
6
CONTINUOUS
10
141.732
20
-102.895
11
141.539
21
-102.895
0
LINE
8
BLACK
6
CONTINUOUS
10
141.539
20
-102.895
11
141.41
21
-102.96
0
LINE
8
BLACK
6
CONTINUOUS
10
141.41
20
-102.96
11
141.346
21
-103.088
0
LINE
8
BLACK
6
CONTINUOUS
10
141.346
20
-103.088
11
141.346
21
-103.796
0
LINE
8
BLACK
6
CONTINUOUS
10
140.702
20
-103.796
11
140.702
21
-102.895
0
LINE
8
BLACK
6
CONTINUOUS
10
140.702
20
-102.445
11
140.767
21
-102.509
0
LINE
8
BLACK
6
CONTINUOUS
10
140.767
20
-102.509
11
140.702
21
-102.574
0
LINE
8
BLACK
6
CONTINUOUS
10
140.702
20
-102.574
11
140.638
21
-102.509
0
LINE
8
BLACK
6
CONTINUOUS
10
140.638
20
-102.509
11
140.702
21
-102.445
0
LINE
8
BLACK
6
CONTINUOUS
10
140.702
20
-102.445
11
140.702
21
-102.574
0
LINE
8
BLACK
6
CONTINUOUS
10
140.059
20
-102.895
11
140.059
21
-103.796
0
LINE
8
BLACK
6
CONTINUOUS
10
140.059
20
-103.024
11
139.995
21
-102.96
0
LINE
8
BLACK
6
CONTINUOUS
10
139.995
20
-102.96
11
139.866
21
-102.895
0
LINE
8
BLACK
6
CONTINUOUS
10
139.866
20
-102.895
11
139.673
21
-102.895
0
LINE
8
BLACK
6
CONTINUOUS
10
139.673
20
-102.895
11
139.544
21
-102.96
0
LINE
8
BLACK
6
CONTINUOUS
10
139.544
20
-102.96
11
139.48
21
-103.088
0
LINE
8
BLACK
6
CONTINUOUS
10
139.48
20
-103.088
11
139.48
21
-103.796
0
LINE
8
BLACK
6
CONTINUOUS
10
138.257
20
-103.796
11
138.257
21
-103.088
0
LINE
8
BLACK
6
CONTINUOUS
10
138.257
20
-103.088
11
138.322
21
-102.96
0
LINE
8
BLACK
6
CONTINUOUS
10
138.322
20
-102.96
11
138.45
21
-102.895
0
LINE
8
BLACK
6
CONTINUOUS
10
138.45
20
-102.895
11
138.708
21
-102.895
0
LINE
8
BLACK
6
CONTINUOUS
10
138.708
20
-102.895
11
138.836
21
-102.96
0
LINE
8
BLACK
6
CONTINUOUS
10
138.257
20
-103.732
11
138.386
21
-103.796
0
LINE
8
BLACK
6
CONTINUOUS
10
138.386
20
-103.796
11
138.708
21
-103.796
0
LINE
8
BLACK
6
CONTINUOUS
10
138.708
20
-103.796
11
138.836
21
-103.732
0
LINE
8
BLACK
6
CONTINUOUS
10
138.836
20
-103.732
11
138.901
21
-103.603
0
LINE
8
BLACK
6
CONTINUOUS
10
138.901
20
-103.603
11
138.901
21
-103.475
0
LINE
8
BLACK
6
CONTINUOUS
10
138.901
20
-103.475
11
138.836
21
-103.346
0
LINE
8
BLACK
6
CONTINUOUS
10
138.836
20
-103.346
11
138.708
21
-103.281
0
LINE
8
BLACK
6
CONTINUOUS
10
138.708
20
-103.281
11
138.386
21
-103.281
0
LINE
8
BLACK
6
CONTINUOUS
10
138.386
20
-103.281
11
138.257
21
-103.217
0
LINE
8
BLACK
6
CONTINUOUS
10
137.421
20
-103.796
11
137.549
21
-103.732
0
LINE
8
BLACK
6
CONTINUOUS
10
137.549
20
-103.732
11
137.614
21
-103.603
0
LINE
8
BLACK
6
CONTINUOUS
10
137.614
20
-103.603
11
137.614
21
-102.445
0
LINE
8
BLACK
6
CONTINUOUS
10
135.876
20
-103.796
11
135.876
21
-102.445
0
LINE
8
BLACK
6
CONTINUOUS
10
135.876
20
-102.96
11
135.748
21
-102.895
0
LINE
8
BLACK
6
CONTINUOUS
10
135.748
20
-102.895
11
135.49
21
-102.895
0
LINE
8
BLACK
6
CONTINUOUS
10
135.49
20
-102.895
11
135.362
21
-102.96
0
LINE
8
BLACK
6
CONTINUOUS
10
135.362
20
-102.96
11
135.297
21
-103.024
0
LINE
8
BLACK
6
CONTINUOUS
10
135.297
20
-103.024
11
135.233
21
-103.153
0
LINE
8
BLACK
6
CONTINUOUS
10
135.233
20
-103.153
11
135.233
21
-103.539
0
LINE
8
BLACK
6
CONTINUOUS
10
135.233
20
-103.539
11
135.297
21
-103.668
0
LINE
8
BLACK
6
CONTINUOUS
10
135.297
20
-103.668
11
135.362
21
-103.732
0
LINE
8
BLACK
6
CONTINUOUS
10
135.362
20
-103.732
11
135.49
21
-103.796
0
LINE
8
BLACK
6
CONTINUOUS
10
135.49
20
-103.796
11
135.748
21
-103.796
0
LINE
8
BLACK
6
CONTINUOUS
10
135.748
20
-103.796
11
135.876
21
-103.732
0
LINE
8
BLACK
6
CONTINUOUS
10
134.461
20
-103.796
11
134.589
21
-103.732
0
LINE
8
BLACK
6
CONTINUOUS
10
134.589
20
-103.732
11
134.654
21
-103.603
0
LINE
8
BLACK
6
CONTINUOUS
10
134.654
20
-103.603
11
134.654
21
-102.445
0
LINE
8
BLACK
6
CONTINUOUS
10
133.753
20
-103.796
11
133.882
21
-103.732
0
LINE
8
BLACK
6
CONTINUOUS
10
133.882
20
-103.732
11
133.946
21
-103.668
0
LINE
8
BLACK
6
CONTINUOUS
10
133.946
20
-103.668
11
134.01
21
-103.539
0
LINE
8
BLACK
6
CONTINUOUS
10
134.01
20
-103.539
11
134.01
21
-103.153
0
LINE
8
BLACK
6
CONTINUOUS
10
134.01
20
-103.153
11
133.946
21
-103.024
0
LINE
8
BLACK
6
CONTINUOUS
10
133.946
20
-103.024
11
133.882
21
-102.96
0
LINE
8
BLACK
6
CONTINUOUS
10
133.882
20
-102.96
11
133.753
21
-102.895
0
LINE
8
BLACK
6
CONTINUOUS
10
133.753
20
-102.895
11
133.56
21
-102.895
0
LINE
8
BLACK
6
CONTINUOUS
10
133.56
20
-102.895
11
133.431
21
-102.96
0
LINE
8
BLACK
6
CONTINUOUS
10
133.431
20
-102.96
11
133.367
21
-103.024
0
LINE
8
BLACK
6
CONTINUOUS
10
133.367
20
-103.024
11
133.303
21
-103.153
0
LINE
8
BLACK
6
CONTINUOUS
10
133.303
20
-103.153
11
133.303
21
-103.539
0
LINE
8
BLACK
6
CONTINUOUS
10
133.303
20
-103.539
11
133.367
21
-103.668
0
LINE
8
BLACK
6
CONTINUOUS
10
133.367
20
-103.668
11
133.431
21
-103.732
0
LINE
8
BLACK
6
CONTINUOUS
10
133.431
20
-103.732
11
133.56
21
-103.796
0
LINE
8
BLACK
6
CONTINUOUS
10
133.56
20
-103.796
11
133.753
21
-103.796
0
LINE
8
BLACK
6
CONTINUOUS
10
132.144
20
-103.732
11
132.273
21
-103.796
0
LINE
8
BLACK
6
CONTINUOUS
10
132.273
20
-103.796
11
132.53
21
-103.796
0
LINE
8
BLACK
6
CONTINUOUS
10
132.53
20
-103.796
11
132.659
21
-103.732
0
LINE
8
BLACK
6
CONTINUOUS
10
132.659
20
-103.732
11
132.723
21
-103.668
0
LINE
8
BLACK
6
CONTINUOUS
10
132.723
20
-103.668
11
132.788
21
-103.539
0
LINE
8
BLACK
6
CONTINUOUS
10
132.788
20
-103.539
11
132.788
21
-103.153
0
LINE
8
BLACK
6
CONTINUOUS
10
132.788
20
-103.153
11
132.723
21
-103.024
0
LINE
8
BLACK
6
CONTINUOUS
10
132.723
20
-103.024
11
132.659
21
-102.96
0
LINE
8
BLACK
6
CONTINUOUS
10
132.659
20
-102.96
11
132.53
21
-102.895
0
LINE
8
BLACK
6
CONTINUOUS
10
132.53
20
-102.895
11
132.273
21
-102.895
0
LINE
8
BLACK
6
CONTINUOUS
10
132.273
20
-102.895
11
132.144
21
-102.96
0
LINE
8
BLACK
6
CONTINUOUS
10
131.565
20
-103.796
11
131.565
21
-102.445
0
LINE
8
BLACK
6
CONTINUOUS
10
131.436
20
-103.281
11
131.05
21
-103.796
0
LINE
8
BLACK
6
CONTINUOUS
10
131.05
20
-102.895
11
131.565
21
-103.41
0
LINE
8
BLACK
6
CONTINUOUS
10
129.442
20
-103.796
11
129.442
21
-102.895
0
LINE
8
BLACK
6
CONTINUOUS
10
129.442
20
-102.445
11
129.506
21
-102.509
0
LINE
8
BLACK
6
CONTINUOUS
10
129.506
20
-102.509
11
129.442
21
-102.574
0
LINE
8
BLACK
6
CONTINUOUS
10
129.442
20
-102.574
11
129.377
21
-102.509
0
LINE
8
BLACK
6
CONTINUOUS
10
129.377
20
-102.509
11
129.442
21
-102.445
0
LINE
8
BLACK
6
CONTINUOUS
10
129.442
20
-102.445
11
129.442
21
-102.574
0
LINE
8
BLACK
6
CONTINUOUS
10
128.863
20
-103.732
11
128.734
21
-103.796
0
LINE
8
BLACK
6
CONTINUOUS
10
128.734
20
-103.796
11
128.477
21
-103.796
0
LINE
8
BLACK
6
CONTINUOUS
10
128.477
20
-103.796
11
128.348
21
-103.732
0
LINE
8
BLACK
6
CONTINUOUS
10
128.348
20
-103.732
11
128.284
21
-103.603
0
LINE
8
BLACK
6
CONTINUOUS
10
128.284
20
-103.603
11
128.284
21
-103.539
0
LINE
8
BLACK
6
CONTINUOUS
10
128.284
20
-103.539
11
128.348
21
-103.41
0
LINE
8
BLACK
6
CONTINUOUS
10
128.348
20
-103.41
11
128.477
21
-103.346
0
LINE
8
BLACK
6
CONTINUOUS
10
128.477
20
-103.346
11
128.67
21
-103.346
0
LINE
8
BLACK
6
CONTINUOUS
10
128.67
20
-103.346
11
128.798
21
-103.281
0
LINE
8
BLACK
6
CONTINUOUS
10
128.798
20
-103.281
11
128.863
21
-103.153
0
LINE
8
BLACK
6
CONTINUOUS
10
128.863
20
-103.153
11
128.863
21
-103.088
0
LINE
8
BLACK
6
CONTINUOUS
10
128.863
20
-103.088
11
128.798
21
-102.96
0
LINE
8
BLACK
6
CONTINUOUS
10
128.798
20
-102.96
11
128.67
21
-102.895
0
LINE
8
BLACK
6
CONTINUOUS
10
128.67
20
-102.895
11
128.477
21
-102.895
0
LINE
8
BLACK
6
CONTINUOUS
10
128.477
20
-102.895
11
128.348
21
-102.96
0
LINE
8
BLACK
6
CONTINUOUS
10
145.575
20
-105.708
11
145.575
21
-104.904
0
LINE
8
BLACK
6
CONTINUOUS
10
145.575
20
-105.134
11
145.517
21
-105.019
0
LINE
8
BLACK
6
CONTINUOUS
10
145.517
20
-105.019
11
145.46
21
-104.961
0
LINE
8
BLACK
6
CONTINUOUS
10
145.46
20
-104.961
11
145.345
21
-104.904
0
LINE
8
BLACK
6
CONTINUOUS
10
145.345
20
-104.904
11
145.23
21
-104.904
0
LINE
8
BLACK
6
CONTINUOUS
10
144.368
20
-105.651
11
144.483
21
-105.708
0
LINE
8
BLACK
6
CONTINUOUS
10
144.483
20
-105.708
11
144.713
21
-105.708
0
LINE
8
BLACK
6
CONTINUOUS
10
144.713
20
-105.708
11
144.828
21
-105.651
0
LINE
8
BLACK
6
CONTINUOUS
10
144.828
20
-105.651
11
144.885
21
-105.536
0
LINE
8
BLACK
6
CONTINUOUS
10
144.885
20
-105.536
11
144.885
21
-105.076
0
LINE
8
BLACK
6
CONTINUOUS
10
144.885
20
-105.076
11
144.828
21
-104.961
0
LINE
8
BLACK
6
CONTINUOUS
10
144.828
20
-104.961
11
144.713
21
-104.904
0
LINE
8
BLACK
6
CONTINUOUS
10
144.713
20
-104.904
11
144.483
21
-104.904
0
LINE
8
BLACK
6
CONTINUOUS
10
144.483
20
-104.904
11
144.368
21
-104.961
0
LINE
8
BLACK
6
CONTINUOUS
10
144.368
20
-104.961
11
144.311
21
-105.076
0
LINE
8
BLACK
6
CONTINUOUS
10
144.311
20
-105.076
11
144.311
21
-105.191
0
LINE
8
BLACK
6
CONTINUOUS
10
144.311
20
-105.191
11
144.885
21
-105.306
0
LINE
8
BLACK
6
CONTINUOUS
10
143.909
20
-104.904
11
143.621
21
-105.708
0
LINE
8
BLACK
6
CONTINUOUS
10
143.621
20
-105.708
11
143.334
21
-104.904
0
LINE
8
BLACK
6
CONTINUOUS
10
142.415
20
-105.651
11
142.53
21
-105.708
0
LINE
8
BLACK
6
CONTINUOUS
10
142.53
20
-105.708
11
142.76
21
-105.708
0
LINE
8
BLACK
6
CONTINUOUS
10
142.76
20
-105.708
11
142.875
21
-105.651
0
LINE
8
BLACK
6
CONTINUOUS
10
142.875
20
-105.651
11
142.932
21
-105.536
0
LINE
8
BLACK
6
CONTINUOUS
10
142.932
20
-105.536
11
142.932
21
-105.076
0
LINE
8
BLACK
6
CONTINUOUS
10
142.932
20
-105.076
11
142.875
21
-104.961
0
LINE
8
BLACK
6
CONTINUOUS
10
142.875
20
-104.961
11
142.76
21
-104.904
0
LINE
8
BLACK
6
CONTINUOUS
10
142.76
20
-104.904
11
142.53
21
-104.904
0
LINE
8
BLACK
6
CONTINUOUS
10
142.53
20
-104.904
11
142.415
21
-104.961
0
LINE
8
BLACK
6
CONTINUOUS
10
142.415
20
-104.961
11
142.357
21
-105.076
0
LINE
8
BLACK
6
CONTINUOUS
10
142.357
20
-105.076
11
142.357
21
-105.191
0
LINE
8
BLACK
6
CONTINUOUS
10
142.357
20
-105.191
11
142.932
21
-105.306
0
LINE
8
BLACK
6
CONTINUOUS
10
141.84
20
-105.708
11
141.84
21
-104.904
0
LINE
8
BLACK
6
CONTINUOUS
10
141.84
20
-105.134
11
141.783
21
-105.019
0
LINE
8
BLACK
6
CONTINUOUS
10
141.783
20
-105.019
11
141.725
21
-104.961
0
LINE
8
BLACK
6
CONTINUOUS
10
141.725
20
-104.961
11
141.611
21
-104.904
0
LINE
8
BLACK
6
CONTINUOUS
10
141.611
20
-104.904
11
141.496
21
-104.904
0
LINE
8
BLACK
6
CONTINUOUS
10
141.151
20
-105.651
11
141.036
21
-105.708
0
LINE
8
BLACK
6
CONTINUOUS
10
141.036
20
-105.708
11
140.806
21
-105.708
0
LINE
8
BLACK
6
CONTINUOUS
10
140.806
20
-105.708
11
140.691
21
-105.651
0
LINE
8
BLACK
6
CONTINUOUS
10
140.691
20
-105.651
11
140.634
21
-105.536
0
LINE
8
BLACK
6
CONTINUOUS
10
140.634
20
-105.536
11
140.634
21
-105.478
0
LINE
8
BLACK
6
CONTINUOUS
10
140.634
20
-105.478
11
140.691
21
-105.363
0
LINE
8
BLACK
6
CONTINUOUS
10
140.691
20
-105.363
11
140.806
21
-105.306
0
LINE
8
BLACK
6
CONTINUOUS
10
140.806
20
-105.306
11
140.979
21
-105.306
0
LINE
8
BLACK
6
CONTINUOUS
10
140.979
20
-105.306
11
141.093
21
-105.249
0
LINE
8
BLACK
6
CONTINUOUS
10
141.093
20
-105.249
11
141.151
21
-105.134
0
LINE
8
BLACK
6
CONTINUOUS
10
141.151
20
-105.134
11
141.151
21
-105.076
0
LINE
8
BLACK
6
CONTINUOUS
10
141.151
20
-105.076
11
141.093
21
-104.961
0
LINE
8
BLACK
6
CONTINUOUS
10
141.093
20
-104.961
11
140.979
21
-104.904
0
LINE
8
BLACK
6
CONTINUOUS
10
140.979
20
-104.904
11
140.806
21
-104.904
0
LINE
8
BLACK
6
CONTINUOUS
10
140.806
20
-104.904
11
140.691
21
-104.961
0
LINE
8
BLACK
6
CONTINUOUS
10
139.657
20
-105.651
11
139.772
21
-105.708
0
LINE
8
BLACK
6
CONTINUOUS
10
139.772
20
-105.708
11
140.002
21
-105.708
0
LINE
8
BLACK
6
CONTINUOUS
10
140.002
20
-105.708
11
140.117
21
-105.651
0
LINE
8
BLACK
6
CONTINUOUS
10
140.117
20
-105.651
11
140.174
21
-105.536
0
LINE
8
BLACK
6
CONTINUOUS
10
140.174
20
-105.536
11
140.174
21
-105.076
0
LINE
8
BLACK
6
CONTINUOUS
10
140.174
20
-105.076
11
140.117
21
-104.961
0
LINE
8
BLACK
6
CONTINUOUS
10
140.117
20
-104.961
11
140.002
21
-104.904
0
LINE
8
BLACK
6
CONTINUOUS
10
140.002
20
-104.904
11
139.772
21
-104.904
0
LINE
8
BLACK
6
CONTINUOUS
10
139.772
20
-104.904
11
139.657
21
-104.961
0
LINE
8
BLACK
6
CONTINUOUS
10
139.657
20
-104.961
11
139.6
21
-105.076
0
LINE
8
BLACK
6
CONTINUOUS
10
139.6
20
-105.076
11
139.6
21
-105.191
0
LINE
8
BLACK
6
CONTINUOUS
10
139.6
20
-105.191
11
140.174
21
-105.306
0
LINE
8
BLACK
6
CONTINUOUS
10
138.163
20
-104.904
11
138.163
21
-106.11
0
LINE
8
BLACK
6
CONTINUOUS
10
138.163
20
-104.961
11
138.049
21
-104.904
0
LINE
8
BLACK
6
CONTINUOUS
10
138.049
20
-104.904
11
137.819
21
-104.904
0
LINE
8
BLACK
6
CONTINUOUS
10
137.819
20
-104.904
11
137.704
21
-104.961
0
LINE
8
BLACK
6
CONTINUOUS
10
137.704
20
-104.961
11
137.646
21
-105.019
0
LINE
8
BLACK
6
CONTINUOUS
10
137.646
20
-105.019
11
137.589
21
-105.134
0
LINE
8
BLACK
6
CONTINUOUS
10
137.589
20
-105.134
11
137.589
21
-105.478
0
LINE
8
BLACK
6
CONTINUOUS
10
137.589
20
-105.478
11
137.646
21
-105.593
0
LINE
8
BLACK
6
CONTINUOUS
10
137.646
20
-105.593
11
137.704
21
-105.651
0
LINE
8
BLACK
6
CONTINUOUS
10
137.704
20
-105.651
11
137.819
21
-105.708
0
LINE
8
BLACK
6
CONTINUOUS
10
137.819
20
-105.708
11
138.049
21
-105.708
0
LINE
8
BLACK
6
CONTINUOUS
10
138.049
20
-105.708
11
138.163
21
-105.651
0
LINE
8
BLACK
6
CONTINUOUS
10
136.899
20
-105.708
11
137.014
21
-105.651
0
LINE
8
BLACK
6
CONTINUOUS
10
137.014
20
-105.651
11
137.072
21
-105.593
0
LINE
8
BLACK
6
CONTINUOUS
10
137.072
20
-105.593
11
137.129
21
-105.478
0
LINE
8
BLACK
6
CONTINUOUS
10
137.129
20
-105.478
11
137.129
21
-105.134
0
LINE
8
BLACK
6
CONTINUOUS
10
137.129
20
-105.134
11
137.072
21
-105.019
0
LINE
8
BLACK
6
CONTINUOUS
10
137.072
20
-105.019
11
137.014
21
-104.961
0
LINE
8
BLACK
6
CONTINUOUS
10
137.014
20
-104.961
11
136.899
21
-104.904
0
LINE
8
BLACK
6
CONTINUOUS
10
136.899
20
-104.904
11
136.727
21
-104.904
0
LINE
8
BLACK
6
CONTINUOUS
10
136.727
20
-104.904
11
136.612
21
-104.961
0
LINE
8
BLACK
6
CONTINUOUS
10
136.612
20
-104.961
11
136.555
21
-105.019
0
LINE
8
BLACK
6
CONTINUOUS
10
136.555
20
-105.019
11
136.497
21
-105.134
0
LINE
8
BLACK
6
CONTINUOUS
10
136.497
20
-105.134
11
136.497
21
-105.478
0
LINE
8
BLACK
6
CONTINUOUS
10
136.497
20
-105.478
11
136.555
21
-105.593
0
LINE
8
BLACK
6
CONTINUOUS
10
136.555
20
-105.593
11
136.612
21
-105.651
0
LINE
8
BLACK
6
CONTINUOUS
10
136.612
20
-105.651
11
136.727
21
-105.708
0
LINE
8
BLACK
6
CONTINUOUS
10
136.727
20
-105.708
11
136.899
21
-105.708
0
LINE
8
BLACK
6
CONTINUOUS
10
135.808
20
-105.708
11
135.923
21
-105.651
0
LINE
8
BLACK
6
CONTINUOUS
10
135.923
20
-105.651
11
135.98
21
-105.536
0
LINE
8
BLACK
6
CONTINUOUS
10
135.98
20
-105.536
11
135.98
21
-104.502
0
LINE
8
BLACK
6
CONTINUOUS
10
134.831
20
-105.708
11
134.831
21
-105.076
0
LINE
8
BLACK
6
CONTINUOUS
10
134.831
20
-105.076
11
134.889
21
-104.961
0
LINE
8
BLACK
6
CONTINUOUS
10
134.889
20
-104.961
11
135.004
21
-104.904
0
LINE
8
BLACK
6
CONTINUOUS
10
135.004
20
-104.904
11
135.233
21
-104.904
0
LINE
8
BLACK
6
CONTINUOUS
10
135.233
20
-104.904
11
135.348
21
-104.961
0
LINE
8
BLACK
6
CONTINUOUS
10
134.831
20
-105.651
11
134.946
21
-105.708
0
LINE
8
BLACK
6
CONTINUOUS
10
134.946
20
-105.708
11
135.233
21
-105.708
0
LINE
8
BLACK
6
CONTINUOUS
10
135.233
20
-105.708
11
135.348
21
-105.651
0
LINE
8
BLACK
6
CONTINUOUS
10
135.348
20
-105.651
11
135.406
21
-105.536
0
LINE
8
BLACK
6
CONTINUOUS
10
135.406
20
-105.536
11
135.406
21
-105.421
0
LINE
8
BLACK
6
CONTINUOUS
10
135.406
20
-105.421
11
135.348
21
-105.306
0
LINE
8
BLACK
6
CONTINUOUS
10
135.348
20
-105.306
11
135.233
21
-105.249
0
LINE
8
BLACK
6
CONTINUOUS
10
135.233
20
-105.249
11
134.946
21
-105.249
0
LINE
8
BLACK
6
CONTINUOUS
10
134.946
20
-105.249
11
134.831
21
-105.191
0
LINE
8
BLACK
6
CONTINUOUS
10
134.257
20
-105.708
11
134.257
21
-104.904
0
LINE
8
BLACK
6
CONTINUOUS
10
134.257
20
-105.134
11
134.199
21
-105.019
0
LINE
8
BLACK
6
CONTINUOUS
10
134.199
20
-105.019
11
134.142
21
-104.961
0
LINE
8
BLACK
6
CONTINUOUS
10
134.142
20
-104.961
11
134.027
21
-104.904
0
LINE
8
BLACK
6
CONTINUOUS
10
134.027
20
-104.904
11
133.912
21
-104.904
0
LINE
8
BLACK
6
CONTINUOUS
10
133.51
20
-105.708
11
133.51
21
-104.904
0
LINE
8
BLACK
6
CONTINUOUS
10
133.51
20
-104.502
11
133.567
21
-104.559
0
LINE
8
BLACK
6
CONTINUOUS
10
133.567
20
-104.559
11
133.51
21
-104.617
0
LINE
8
BLACK
6
CONTINUOUS
10
133.51
20
-104.617
11
133.452
21
-104.559
0
LINE
8
BLACK
6
CONTINUOUS
10
133.452
20
-104.559
11
133.51
21
-104.502
0
LINE
8
BLACK
6
CONTINUOUS
10
133.51
20
-104.502
11
133.51
21
-104.617
0
LINE
8
BLACK
6
CONTINUOUS
10
133.108
20
-104.904
11
132.648
21
-104.904
0
LINE
8
BLACK
6
CONTINUOUS
10
132.935
20
-104.502
11
132.935
21
-105.536
0
LINE
8
BLACK
6
CONTINUOUS
10
132.935
20
-105.536
11
132.878
21
-105.651
0
LINE
8
BLACK
6
CONTINUOUS
10
132.878
20
-105.651
11
132.763
21
-105.708
0
LINE
8
BLACK
6
CONTINUOUS
10
132.763
20
-105.708
11
132.648
21
-105.708
0
LINE
8
BLACK
6
CONTINUOUS
10
132.361
20
-104.904
11
132.073
21
-105.708
0
LINE
8
BLACK
6
CONTINUOUS
10
131.786
20
-104.904
11
132.073
21
-105.708
0
LINE
8
BLACK
6
CONTINUOUS
10
132.073
20
-105.708
11
132.188
21
-105.995
0
LINE
8
BLACK
6
CONTINUOUS
10
132.188
20
-105.995
11
132.246
21
-106.053
0
LINE
8
BLACK
6
CONTINUOUS
10
132.246
20
-106.053
11
132.361
21
-106.11
0
LINE
8
BLACK
6
CONTINUOUS
10
145.575
20
-106.809
11
145.575
21
-108.015
0
LINE
8
BLACK
6
CONTINUOUS
10
145.575
20
-106.866
11
145.46
21
-106.809
0
LINE
8
BLACK
6
CONTINUOUS
10
145.46
20
-106.809
11
145.23
21
-106.809
0
LINE
8
BLACK
6
CONTINUOUS
10
145.23
20
-106.809
11
145.115
21
-106.866
0
LINE
8
BLACK
6
CONTINUOUS
10
145.115
20
-106.866
11
145.058
21
-106.924
0
LINE
8
BLACK
6
CONTINUOUS
10
145.058
20
-106.924
11
145
21
-107.039
0
LINE
8
BLACK
6
CONTINUOUS
10
145
20
-107.039
11
145
21
-107.383
0
LINE
8
BLACK
6
CONTINUOUS
10
145
20
-107.383
11
145.058
21
-107.498
0
LINE
8
BLACK
6
CONTINUOUS
10
145.058
20
-107.498
11
145.115
21
-107.556
0
LINE
8
BLACK
6
CONTINUOUS
10
145.115
20
-107.556
11
145.23
21
-107.613
0
LINE
8
BLACK
6
CONTINUOUS
10
145.23
20
-107.613
11
145.46
21
-107.613
0
LINE
8
BLACK
6
CONTINUOUS
10
145.46
20
-107.613
11
145.575
21
-107.556
0
LINE
8
BLACK
6
CONTINUOUS
10
144.483
20
-107.613
11
144.483
21
-106.809
0
LINE
8
BLACK
6
CONTINUOUS
10
144.483
20
-107.039
11
144.426
21
-106.924
0
LINE
8
BLACK
6
CONTINUOUS
10
144.426
20
-106.924
11
144.368
21
-106.866
0
LINE
8
BLACK
6
CONTINUOUS
10
144.368
20
-106.866
11
144.253
21
-106.809
0
LINE
8
BLACK
6
CONTINUOUS
10
144.253
20
-106.809
11
144.138
21
-106.809
0
LINE
8
BLACK
6
CONTINUOUS
10
143.564
20
-107.613
11
143.679
21
-107.556
0
LINE
8
BLACK
6
CONTINUOUS
10
143.679
20
-107.556
11
143.736
21
-107.498
0
LINE
8
BLACK
6
CONTINUOUS
10
143.736
20
-107.498
11
143.794
21
-107.383
0
LINE
8
BLACK
6
CONTINUOUS
10
143.794
20
-107.383
11
143.794
21
-107.039
0
LINE
8
BLACK
6
CONTINUOUS
10
143.794
20
-107.039
11
143.736
21
-106.924
0
LINE
8
BLACK
6
CONTINUOUS
10
143.736
20
-106.924
11
143.679
21
-106.866
0
LINE
8
BLACK
6
CONTINUOUS
10
143.679
20
-106.866
11
143.564
21
-106.809
0
LINE
8
BLACK
6
CONTINUOUS
10
143.564
20
-106.809
11
143.392
21
-106.809
0
LINE
8
BLACK
6
CONTINUOUS
10
143.392
20
-106.809
11
143.277
21
-106.866
0
LINE
8
BLACK
6
CONTINUOUS
10
143.277
20
-106.866
11
143.219
21
-106.924
0
LINE
8
BLACK
6
CONTINUOUS
10
143.219
20
-106.924
11
143.162
21
-107.039
0
LINE
8
BLACK
6
CONTINUOUS
10
143.162
20
-107.039
11
143.162
21
-107.383
0
LINE
8
BLACK
6
CONTINUOUS
10
143.162
20
-107.383
11
143.219
21
-107.498
0
LINE
8
BLACK
6
CONTINUOUS
10
143.219
20
-107.498
11
143.277
21
-107.556
0
LINE
8
BLACK
6
CONTINUOUS
10
143.277
20
-107.556
11
143.392
21
-107.613
0
LINE
8
BLACK
6
CONTINUOUS
10
143.392
20
-107.613
11
143.564
21
-107.613
0
LINE
8
BLACK
6
CONTINUOUS
10
142.817
20
-106.809
11
142.357
21
-106.809
0
LINE
8
BLACK
6
CONTINUOUS
10
142.645
20
-106.407
11
142.645
21
-107.441
0
LINE
8
BLACK
6
CONTINUOUS
10
142.645
20
-107.441
11
142.587
21
-107.556
0
LINE
8
BLACK
6
CONTINUOUS
10
142.587
20
-107.556
11
142.472
21
-107.613
0
LINE
8
BLACK
6
CONTINUOUS
10
142.472
20
-107.613
11
142.357
21
-107.613
0
LINE
8
BLACK
6
CONTINUOUS
10
141.496
20
-107.556
11
141.611
21
-107.613
0
LINE
8
BLACK
6
CONTINUOUS
10
141.611
20
-107.613
11
141.84
21
-107.613
0
LINE
8
BLACK
6
CONTINUOUS
10
141.84
20
-107.613
11
141.955
21
-107.556
0
LINE
8
BLACK
6
CONTINUOUS
10
141.955
20
-107.556
11
142.013
21
-107.441
0
LINE
8
BLACK
6
CONTINUOUS
10
142.013
20
-107.441
11
142.013
21
-106.981
0
LINE
8
BLACK
6
CONTINUOUS
10
142.013
20
-106.981
11
141.955
21
-106.866
0
LINE
8
BLACK
6
CONTINUOUS
10
141.955
20
-106.866
11
141.84
21
-106.809
0
LINE
8
BLACK
6
CONTINUOUS
10
141.84
20
-106.809
11
141.611
21
-106.809
0
LINE
8
BLACK
6
CONTINUOUS
10
141.611
20
-106.809
11
141.496
21
-106.866
0
LINE
8
BLACK
6
CONTINUOUS
10
141.496
20
-106.866
11
141.438
21
-106.981
0
LINE
8
BLACK
6
CONTINUOUS
10
141.438
20
-106.981
11
141.438
21
-107.096
0
LINE
8
BLACK
6
CONTINUOUS
10
141.438
20
-107.096
11
142.013
21
-107.211
0
LINE
8
BLACK
6
CONTINUOUS
10
140.404
20
-107.556
11
140.519
21
-107.613
0
LINE
8
BLACK
6
CONTINUOUS
10
140.519
20
-107.613
11
140.749
21
-107.613
0
LINE
8
BLACK
6
CONTINUOUS
10
140.749
20
-107.613
11
140.864
21
-107.556
0
LINE
8
BLACK
6
CONTINUOUS
10
140.864
20
-107.556
11
140.921
21
-107.498
0
LINE
8
BLACK
6
CONTINUOUS
10
140.921
20
-107.498
11
140.979
21
-107.383
0
LINE
8
BLACK
6
CONTINUOUS
10
140.979
20
-107.383
11
140.979
21
-107.039
0
LINE
8
BLACK
6
CONTINUOUS
10
140.979
20
-107.039
11
140.921
21
-106.924
0
LINE
8
BLACK
6
CONTINUOUS
10
140.921
20
-106.924
11
140.864
21
-106.866
0
LINE
8
BLACK
6
CONTINUOUS
10
140.864
20
-106.866
11
140.749
21
-106.809
0
LINE
8
BLACK
6
CONTINUOUS
10
140.749
20
-106.809
11
140.519
21
-106.809
0
LINE
8
BLACK
6
CONTINUOUS
10
140.519
20
-106.809
11
140.404
21
-106.866
0
LINE
8
BLACK
6
CONTINUOUS
10
140.059
20
-106.809
11
139.6
21
-106.809
0
LINE
8
BLACK
6
CONTINUOUS
10
139.887
20
-106.407
11
139.887
21
-107.441
0
LINE
8
BLACK
6
CONTINUOUS
10
139.887
20
-107.441
11
139.83
21
-107.556
0
LINE
8
BLACK
6
CONTINUOUS
10
139.83
20
-107.556
11
139.715
21
-107.613
0
LINE
8
BLACK
6
CONTINUOUS
10
139.715
20
-107.613
11
139.6
21
-107.613
0
LINE
8
BLACK
6
CONTINUOUS
10
138.738
20
-107.556
11
138.853
21
-107.613
0
LINE
8
BLACK
6
CONTINUOUS
10
138.853
20
-107.613
11
139.083
21
-107.613
0
LINE
8
BLACK
6
CONTINUOUS
10
139.083
20
-107.613
11
139.198
21
-107.556
0
LINE
8
BLACK
6
CONTINUOUS
10
139.198
20
-107.556
11
139.255
21
-107.441
0
LINE
8
BLACK
6
CONTINUOUS
10
139.255
20
-107.441
11
139.255
21
-106.981
0
LINE
8
BLACK
6
CONTINUOUS
10
139.255
20
-106.981
11
139.198
21
-106.866
0
LINE
8
BLACK
6
CONTINUOUS
10
139.198
20
-106.866
11
139.083
21
-106.809
0
LINE
8
BLACK
6
CONTINUOUS
10
139.083
20
-106.809
11
138.853
21
-106.809
0
LINE
8
BLACK
6
CONTINUOUS
10
138.853
20
-106.809
11
138.738
21
-106.866
0
LINE
8
BLACK
6
CONTINUOUS
10
138.738
20
-106.866
11
138.68
21
-106.981
0
LINE
8
BLACK
6
CONTINUOUS
10
138.68
20
-106.981
11
138.68
21
-107.096
0
LINE
8
BLACK
6
CONTINUOUS
10
138.68
20
-107.096
11
139.255
21
-107.211
0
LINE
8
BLACK
6
CONTINUOUS
10
137.646
20
-107.613
11
137.646
21
-106.407
0
LINE
8
BLACK
6
CONTINUOUS
10
137.646
20
-107.556
11
137.761
21
-107.613
0
LINE
8
BLACK
6
CONTINUOUS
10
137.761
20
-107.613
11
137.991
21
-107.613
0
LINE
8
BLACK
6
CONTINUOUS
10
137.991
20
-107.613
11
138.106
21
-107.556
0
LINE
8
BLACK
6
CONTINUOUS
10
138.106
20
-107.556
11
138.163
21
-107.498
0
LINE
8
BLACK
6
CONTINUOUS
10
138.163
20
-107.498
11
138.221
21
-107.383
0
LINE
8
BLACK
6
CONTINUOUS
10
138.221
20
-107.383
11
138.221
21
-107.039
0
LINE
8
BLACK
6
CONTINUOUS
10
138.221
20
-107.039
11
138.163
21
-106.924
0
LINE
8
BLACK
6
CONTINUOUS
10
138.163
20
-106.924
11
138.106
21
-106.866
0
LINE
8
BLACK
6
CONTINUOUS
10
138.106
20
-106.866
11
137.991
21
-106.809
0
LINE
8
BLACK
6
CONTINUOUS
10
137.991
20
-106.809
11
137.761
21
-106.809
0
LINE
8
BLACK
6
CONTINUOUS
10
137.761
20
-106.809
11
137.646
21
-106.866
0
LINE
8
BLACK
6
CONTINUOUS
10
137.072
20
-107.498
11
137.014
21
-107.556
0
LINE
8
BLACK
6
CONTINUOUS
10
137.014
20
-107.556
11
137.072
21
-107.613
0
LINE
8
BLACK
6
CONTINUOUS
10
137.072
20
-107.613
11
137.129
21
-107.556
0
LINE
8
BLACK
6
CONTINUOUS
10
137.129
20
-107.556
11
137.072
21
-107.498
0
LINE
8
BLACK
6
CONTINUOUS
10
137.072
20
-107.498
11
137.072
21
-107.613
0
LINE
8
BLACK
6
CONTINUOUS
10
135.636
20
-107.556
11
135.463
21
-107.613
0
LINE
8
BLACK
6
CONTINUOUS
10
135.463
20
-107.613
11
135.176
21
-107.613
0
LINE
8
BLACK
6
CONTINUOUS
10
135.176
20
-107.613
11
135.061
21
-107.556
0
LINE
8
BLACK
6
CONTINUOUS
10
135.061
20
-107.556
11
135.004
21
-107.498
0
LINE
8
BLACK
6
CONTINUOUS
10
135.004
20
-107.498
11
134.946
21
-107.383
0
LINE
8
BLACK
6
CONTINUOUS
10
134.946
20
-107.383
11
134.946
21
-107.268
0
LINE
8
BLACK
6
CONTINUOUS
10
134.946
20
-107.268
11
135.004
21
-107.154
0
LINE
8
BLACK
6
CONTINUOUS
10
135.004
20
-107.154
11
135.061
21
-107.096
0
LINE
8
BLACK
6
CONTINUOUS
10
135.061
20
-107.096
11
135.176
21
-107.039
0
LINE
8
BLACK
6
CONTINUOUS
10
135.176
20
-107.039
11
135.406
21
-106.981
0
LINE
8
BLACK
6
CONTINUOUS
10
135.406
20
-106.981
11
135.521
21
-106.924
0
LINE
8
BLACK
6
CONTINUOUS
10
135.521
20
-106.924
11
135.578
21
-106.866
0
LINE
8
BLACK
6
CONTINUOUS
10
135.578
20
-106.866
11
135.636
21
-106.751
0
LINE
8
BLACK
6
CONTINUOUS
10
135.636
20
-106.751
11
135.636
21
-106.636
0
LINE
8
BLACK
6
CONTINUOUS
10
135.636
20
-106.636
11
135.578
21
-106.522
0
LINE
8
BLACK
6
CONTINUOUS
10
135.578
20
-106.522
11
135.521
21
-106.464
0
LINE
8
BLACK
6
CONTINUOUS
10
135.521
20
-106.464
11
135.406
21
-106.407
0
LINE
8
BLACK
6
CONTINUOUS
10
135.406
20
-106.407
11
135.118
21
-106.407
0
LINE
8
BLACK
6
CONTINUOUS
10
135.118
20
-106.407
11
134.946
21
-106.464
0
LINE
8
BLACK
6
CONTINUOUS
10
134.429
20
-107.613
11
134.429
21
-106.809
0
LINE
8
BLACK
6
CONTINUOUS
10
134.429
20
-106.407
11
134.486
21
-106.464
0
LINE
8
BLACK
6
CONTINUOUS
10
134.486
20
-106.464
11
134.429
21
-106.522
0
LINE
8
BLACK
6
CONTINUOUS
10
134.429
20
-106.522
11
134.372
21
-106.464
0
LINE
8
BLACK
6
CONTINUOUS
10
134.372
20
-106.464
11
134.429
21
-106.407
0
LINE
8
BLACK
6
CONTINUOUS
10
134.429
20
-106.407
11
134.429
21
-106.522
0
LINE
8
BLACK
6
CONTINUOUS
10
133.337
20
-107.613
11
133.337
21
-106.407
0
LINE
8
BLACK
6
CONTINUOUS
10
133.337
20
-107.556
11
133.452
21
-107.613
0
LINE
8
BLACK
6
CONTINUOUS
10
133.452
20
-107.613
11
133.682
21
-107.613
0
LINE
8
BLACK
6
CONTINUOUS
10
133.682
20
-107.613
11
133.797
21
-107.556
0
LINE
8
BLACK
6
CONTINUOUS
10
133.797
20
-107.556
11
133.854
21
-107.498
0
LINE
8
BLACK
6
CONTINUOUS
10
133.854
20
-107.498
11
133.912
21
-107.383
0
LINE
8
BLACK
6
CONTINUOUS
10
133.912
20
-107.383
11
133.912
21
-107.039
0
LINE
8
BLACK
6
CONTINUOUS
10
133.912
20
-107.039
11
133.854
21
-106.924
0
LINE
8
BLACK
6
CONTINUOUS
10
133.854
20
-106.924
11
133.797
21
-106.866
0
LINE
8
BLACK
6
CONTINUOUS
10
133.797
20
-106.866
11
133.682
21
-106.809
0
LINE
8
BLACK
6
CONTINUOUS
10
133.682
20
-106.809
11
133.452
21
-106.809
0
LINE
8
BLACK
6
CONTINUOUS
10
133.452
20
-106.809
11
133.337
21
-106.866
0
LINE
8
BLACK
6
CONTINUOUS
10
132.303
20
-107.556
11
132.418
21
-107.613
0
LINE
8
BLACK
6
CONTINUOUS
10
132.418
20
-107.613
11
132.648
21
-107.613
0
LINE
8
BLACK
6
CONTINUOUS
10
132.648
20
-107.613
11
132.763
21
-107.556
0
LINE
8
BLACK
6
CONTINUOUS
10
132.763
20
-107.556
11
132.82
21
-107.441
0
LINE
8
BLACK
6
CONTINUOUS
10
132.82
20
-107.441
11
132.82
21
-106.981
0
LINE
8
BLACK
6
CONTINUOUS
10
132.82
20
-106.981
11
132.763
21
-106.866
0
LINE
8
BLACK
6
CONTINUOUS
10
132.763
20
-106.866
11
132.648
21
-106.809
0
LINE
8
BLACK
6
CONTINUOUS
10
132.648
20
-106.809
11
132.418
21
-106.809
0
LINE
8
BLACK
6
CONTINUOUS
10
132.418
20
-106.809
11
132.303
21
-106.866
0
LINE
8
BLACK
6
CONTINUOUS
10
132.303
20
-106.866
11
132.246
21
-106.981
0
LINE
8
BLACK
6
CONTINUOUS
10
132.246
20
-106.981
11
132.246
21
-107.096
0
LINE
8
BLACK
6
CONTINUOUS
10
132.246
20
-107.096
11
132.82
21
-107.211
0
LINE
8
BLACK
6
CONTINUOUS
10
130.81
20
-107.613
11
130.81
21
-106.407
0
LINE
8
BLACK
6
CONTINUOUS
10
130.81
20
-106.866
11
130.695
21
-106.809
0
LINE
8
BLACK
6
CONTINUOUS
10
130.695
20
-106.809
11
130.465
21
-106.809
0
LINE
8
BLACK
6
CONTINUOUS
10
130.465
20
-106.809
11
130.35
21
-106.866
0
LINE
8
BLACK
6
CONTINUOUS
10
130.35
20
-106.866
11
130.292
21
-106.924
0
LINE
8
BLACK
6
CONTINUOUS
10
130.292
20
-106.924
11
130.235
21
-107.039
0
LINE
8
BLACK
6
CONTINUOUS
10
130.235
20
-107.039
11
130.235
21
-107.383
0
LINE
8
BLACK
6
CONTINUOUS
10
130.235
20
-107.383
11
130.292
21
-107.498
0
LINE
8
BLACK
6
CONTINUOUS
10
130.292
20
-107.498
11
130.35
21
-107.556
0
LINE
8
BLACK
6
CONTINUOUS
10
130.35
20
-107.556
11
130.465
21
-107.613
0
LINE
8
BLACK
6
CONTINUOUS
10
130.465
20
-107.613
11
130.695
21
-107.613
0
LINE
8
BLACK
6
CONTINUOUS
10
130.695
20
-107.613
11
130.81
21
-107.556
0
LINE
8
BLACK
6
CONTINUOUS
10
129.718
20
-107.613
11
129.718
21
-106.809
0
LINE
8
BLACK
6
CONTINUOUS
10
129.718
20
-107.039
11
129.66
21
-106.924
0
LINE
8
BLACK
6
CONTINUOUS
10
129.66
20
-106.924
11
129.603
21
-106.866
0
LINE
8
BLACK
6
CONTINUOUS
10
129.603
20
-106.866
11
129.488
21
-106.809
0
LINE
8
BLACK
6
CONTINUOUS
10
129.488
20
-106.809
11
129.373
21
-106.809
0
LINE
8
BLACK
6
CONTINUOUS
10
128.511
20
-107.556
11
128.626
21
-107.613
0
LINE
8
BLACK
6
CONTINUOUS
10
128.626
20
-107.613
11
128.856
21
-107.613
0
LINE
8
BLACK
6
CONTINUOUS
10
128.856
20
-107.613
11
128.971
21
-107.556
0
LINE
8
BLACK
6
CONTINUOUS
10
128.971
20
-107.556
11
129.028
21
-107.441
0
LINE
8
BLACK
6
CONTINUOUS
10
129.028
20
-107.441
11
129.028
21
-106.981
0
LINE
8
BLACK
6
CONTINUOUS
10
129.028
20
-106.981
11
128.971
21
-106.866
0
LINE
8
BLACK
6
CONTINUOUS
10
128.971
20
-106.866
11
128.856
21
-106.809
0
LINE
8
BLACK
6
CONTINUOUS
10
128.856
20
-106.809
11
128.626
21
-106.809
0
LINE
8
BLACK
6
CONTINUOUS
10
128.626
20
-106.809
11
128.511
21
-106.866
0
LINE
8
BLACK
6
CONTINUOUS
10
128.511
20
-106.866
11
128.454
21
-106.981
0
LINE
8
BLACK
6
CONTINUOUS
10
128.454
20
-106.981
11
128.454
21
-107.096
0
LINE
8
BLACK
6
CONTINUOUS
10
128.454
20
-107.096
11
129.028
21
-107.211
0
LINE
8
BLACK
6
CONTINUOUS
10
127.42
20
-107.613
11
127.42
21
-106.981
0
LINE
8
BLACK
6
CONTINUOUS
10
127.42
20
-106.981
11
127.477
21
-106.866
0
LINE
8
BLACK
6
CONTINUOUS
10
127.477
20
-106.866
11
127.592
21
-106.809
0
LINE
8
BLACK
6
CONTINUOUS
10
127.592
20
-106.809
11
127.822
21
-106.809
0
LINE
8
BLACK
6
CONTINUOUS
10
127.822
20
-106.809
11
127.937
21
-106.866
0
LINE
8
BLACK
6
CONTINUOUS
10
127.42
20
-107.556
11
127.535
21
-107.613
0
LINE
8
BLACK
6
CONTINUOUS
10
127.535
20
-107.613
11
127.822
21
-107.613
0
LINE
8
BLACK
6
CONTINUOUS
10
127.822
20
-107.613
11
127.937
21
-107.556
0
LINE
8
BLACK
6
CONTINUOUS
10
127.937
20
-107.556
11
127.994
21
-107.441
0
LINE
8
BLACK
6
CONTINUOUS
10
127.994
20
-107.441
11
127.994
21
-107.326
0
LINE
8
BLACK
6
CONTINUOUS
10
127.994
20
-107.326
11
127.937
21
-107.211
0
LINE
8
BLACK
6
CONTINUOUS
10
127.937
20
-107.211
11
127.822
21
-107.154
0
LINE
8
BLACK
6
CONTINUOUS
10
127.822
20
-107.154
11
127.535
21
-107.154
0
LINE
8
BLACK
6
CONTINUOUS
10
127.535
20
-107.154
11
127.42
21
-107.096
0
LINE
8
BLACK
6
CONTINUOUS
10
126.845
20
-107.613
11
126.845
21
-106.407
0
LINE
8
BLACK
6
CONTINUOUS
10
126.73
20
-107.154
11
126.386
21
-107.613
0
LINE
8
BLACK
6
CONTINUOUS
10
126.386
20
-106.809
11
126.845
21
-107.268
0
LINE
8
BLACK
6
CONTINUOUS
10
125.696
20
-107.613
11
125.811
21
-107.556
0
LINE
8
BLACK
6
CONTINUOUS
10
125.811
20
-107.556
11
125.869
21
-107.498
0
LINE
8
BLACK
6
CONTINUOUS
10
125.869
20
-107.498
11
125.926
21
-107.383
0
LINE
8
BLACK
6
CONTINUOUS
10
125.926
20
-107.383
11
125.926
21
-107.039
0
LINE
8
BLACK
6
CONTINUOUS
10
125.926
20
-107.039
11
125.869
21
-106.924
0
LINE
8
BLACK
6
CONTINUOUS
10
125.869
20
-106.924
11
125.811
21
-106.866
0
LINE
8
BLACK
6
CONTINUOUS
10
125.811
20
-106.866
11
125.696
21
-106.809
0
LINE
8
BLACK
6
CONTINUOUS
10
125.696
20
-106.809
11
125.524
21
-106.809
0
LINE
8
BLACK
6
CONTINUOUS
10
125.524
20
-106.809
11
125.409
21
-106.866
0
LINE
8
BLACK
6
CONTINUOUS
10
125.409
20
-106.866
11
125.352
21
-106.924
0
LINE
8
BLACK
6
CONTINUOUS
10
125.352
20
-106.924
11
125.294
21
-107.039
0
LINE
8
BLACK
6
CONTINUOUS
10
125.294
20
-107.039
11
125.294
21
-107.383
0
LINE
8
BLACK
6
CONTINUOUS
10
125.294
20
-107.383
11
125.352
21
-107.498
0
LINE
8
BLACK
6
CONTINUOUS
10
125.352
20
-107.498
11
125.409
21
-107.556
0
LINE
8
BLACK
6
CONTINUOUS
10
125.409
20
-107.556
11
125.524
21
-107.613
0
LINE
8
BLACK
6
CONTINUOUS
10
125.524
20
-107.613
11
125.696
21
-107.613
0
LINE
8
BLACK
6
CONTINUOUS
10
124.26
20
-106.809
11
124.26
21
-107.613
0
LINE
8
BLACK
6
CONTINUOUS
10
124.777
20
-106.809
11
124.777
21
-107.441
0
LINE
8
BLACK
6
CONTINUOUS
10
124.777
20
-107.441
11
124.72
21
-107.556
0
LINE
8
BLACK
6
CONTINUOUS
10
124.72
20
-107.556
11
124.605
21
-107.613
0
LINE
8
BLACK
6
CONTINUOUS
10
124.605
20
-107.613
11
124.432
21
-107.613
0
LINE
8
BLACK
6
CONTINUOUS
10
124.432
20
-107.613
11
124.317
21
-107.556
0
LINE
8
BLACK
6
CONTINUOUS
10
124.317
20
-107.556
11
124.26
21
-107.498
0
LINE
8
BLACK
6
CONTINUOUS
10
123.858
20
-106.809
11
123.398
21
-106.809
0
LINE
8
BLACK
6
CONTINUOUS
10
123.685
20
-106.407
11
123.685
21
-107.441
0
LINE
8
BLACK
6
CONTINUOUS
10
123.685
20
-107.441
11
123.628
21
-107.556
0
LINE
8
BLACK
6
CONTINUOUS
10
123.628
20
-107.556
11
123.513
21
-107.613
0
LINE
8
BLACK
6
CONTINUOUS
10
123.513
20
-107.613
11
123.398
21
-107.613
0
LINE
8
BLACK
6
CONTINUOUS
10
145.575
20
-108.714
11
145.575
21
-109.92
0
LINE
8
BLACK
6
CONTINUOUS
10
145.575
20
-108.771
11
145.46
21
-108.714
0
LINE
8
BLACK
6
CONTINUOUS
10
145.46
20
-108.714
11
145.23
21
-108.714
0
LINE
8
BLACK
6
CONTINUOUS
10
145.23
20
-108.714
11
145.115
21
-108.771
0
LINE
8
BLACK
6
CONTINUOUS
10
145.115
20
-108.771
11
145.058
21
-108.829
0
LINE
8
BLACK
6
CONTINUOUS
10
145.058
20
-108.829
11
145
21
-108.944
0
LINE
8
BLACK
6
CONTINUOUS
10
145
20
-108.944
11
145
21
-109.288
0
LINE
8
BLACK
6
CONTINUOUS
10
145
20
-109.288
11
145.058
21
-109.403
0
LINE
8
BLACK
6
CONTINUOUS
10
145.058
20
-109.403
11
145.115
21
-109.461
0
LINE
8
BLACK
6
CONTINUOUS
10
145.115
20
-109.461
11
145.23
21
-109.518
0
LINE
8
BLACK
6
CONTINUOUS
10
145.23
20
-109.518
11
145.46
21
-109.518
0
LINE
8
BLACK
6
CONTINUOUS
10
145.46
20
-109.518
11
145.575
21
-109.461
0
LINE
8
BLACK
6
CONTINUOUS
10
144.483
20
-109.518
11
144.483
21
-108.714
0
LINE
8
BLACK
6
CONTINUOUS
10
144.483
20
-108.312
11
144.541
21
-108.369
0
LINE
8
BLACK
6
CONTINUOUS
10
144.541
20
-108.369
11
144.483
21
-108.427
0
LINE
8
BLACK
6
CONTINUOUS
10
144.483
20
-108.427
11
144.426
21
-108.369
0
LINE
8
BLACK
6
CONTINUOUS
10
144.426
20
-108.369
11
144.483
21
-108.312
0
LINE
8
BLACK
6
CONTINUOUS
10
144.483
20
-108.312
11
144.483
21
-108.427
0
LINE
8
BLACK
6
CONTINUOUS
10
143.909
20
-108.714
11
143.909
21
-109.518
0
LINE
8
BLACK
6
CONTINUOUS
10
143.909
20
-108.829
11
143.851
21
-108.771
0
LINE
8
BLACK
6
CONTINUOUS
10
143.851
20
-108.771
11
143.736
21
-108.714
0
LINE
8
BLACK
6
CONTINUOUS
10
143.736
20
-108.714
11
143.564
21
-108.714
0
LINE
8
BLACK
6
CONTINUOUS
10
143.564
20
-108.714
11
143.449
21
-108.771
0
LINE
8
BLACK
6
CONTINUOUS
10
143.449
20
-108.771
11
143.392
21
-108.886
0
LINE
8
BLACK
6
CONTINUOUS
10
143.392
20
-108.886
11
143.392
21
-109.518
0
LINE
8
BLACK
6
CONTINUOUS
10
142.875
20
-109.461
11
142.76
21
-109.518
0
LINE
8
BLACK
6
CONTINUOUS
10
142.76
20
-109.518
11
142.53
21
-109.518
0
LINE
8
BLACK
6
CONTINUOUS
10
142.53
20
-109.518
11
142.415
21
-109.461
0
LINE
8
BLACK
6
CONTINUOUS
10
142.415
20
-109.461
11
142.357
21
-109.346
0
LINE
8
BLACK
6
CONTINUOUS
10
142.357
20
-109.346
11
142.357
21
-109.288
0
LINE
8
BLACK
6
CONTINUOUS
10
142.357
20
-109.288
11
142.415
21
-109.173
0
LINE
8
BLACK
6
CONTINUOUS
10
142.415
20
-109.173
11
142.53
21
-109.116
0
LINE
8
BLACK
6
CONTINUOUS
10
142.53
20
-109.116
11
142.702
21
-109.116
0
LINE
8
BLACK
6
CONTINUOUS
10
142.702
20
-109.116
11
142.817
21
-109.059
0
LINE
8
BLACK
6
CONTINUOUS
10
142.817
20
-109.059
11
142.875
21
-108.944
0
LINE
8
BLACK
6
CONTINUOUS
10
142.875
20
-108.944
11
142.875
21
-108.886
0
LINE
8
BLACK
6
CONTINUOUS
10
142.875
20
-108.886
11
142.817
21
-108.771
0
LINE
8
BLACK
6
CONTINUOUS
10
142.817
20
-108.771
11
142.702
21
-108.714
0
LINE
8
BLACK
6
CONTINUOUS
10
142.702
20
-108.714
11
142.53
21
-108.714
0
LINE
8
BLACK
6
CONTINUOUS
10
142.53
20
-108.714
11
142.415
21
-108.771
0
LINE
8
BLACK
6
CONTINUOUS
10
140.404
20
-109.518
11
140.404
21
-108.886
0
LINE
8
BLACK
6
CONTINUOUS
10
140.404
20
-108.886
11
140.462
21
-108.771
0
LINE
8
BLACK
6
CONTINUOUS
10
140.462
20
-108.771
11
140.576
21
-108.714
0
LINE
8
BLACK
6
CONTINUOUS
10
140.576
20
-108.714
11
140.806
21
-108.714
0
LINE
8
BLACK
6
CONTINUOUS
10
140.806
20
-108.714
11
140.921
21
-108.771
0
LINE
8
BLACK
6
CONTINUOUS
10
140.404
20
-109.461
11
140.519
21
-109.518
0
LINE
8
BLACK
6
CONTINUOUS
10
140.519
20
-109.518
11
140.806
21
-109.518
0
LINE
8
BLACK
6
CONTINUOUS
10
140.806
20
-109.518
11
140.921
21
-109.461
0
LINE
8
BLACK
6
CONTINUOUS
10
140.921
20
-109.461
11
140.979
21
-109.346
0
LINE
8
BLACK
6
CONTINUOUS
10
140.979
20
-109.346
11
140.979
21
-109.231
0
LINE
8
BLACK
6
CONTINUOUS
10
140.979
20
-109.231
11
140.921
21
-109.116
0
LINE
8
BLACK
6
CONTINUOUS
10
140.921
20
-109.116
11
140.806
21
-109.059
0
LINE
8
BLACK
6
CONTINUOUS
10
140.806
20
-109.059
11
140.519
21
-109.059
0
LINE
8
BLACK
6
CONTINUOUS
10
140.519
20
-109.059
11
140.404
21
-109.001
0
LINE
8
BLACK
6
CONTINUOUS
10
139.83
20
-109.518
11
139.83
21
-108.714
0
LINE
8
BLACK
6
CONTINUOUS
10
139.83
20
-108.944
11
139.772
21
-108.829
0
LINE
8
BLACK
6
CONTINUOUS
10
139.772
20
-108.829
11
139.715
21
-108.771
0
LINE
8
BLACK
6
CONTINUOUS
10
139.715
20
-108.771
11
139.6
21
-108.714
0
LINE
8
BLACK
6
CONTINUOUS
10
139.6
20
-108.714
11
139.485
21
-108.714
0
LINE
8
BLACK
6
CONTINUOUS
10
138.623
20
-109.461
11
138.738
21
-109.518
0
LINE
8
BLACK
6
CONTINUOUS
10
138.738
20
-109.518
11
138.968
21
-109.518
0
LINE
8
BLACK
6
CONTINUOUS
10
138.968
20
-109.518
11
139.083
21
-109.461
0
LINE
8
BLACK
6
CONTINUOUS
10
139.083
20
-109.461
11
139.14
21
-109.346
0
LINE
8
BLACK
6
CONTINUOUS
10
139.14
20
-109.346
11
139.14
21
-108.886
0
LINE
8
BLACK
6
CONTINUOUS
10
139.14
20
-108.886
11
139.083
21
-108.771
0
LINE
8
BLACK
6
CONTINUOUS
10
139.083
20
-108.771
11
138.968
21
-108.714
0
LINE
8
BLACK
6
CONTINUOUS
10
138.968
20
-108.714
11
138.738
21
-108.714
0
LINE
8
BLACK
6
CONTINUOUS
10
138.738
20
-108.714
11
138.623
21
-108.771
0
LINE
8
BLACK
6
CONTINUOUS
10
138.623
20
-108.771
11
138.566
21
-108.886
0
LINE
8
BLACK
6
CONTINUOUS
10
138.566
20
-108.886
11
138.566
21
-109.001
0
LINE
8
BLACK
6
CONTINUOUS
10
138.566
20
-109.001
11
139.14
21
-109.116
0
LINE
8
BLACK
6
CONTINUOUS
10
137.129
20
-108.714
11
137.129
21
-109.518
0
LINE
8
BLACK
6
CONTINUOUS
10
137.129
20
-108.829
11
137.072
21
-108.771
0
LINE
8
BLACK
6
CONTINUOUS
10
137.072
20
-108.771
11
136.957
21
-108.714
0
LINE
8
BLACK
6
CONTINUOUS
10
136.957
20
-108.714
11
136.785
21
-108.714
0
LINE
8
BLACK
6
CONTINUOUS
10
136.785
20
-108.714
11
136.67
21
-108.771
0
LINE
8
BLACK
6
CONTINUOUS
10
136.67
20
-108.771
11
136.612
21
-108.886
0
LINE
8
BLACK
6
CONTINUOUS
10
136.612
20
-108.886
11
136.612
21
-109.518
0
LINE
8
BLACK
6
CONTINUOUS
10
135.865
20
-109.518
11
135.98
21
-109.461
0
LINE
8
BLACK
6
CONTINUOUS
10
135.98
20
-109.461
11
136.038
21
-109.403
0
LINE
8
BLACK
6
CONTINUOUS
10
136.038
20
-109.403
11
136.095
21
-109.288
0
LINE
8
BLACK
6
CONTINUOUS
10
136.095
20
-109.288
11
136.095
21
-108.944
0
LINE
8
BLACK
6
CONTINUOUS
10
136.095
20
-108.944
11
136.038
21
-108.829
0
LINE
8
BLACK
6
CONTINUOUS
10
136.038
20
-108.829
11
135.98
21
-108.771
0
LINE
8
BLACK
6
CONTINUOUS
10
135.98
20
-108.771
11
135.865
21
-108.714
0
LINE
8
BLACK
6
CONTINUOUS
10
135.865
20
-108.714
11
135.693
21
-108.714
0
LINE
8
BLACK
6
CONTINUOUS
10
135.693
20
-108.714
11
135.578
21
-108.771
0
LINE
8
BLACK
6
CONTINUOUS
10
135.578
20
-108.771
11
135.521
21
-108.829
0
LINE
8
BLACK
6
CONTINUOUS
10
135.521
20
-108.829
11
135.463
21
-108.944
0
LINE
8
BLACK
6
CONTINUOUS
10
135.463
20
-108.944
11
135.463
21
-109.288
0
LINE
8
BLACK
6
CONTINUOUS
10
135.463
20
-109.288
11
135.521
21
-109.403
0
LINE
8
BLACK
6
CONTINUOUS
10
135.521
20
-109.403
11
135.578
21
-109.461
0
LINE
8
BLACK
6
CONTINUOUS
10
135.578
20
-109.461
11
135.693
21
-109.518
0
LINE
8
BLACK
6
CONTINUOUS
10
135.693
20
-109.518
11
135.865
21
-109.518
0
LINE
8
BLACK
6
CONTINUOUS
10
135.118
20
-108.714
11
134.659
21
-108.714
0
LINE
8
BLACK
6
CONTINUOUS
10
134.946
20
-108.312
11
134.946
21
-109.346
0
LINE
8
BLACK
6
CONTINUOUS
10
134.946
20
-109.346
11
134.889
21
-109.461
0
LINE
8
BLACK
6
CONTINUOUS
10
134.889
20
-109.461
11
134.774
21
-109.518
0
LINE
8
BLACK
6
CONTINUOUS
10
134.774
20
-109.518
11
134.659
21
-109.518
0
LINE
8
BLACK
6
CONTINUOUS
10
134.257
20
-109.403
11
134.199
21
-109.461
0
LINE
8
BLACK
6
CONTINUOUS
10
134.199
20
-109.461
11
134.257
21
-109.518
0
LINE
8
BLACK
6
CONTINUOUS
10
134.257
20
-109.518
11
134.314
21
-109.461
0
LINE
8
BLACK
6
CONTINUOUS
10
134.314
20
-109.461
11
134.257
21
-109.403
0
LINE
8
BLACK
6
CONTINUOUS
10
134.257
20
-109.403
11
134.257
21
-109.518
0
LINE
8
BLACK
6
CONTINUOUS
10
134.257
20
-109.059
11
134.314
21
-108.369
0
LINE
8
BLACK
6
CONTINUOUS
10
134.314
20
-108.369
11
134.257
21
-108.312
0
LINE
8
BLACK
6
CONTINUOUS
10
134.257
20
-108.312
11
134.199
21
-108.369
0
LINE
8
BLACK
6
CONTINUOUS
10
134.199
20
-108.369
11
134.257
21
-109.059
0
LINE
8
BLACK
6
CONTINUOUS
10
134.257
20
-109.059
11
134.257
21
-108.312
0
LINE
8
BLACK
6
CONTINUOUS
10
168.192
20
-109.184
11
168.642
21
-109.184
0
LINE
8
BLACK
6
CONTINUOUS
10
168.642
20
-109.892
11
168.642
21
-108.541
0
LINE
8
BLACK
6
CONTINUOUS
10
168.642
20
-108.541
11
167.999
21
-108.541
0
LINE
8
BLACK
6
CONTINUOUS
10
167.484
20
-109.892
11
167.484
21
-108.991
0
LINE
8
BLACK
6
CONTINUOUS
10
167.484
20
-109.249
11
167.42
21
-109.12
0
LINE
8
BLACK
6
CONTINUOUS
10
167.42
20
-109.12
11
167.355
21
-109.056
0
LINE
8
BLACK
6
CONTINUOUS
10
167.355
20
-109.056
11
167.227
21
-108.991
0
LINE
8
BLACK
6
CONTINUOUS
10
167.227
20
-108.991
11
167.098
21
-108.991
0
LINE
8
BLACK
6
CONTINUOUS
10
166.133
20
-109.828
11
166.262
21
-109.892
0
LINE
8
BLACK
6
CONTINUOUS
10
166.262
20
-109.892
11
166.519
21
-109.892
0
LINE
8
BLACK
6
CONTINUOUS
10
166.519
20
-109.892
11
166.648
21
-109.828
0
LINE
8
BLACK
6
CONTINUOUS
10
166.648
20
-109.828
11
166.712
21
-109.699
0
LINE
8
BLACK
6
CONTINUOUS
10
166.712
20
-109.699
11
166.712
21
-109.184
0
LINE
8
BLACK
6
CONTINUOUS
10
166.712
20
-109.184
11
166.648
21
-109.056
0
LINE
8
BLACK
6
CONTINUOUS
10
166.648
20
-109.056
11
166.519
21
-108.991
0
LINE
8
BLACK
6
CONTINUOUS
10
166.519
20
-108.991
11
166.262
21
-108.991
0
LINE
8
BLACK
6
CONTINUOUS
10
166.262
20
-108.991
11
166.133
21
-109.056
0
LINE
8
BLACK
6
CONTINUOUS
10
166.133
20
-109.056
11
166.069
21
-109.184
0
LINE
8
BLACK
6
CONTINUOUS
10
166.069
20
-109.184
11
166.069
21
-109.313
0
LINE
8
BLACK
6
CONTINUOUS
10
166.069
20
-109.313
11
166.712
21
-109.442
0
LINE
8
BLACK
6
CONTINUOUS
10
164.91
20
-108.991
11
164.91
21
-110.343
0
LINE
8
BLACK
6
CONTINUOUS
10
164.91
20
-109.828
11
165.039
21
-109.892
0
LINE
8
BLACK
6
CONTINUOUS
10
165.039
20
-109.892
11
165.296
21
-109.892
0
LINE
8
BLACK
6
CONTINUOUS
10
165.296
20
-109.892
11
165.425
21
-109.828
0
LINE
8
BLACK
6
CONTINUOUS
10
165.425
20
-109.828
11
165.489
21
-109.764
0
LINE
8
BLACK
6
CONTINUOUS
10
165.489
20
-109.764
11
165.554
21
-109.635
0
LINE
8
BLACK
6
CONTINUOUS
10
165.554
20
-109.635
11
165.554
21
-109.249
0
LINE
8
BLACK
6
CONTINUOUS
10
165.554
20
-109.249
11
165.489
21
-109.12
0
LINE
8
BLACK
6
CONTINUOUS
10
165.489
20
-109.12
11
165.425
21
-109.056
0
LINE
8
BLACK
6
CONTINUOUS
10
165.425
20
-109.056
11
165.296
21
-108.991
0
LINE
8
BLACK
6
CONTINUOUS
10
165.296
20
-108.991
11
165.039
21
-108.991
0
LINE
8
BLACK
6
CONTINUOUS
10
165.039
20
-108.991
11
164.91
21
-109.056
0
LINE
8
BLACK
6
CONTINUOUS
10
164.267
20
-109.764
11
164.202
21
-109.828
0
LINE
8
BLACK
6
CONTINUOUS
10
164.202
20
-109.828
11
164.267
21
-109.892
0
LINE
8
BLACK
6
CONTINUOUS
10
164.267
20
-109.892
11
164.331
21
-109.828
0
LINE
8
BLACK
6
CONTINUOUS
10
164.331
20
-109.828
11
164.267
21
-109.764
0
LINE
8
BLACK
6
CONTINUOUS
10
164.267
20
-109.764
11
164.267
21
-109.892
0
LINE
8
BLACK
6
CONTINUOUS
10
163.623
20
-109.764
11
163.559
21
-109.828
0
LINE
8
BLACK
6
CONTINUOUS
10
163.559
20
-109.828
11
163.623
21
-109.892
0
LINE
8
BLACK
6
CONTINUOUS
10
163.623
20
-109.892
11
163.688
21
-109.828
0
LINE
8
BLACK
6
CONTINUOUS
10
163.688
20
-109.828
11
163.623
21
-109.764
0
LINE
8
BLACK
6
CONTINUOUS
10
163.623
20
-109.764
11
163.623
21
-109.892
0
LINE
8
BLACK
6
CONTINUOUS
10
163.623
20
-109.056
11
163.559
21
-109.12
0
LINE
8
BLACK
6
CONTINUOUS
10
163.559
20
-109.12
11
163.623
21
-109.184
0
LINE
8
BLACK
6
CONTINUOUS
10
163.623
20
-109.184
11
163.688
21
-109.12
0
LINE
8
BLACK
6
CONTINUOUS
10
163.688
20
-109.12
11
163.623
21
-109.056
0
LINE
8
BLACK
6
CONTINUOUS
10
163.623
20
-109.056
11
163.623
21
-109.184
0
LINE
8
BLACK
6
CONTINUOUS
10
160.062
20
-108.991
11
160.062
21
-109.892
0
LINE
8
BLACK
6
CONTINUOUS
10
160.384
20
-108.477
11
160.706
21
-109.442
0
LINE
8
BLACK
6
CONTINUOUS
10
160.706
20
-109.442
11
159.869
21
-109.442
0
LINE
8
BLACK
6
CONTINUOUS
10
159.097
20
-108.541
11
158.968
21
-108.541
0
LINE
8
BLACK
6
CONTINUOUS
10
158.968
20
-108.541
11
158.84
21
-108.605
0
LINE
8
BLACK
6
CONTINUOUS
10
158.84
20
-108.605
11
158.775
21
-108.67
0
LINE
8
BLACK
6
CONTINUOUS
10
158.775
20
-108.67
11
158.711
21
-108.798
0
LINE
8
BLACK
6
CONTINUOUS
10
158.711
20
-108.798
11
158.647
21
-109.056
0
LINE
8
BLACK
6
CONTINUOUS
10
158.647
20
-109.056
11
158.647
21
-109.377
0
LINE
8
BLACK
6
CONTINUOUS
10
158.647
20
-109.377
11
158.711
21
-109.635
0
LINE
8
BLACK
6
CONTINUOUS
10
158.711
20
-109.635
11
158.775
21
-109.764
0
LINE
8
BLACK
6
CONTINUOUS
10
158.775
20
-109.764
11
158.84
21
-109.828
0
LINE
8
BLACK
6
CONTINUOUS
10
158.84
20
-109.828
11
158.968
21
-109.892
0
LINE
8
BLACK
6
CONTINUOUS
10
158.968
20
-109.892
11
159.097
21
-109.892
0
LINE
8
BLACK
6
CONTINUOUS
10
159.097
20
-109.892
11
159.226
21
-109.828
0
LINE
8
BLACK
6
CONTINUOUS
10
159.226
20
-109.828
11
159.29
21
-109.764
0
LINE
8
BLACK
6
CONTINUOUS
10
159.29
20
-109.764
11
159.354
21
-109.635
0
LINE
8
BLACK
6
CONTINUOUS
10
159.354
20
-109.635
11
159.419
21
-109.377
0
LINE
8
BLACK
6
CONTINUOUS
10
159.419
20
-109.377
11
159.419
21
-109.056
0
LINE
8
BLACK
6
CONTINUOUS
10
159.419
20
-109.056
11
159.354
21
-108.798
0
LINE
8
BLACK
6
CONTINUOUS
10
159.354
20
-108.798
11
159.29
21
-108.67
0
LINE
8
BLACK
6
CONTINUOUS
10
159.29
20
-108.67
11
159.226
21
-108.605
0
LINE
8
BLACK
6
CONTINUOUS
10
159.226
20
-108.605
11
159.097
21
-108.541
0
LINE
8
BLACK
6
CONTINUOUS
10
158.068
20
-109.377
11
157.038
21
-109.377
0
LINE
8
BLACK
6
CONTINUOUS
10
155.687
20
-109.892
11
156.459
21
-109.892
0
LINE
8
BLACK
6
CONTINUOUS
10
156.073
20
-109.892
11
156.073
21
-108.541
0
LINE
8
BLACK
6
CONTINUOUS
10
156.073
20
-108.541
11
156.201
21
-108.734
0
LINE
8
BLACK
6
CONTINUOUS
10
156.201
20
-108.734
11
156.33
21
-108.863
0
LINE
8
BLACK
6
CONTINUOUS
10
156.33
20
-108.863
11
156.459
21
-108.927
0
LINE
8
BLACK
6
CONTINUOUS
10
154.85
20
-108.541
11
154.722
21
-108.541
0
LINE
8
BLACK
6
CONTINUOUS
10
154.722
20
-108.541
11
154.593
21
-108.605
0
LINE
8
BLACK
6
CONTINUOUS
10
154.593
20
-108.605
11
154.528
21
-108.67
0
LINE
8
BLACK
6
CONTINUOUS
10
154.528
20
-108.67
11
154.464
21
-108.798
0
LINE
8
BLACK
6
CONTINUOUS
10
154.464
20
-108.798
11
154.4
21
-109.056
0
LINE
8
BLACK
6
CONTINUOUS
10
154.4
20
-109.056
11
154.4
21
-109.377
0
LINE
8
BLACK
6
CONTINUOUS
10
154.4
20
-109.377
11
154.464
21
-109.635
0
LINE
8
BLACK
6
CONTINUOUS
10
154.464
20
-109.635
11
154.528
21
-109.764
0
LINE
8
BLACK
6
CONTINUOUS
10
154.528
20
-109.764
11
154.593
21
-109.828
0
LINE
8
BLACK
6
CONTINUOUS
10
154.593
20
-109.828
11
154.722
21
-109.892
0
LINE
8
BLACK
6
CONTINUOUS
10
154.722
20
-109.892
11
154.85
21
-109.892
0
LINE
8
BLACK
6
CONTINUOUS
10
154.85
20
-109.892
11
154.979
21
-109.828
0
LINE
8
BLACK
6
CONTINUOUS
10
154.979
20
-109.828
11
155.043
21
-109.764
0
LINE
8
BLACK
6
CONTINUOUS
10
155.043
20
-109.764
11
155.108
21
-109.635
0
LINE
8
BLACK
6
CONTINUOUS
10
155.108
20
-109.635
11
155.172
21
-109.377
0
LINE
8
BLACK
6
CONTINUOUS
10
155.172
20
-109.377
11
155.172
21
-109.056
0
LINE
8
BLACK
6
CONTINUOUS
10
155.172
20
-109.056
11
155.108
21
-108.798
0
LINE
8
BLACK
6
CONTINUOUS
10
155.108
20
-108.798
11
155.043
21
-108.67
0
LINE
8
BLACK
6
CONTINUOUS
10
155.043
20
-108.67
11
154.979
21
-108.605
0
LINE
8
BLACK
6
CONTINUOUS
10
154.979
20
-108.605
11
154.85
21
-108.541
0
LINE
8
BLACK
6
CONTINUOUS
10
153.563
20
-108.541
11
153.435
21
-108.541
0
LINE
8
BLACK
6
CONTINUOUS
10
153.435
20
-108.541
11
153.306
21
-108.605
0
LINE
8
BLACK
6
CONTINUOUS
10
153.306
20
-108.605
11
153.242
21
-108.67
0
LINE
8
BLACK
6
CONTINUOUS
10
153.242
20
-108.67
11
153.177
21
-108.798
0
LINE
8
BLACK
6
CONTINUOUS
10
153.177
20
-108.798
11
153.113
21
-109.056
0
LINE
8
BLACK
6
CONTINUOUS
10
153.113
20
-109.056
11
153.113
21
-109.377
0
LINE
8
BLACK
6
CONTINUOUS
10
153.113
20
-109.377
11
153.177
21
-109.635
0
LINE
8
BLACK
6
CONTINUOUS
10
153.177
20
-109.635
11
153.242
21
-109.764
0
LINE
8
BLACK
6
CONTINUOUS
10
153.242
20
-109.764
11
153.306
21
-109.828
0
LINE
8
BLACK
6
CONTINUOUS
10
153.306
20
-109.828
11
153.435
21
-109.892
0
LINE
8
BLACK
6
CONTINUOUS
10
153.435
20
-109.892
11
153.563
21
-109.892
0
LINE
8
BLACK
6
CONTINUOUS
10
153.563
20
-109.892
11
153.692
21
-109.828
0
LINE
8
BLACK
6
CONTINUOUS
10
153.692
20
-109.828
11
153.756
21
-109.764
0
LINE
8
BLACK
6
CONTINUOUS
10
153.756
20
-109.764
11
153.821
21
-109.635
0
LINE
8
BLACK
6
CONTINUOUS
10
153.821
20
-109.635
11
153.885
21
-109.377
0
LINE
8
BLACK
6
CONTINUOUS
10
153.885
20
-109.377
11
153.885
21
-109.056
0
LINE
8
BLACK
6
CONTINUOUS
10
153.885
20
-109.056
11
153.821
21
-108.798
0
LINE
8
BLACK
6
CONTINUOUS
10
153.821
20
-108.798
11
153.756
21
-108.67
0
LINE
8
BLACK
6
CONTINUOUS
10
153.756
20
-108.67
11
153.692
21
-108.605
0
LINE
8
BLACK
6
CONTINUOUS
10
153.692
20
-108.605
11
153.563
21
-108.541
0
LINE
8
BLACK
6
CONTINUOUS
10
152.276
20
-108.541
11
152.148
21
-108.541
0
LINE
8
BLACK
6
CONTINUOUS
10
152.148
20
-108.541
11
152.019
21
-108.605
0
LINE
8
BLACK
6
CONTINUOUS
10
152.019
20
-108.605
11
151.955
21
-108.67
0
LINE
8
BLACK
6
CONTINUOUS
10
151.955
20
-108.67
11
151.89
21
-108.798
0
LINE
8
BLACK
6
CONTINUOUS
10
151.89
20
-108.798
11
151.826
21
-109.056
0
LINE
8
BLACK
6
CONTINUOUS
10
151.826
20
-109.056
11
151.826
21
-109.377
0
LINE
8
BLACK
6
CONTINUOUS
10
151.826
20
-109.377
11
151.89
21
-109.635
0
LINE
8
BLACK
6
CONTINUOUS
10
151.89
20
-109.635
11
151.955
21
-109.764
0
LINE
8
BLACK
6
CONTINUOUS
10
151.955
20
-109.764
11
152.019
21
-109.828
0
LINE
8
BLACK
6
CONTINUOUS
10
152.019
20
-109.828
11
152.148
21
-109.892
0
LINE
8
BLACK
6
CONTINUOUS
10
152.148
20
-109.892
11
152.276
21
-109.892
0
LINE
8
BLACK
6
CONTINUOUS
10
152.276
20
-109.892
11
152.405
21
-109.828
0
LINE
8
BLACK
6
CONTINUOUS
10
152.405
20
-109.828
11
152.469
21
-109.764
0
LINE
8
BLACK
6
CONTINUOUS
10
152.469
20
-109.764
11
152.534
21
-109.635
0
LINE
8
BLACK
6
CONTINUOUS
10
152.534
20
-109.635
11
152.598
21
-109.377
0
LINE
8
BLACK
6
CONTINUOUS
10
152.598
20
-109.377
11
152.598
21
-109.056
0
LINE
8
BLACK
6
CONTINUOUS
10
152.598
20
-109.056
11
152.534
21
-108.798
0
LINE
8
BLACK
6
CONTINUOUS
10
152.534
20
-108.798
11
152.469
21
-108.67
0
LINE
8
BLACK
6
CONTINUOUS
10
152.469
20
-108.67
11
152.405
21
-108.605
0
LINE
8
BLACK
6
CONTINUOUS
10
152.405
20
-108.605
11
152.276
21
-108.541
0
LINE
8
BLACK
6
CONTINUOUS
10
151.247
20
-109.892
11
151.247
21
-108.541
0
LINE
8
BLACK
6
CONTINUOUS
10
151.247
20
-109.184
11
150.475
21
-109.184
0
LINE
8
BLACK
6
CONTINUOUS
10
150.475
20
-109.892
11
150.475
21
-108.541
0
LINE
8
BLACK
6
CONTINUOUS
10
149.96
20
-108.991
11
149.252
21
-108.991
0
LINE
8
BLACK
6
CONTINUOUS
10
149.252
20
-108.991
11
149.96
21
-109.892
0
LINE
8
BLACK
6
CONTINUOUS
10
149.96
20
-109.892
11
149.252
21
-109.892
0
LINE
8
BLACK
6
CONTINUOUS
10
163.721
20
-99.0109
11
164.493
21
-99.0109
0
LINE
8
BLACK
6
CONTINUOUS
10
164.107
20
-99.0109
11
164.107
21
-97.6596
0
LINE
8
BLACK
6
CONTINUOUS
10
164.107
20
-97.6596
11
164.236
21
-97.8527
0
LINE
8
BLACK
6
CONTINUOUS
10
164.236
20
-97.8527
11
164.364
21
-97.9813
0
LINE
8
BLACK
6
CONTINUOUS
10
164.364
20
-97.9813
11
164.493
21
-98.0457
0
LINE
8
BLACK
6
CONTINUOUS
10
162.563
20
-97.6596
11
162.82
21
-97.6596
0
LINE
8
BLACK
6
CONTINUOUS
10
162.82
20
-97.6596
11
162.949
21
-97.724
0
LINE
8
BLACK
6
CONTINUOUS
10
162.949
20
-97.724
11
163.013
21
-97.7883
0
LINE
8
BLACK
6
CONTINUOUS
10
163.013
20
-97.7883
11
163.142
21
-97.9813
0
LINE
8
BLACK
6
CONTINUOUS
10
163.142
20
-97.9813
11
163.206
21
-98.2387
0
LINE
8
BLACK
6
CONTINUOUS
10
163.206
20
-98.2387
11
163.206
21
-98.7535
0
LINE
8
BLACK
6
CONTINUOUS
10
163.206
20
-98.7535
11
163.142
21
-98.8822
0
LINE
8
BLACK
6
CONTINUOUS
10
163.142
20
-98.8822
11
163.077
21
-98.9465
0
LINE
8
BLACK
6
CONTINUOUS
10
163.077
20
-98.9465
11
162.949
21
-99.0109
0
LINE
8
BLACK
6
CONTINUOUS
10
162.949
20
-99.0109
11
162.691
21
-99.0109
0
LINE
8
BLACK
6
CONTINUOUS
10
162.691
20
-99.0109
11
162.563
21
-98.9465
0
LINE
8
BLACK
6
CONTINUOUS
10
162.563
20
-98.9465
11
162.498
21
-98.8822
0
LINE
8
BLACK
6
CONTINUOUS
10
162.498
20
-98.8822
11
162.434
21
-98.7535
0
LINE
8
BLACK
6
CONTINUOUS
10
162.434
20
-98.7535
11
162.434
21
-98.4318
0
LINE
8
BLACK
6
CONTINUOUS
10
162.434
20
-98.4318
11
162.498
21
-98.3031
0
LINE
8
BLACK
6
CONTINUOUS
10
162.498
20
-98.3031
11
162.563
21
-98.2387
0
LINE
8
BLACK
6
CONTINUOUS
10
162.563
20
-98.2387
11
162.691
21
-98.1744
0
LINE
8
BLACK
6
CONTINUOUS
10
162.691
20
-98.1744
11
162.949
21
-98.1744
0
LINE
8
BLACK
6
CONTINUOUS
10
162.949
20
-98.1744
11
163.077
21
-98.2387
0
LINE
8
BLACK
6
CONTINUOUS
10
163.077
20
-98.2387
11
163.142
21
-98.3031
0
LINE
8
BLACK
6
CONTINUOUS
10
163.142
20
-98.3031
11
163.206
21
-98.4318
0
LINE
8
BLACK
6
CONTINUOUS
10
161.855
20
-98.4961
11
160.825
21
-98.4961
0
LINE
8
BLACK
6
CONTINUOUS
10
159.41
20
-98.8822
11
159.474
21
-98.9465
0
LINE
8
BLACK
6
CONTINUOUS
10
159.474
20
-98.9465
11
159.667
21
-99.0109
0
LINE
8
BLACK
6
CONTINUOUS
10
159.667
20
-99.0109
11
159.796
21
-99.0109
0
LINE
8
BLACK
6
CONTINUOUS
10
159.796
20
-99.0109
11
159.989
21
-98.9465
0
LINE
8
BLACK
6
CONTINUOUS
10
159.989
20
-98.9465
11
160.117
21
-98.8179
0
LINE
8
BLACK
6
CONTINUOUS
10
160.117
20
-98.8179
11
160.182
21
-98.6892
0
LINE
8
BLACK
6
CONTINUOUS
10
160.182
20
-98.6892
11
160.246
21
-98.4318
0
LINE
8
BLACK
6
CONTINUOUS
10
160.246
20
-98.4318
11
160.246
21
-98.2387
0
LINE
8
BLACK
6
CONTINUOUS
10
160.246
20
-98.2387
11
160.182
21
-97.9813
0
LINE
8
BLACK
6
CONTINUOUS
10
160.182
20
-97.9813
11
160.117
21
-97.8527
0
LINE
8
BLACK
6
CONTINUOUS
10
160.117
20
-97.8527
11
159.989
21
-97.724
0
LINE
8
BLACK
6
CONTINUOUS
10
159.989
20
-97.724
11
159.796
21
-97.6596
0
LINE
8
BLACK
6
CONTINUOUS
10
159.796
20
-97.6596
11
159.667
21
-97.6596
0
LINE
8
BLACK
6
CONTINUOUS
10
159.667
20
-97.6596
11
159.474
21
-97.724
0
LINE
8
BLACK
6
CONTINUOUS
10
159.474
20
-97.724
11
159.41
21
-97.7883
0
LINE
8
BLACK
6
CONTINUOUS
10
158.83
20
-99.0109
11
158.83
21
-97.6596
0
LINE
8
BLACK
6
CONTINUOUS
10
158.251
20
-99.0109
11
158.251
21
-98.3031
0
LINE
8
BLACK
6
CONTINUOUS
10
158.251
20
-98.3031
11
158.316
21
-98.1744
0
LINE
8
BLACK
6
CONTINUOUS
10
158.316
20
-98.1744
11
158.444
21
-98.11
0
LINE
8
BLACK
6
CONTINUOUS
10
158.444
20
-98.11
11
158.637
21
-98.11
0
LINE
8
BLACK
6
CONTINUOUS
10
158.637
20
-98.11
11
158.766
21
-98.1744
0
LINE
8
BLACK
6
CONTINUOUS
10
158.766
20
-98.1744
11
158.83
21
-98.2387
0
LINE
8
BLACK
6
CONTINUOUS
10
157.029
20
-99.0109
11
157.029
21
-98.3031
0
LINE
8
BLACK
6
CONTINUOUS
10
157.029
20
-98.3031
11
157.093
21
-98.1744
0
LINE
8
BLACK
6
CONTINUOUS
10
157.093
20
-98.1744
11
157.222
21
-98.11
0
LINE
8
BLACK
6
CONTINUOUS
10
157.222
20
-98.11
11
157.479
21
-98.11
0
LINE
8
BLACK
6
CONTINUOUS
10
157.479
20
-98.11
11
157.608
21
-98.1744
0
LINE
8
BLACK
6
CONTINUOUS
10
157.029
20
-98.9465
11
157.157
21
-99.0109
0
LINE
8
BLACK
6
CONTINUOUS
10
157.157
20
-99.0109
11
157.479
21
-99.0109
0
LINE
8
BLACK
6
CONTINUOUS
10
157.479
20
-99.0109
11
157.608
21
-98.9465
0
LINE
8
BLACK
6
CONTINUOUS
10
157.608
20
-98.9465
11
157.672
21
-98.8179
0
LINE
8
BLACK
6
CONTINUOUS
10
157.672
20
-98.8179
11
157.672
21
-98.6892
0
LINE
8
BLACK
6
CONTINUOUS
10
157.672
20
-98.6892
11
157.608
21
-98.5605
0
LINE
8
BLACK
6
CONTINUOUS
10
157.608
20
-98.5605
11
157.479
21
-98.4961
0
LINE
8
BLACK
6
CONTINUOUS
10
157.479
20
-98.4961
11
157.157
21
-98.4961
0
LINE
8
BLACK
6
CONTINUOUS
10
157.157
20
-98.4961
11
157.029
21
-98.4318
0
LINE
8
BLACK
6
CONTINUOUS
10
156.385
20
-98.11
11
156.385
21
-99.0109
0
LINE
8
BLACK
6
CONTINUOUS
10
156.385
20
-98.2387
11
156.321
21
-98.1744
0
LINE
8
BLACK
6
CONTINUOUS
10
156.321
20
-98.1744
11
156.192
21
-98.11
0
LINE
8
BLACK
6
CONTINUOUS
10
156.192
20
-98.11
11
155.999
21
-98.11
0
LINE
8
BLACK
6
CONTINUOUS
10
155.999
20
-98.11
11
155.87
21
-98.1744
0
LINE
8
BLACK
6
CONTINUOUS
10
155.87
20
-98.1744
11
155.806
21
-98.3031
0
LINE
8
BLACK
6
CONTINUOUS
10
155.806
20
-98.3031
11
155.806
21
-99.0109
0
LINE
8
BLACK
6
CONTINUOUS
10
155.163
20
-98.11
11
155.163
21
-99.0109
0
LINE
8
BLACK
6
CONTINUOUS
10
155.163
20
-98.2387
11
155.098
21
-98.1744
0
LINE
8
BLACK
6
CONTINUOUS
10
155.098
20
-98.1744
11
154.97
21
-98.11
0
LINE
8
BLACK
6
CONTINUOUS
10
154.97
20
-98.11
11
154.777
21
-98.11
0
LINE
8
BLACK
6
CONTINUOUS
10
154.777
20
-98.11
11
154.648
21
-98.1744
0
LINE
8
BLACK
6
CONTINUOUS
10
154.648
20
-98.1744
11
154.584
21
-98.3031
0
LINE
8
BLACK
6
CONTINUOUS
10
154.584
20
-98.3031
11
154.584
21
-99.0109
0
LINE
8
BLACK
6
CONTINUOUS
10
153.425
20
-98.9465
11
153.554
21
-99.0109
0
LINE
8
BLACK
6
CONTINUOUS
10
153.554
20
-99.0109
11
153.811
21
-99.0109
0
LINE
8
BLACK
6
CONTINUOUS
10
153.811
20
-99.0109
11
153.94
21
-98.9465
0
LINE
8
BLACK
6
CONTINUOUS
10
153.94
20
-98.9465
11
154.004
21
-98.8179
0
LINE
8
BLACK
6
CONTINUOUS
10
154.004
20
-98.8179
11
154.004
21
-98.3031
0
LINE
8
BLACK
6
CONTINUOUS
10
154.004
20
-98.3031
11
153.94
21
-98.1744
0
LINE
8
BLACK
6
CONTINUOUS
10
153.94
20
-98.1744
11
153.811
21
-98.11
0
LINE
8
BLACK
6
CONTINUOUS
10
153.811
20
-98.11
11
153.554
21
-98.11
0
LINE
8
BLACK
6
CONTINUOUS
10
153.554
20
-98.11
11
153.425
21
-98.1744
0
LINE
8
BLACK
6
CONTINUOUS
10
153.425
20
-98.1744
11
153.361
21
-98.3031
0
LINE
8
BLACK
6
CONTINUOUS
10
153.361
20
-98.3031
11
153.361
21
-98.4318
0
LINE
8
BLACK
6
CONTINUOUS
10
153.361
20
-98.4318
11
154.004
21
-98.5605
0
LINE
8
BLACK
6
CONTINUOUS
10
152.589
20
-99.0109
11
152.717
21
-98.9465
0
LINE
8
BLACK
6
CONTINUOUS
10
152.717
20
-98.9465
11
152.782
21
-98.8179
0
LINE
8
BLACK
6
CONTINUOUS
10
152.782
20
-98.8179
11
152.782
21
-97.6596
0
LINE
8
BLACK
6
CONTINUOUS
10
150.337
20
-99.0109
11
151.109
21
-99.0109
0
LINE
8
BLACK
6
CONTINUOUS
10
150.723
20
-99.0109
11
150.723
21
-97.6596
0
LINE
8
BLACK
6
CONTINUOUS
10
150.723
20
-97.6596
11
150.851
21
-97.8527
0
LINE
8
BLACK
6
CONTINUOUS
10
150.851
20
-97.8527
11
150.98
21
-97.9813
0
LINE
8
BLACK
6
CONTINUOUS
10
150.98
20
-97.9813
11
151.109
21
-98.0457
0
LINE
8
BLACK
6
CONTINUOUS
10
149.822
20
-97.7883
11
149.758
21
-97.724
0
LINE
8
BLACK
6
CONTINUOUS
10
149.758
20
-97.724
11
149.629
21
-97.6596
0
LINE
8
BLACK
6
CONTINUOUS
10
149.629
20
-97.6596
11
149.307
21
-97.6596
0
LINE
8
BLACK
6
CONTINUOUS
10
149.307
20
-97.6596
11
149.178
21
-97.724
0
LINE
8
BLACK
6
CONTINUOUS
10
149.178
20
-97.724
11
149.114
21
-97.7883
0
LINE
8
BLACK
6
CONTINUOUS
10
149.114
20
-97.7883
11
149.05
21
-97.917
0
LINE
8
BLACK
6
CONTINUOUS
10
149.05
20
-97.917
11
149.05
21
-98.0457
0
LINE
8
BLACK
6
CONTINUOUS
10
149.05
20
-98.0457
11
149.114
21
-98.2387
0
LINE
8
BLACK
6
CONTINUOUS
10
149.114
20
-98.2387
11
149.886
21
-99.0109
0
LINE
8
BLACK
6
CONTINUOUS
10
149.886
20
-99.0109
11
149.05
21
-99.0109
0
LINE
8
BLACK
6
CONTINUOUS
10
148.471
20
-98.4961
11
147.441
21
-98.4961
0
LINE
8
BLACK
6
CONTINUOUS
10
146.347
20
-98.3031
11
146.154
21
-98.3674
0
LINE
8
BLACK
6
CONTINUOUS
10
146.154
20
-98.3674
11
146.09
21
-98.4318
0
LINE
8
BLACK
6
CONTINUOUS
10
146.09
20
-98.4318
11
146.025
21
-98.5605
0
LINE
8
BLACK
6
CONTINUOUS
10
146.025
20
-98.5605
11
146.025
21
-98.7535
0
LINE
8
BLACK
6
CONTINUOUS
10
146.025
20
-98.7535
11
146.09
21
-98.8822
0
LINE
8
BLACK
6
CONTINUOUS
10
146.09
20
-98.8822
11
146.154
21
-98.9465
0
LINE
8
BLACK
6
CONTINUOUS
10
146.154
20
-98.9465
11
146.283
21
-99.0109
0
LINE
8
BLACK
6
CONTINUOUS
10
146.283
20
-99.0109
11
146.798
21
-99.0109
0
LINE
8
BLACK
6
CONTINUOUS
10
146.798
20
-99.0109
11
146.798
21
-97.6596
0
LINE
8
BLACK
6
CONTINUOUS
10
146.798
20
-97.6596
11
146.347
21
-97.6596
0
LINE
8
BLACK
6
CONTINUOUS
10
146.347
20
-97.6596
11
146.218
21
-97.724
0
LINE
8
BLACK
6
CONTINUOUS
10
146.218
20
-97.724
11
146.154
21
-97.7883
0
LINE
8
BLACK
6
CONTINUOUS
10
146.154
20
-97.7883
11
146.09
21
-97.917
0
LINE
8
BLACK
6
CONTINUOUS
10
146.09
20
-97.917
11
146.09
21
-98.0457
0
LINE
8
BLACK
6
CONTINUOUS
10
146.09
20
-98.0457
11
146.154
21
-98.1744
0
LINE
8
BLACK
6
CONTINUOUS
10
146.154
20
-98.1744
11
146.218
21
-98.2387
0
LINE
8
BLACK
6
CONTINUOUS
10
146.218
20
-98.2387
11
146.347
21
-98.3031
0
LINE
8
BLACK
6
CONTINUOUS
10
146.347
20
-98.3031
11
146.798
21
-98.3031
0
LINE
8
BLACK
6
CONTINUOUS
10
145.446
20
-99.0109
11
145.446
21
-98.11
0
LINE
8
BLACK
6
CONTINUOUS
10
145.446
20
-97.6596
11
145.511
21
-97.724
0
LINE
8
BLACK
6
CONTINUOUS
10
145.511
20
-97.724
11
145.446
21
-97.7883
0
LINE
8
BLACK
6
CONTINUOUS
10
145.446
20
-97.7883
11
145.382
21
-97.724
0
LINE
8
BLACK
6
CONTINUOUS
10
145.382
20
-97.724
11
145.446
21
-97.6596
0
LINE
8
BLACK
6
CONTINUOUS
10
145.446
20
-97.6596
11
145.446
21
-97.7883
0
LINE
8
BLACK
6
CONTINUOUS
10
144.996
20
-98.11
11
144.481
21
-98.11
0
LINE
8
BLACK
6
CONTINUOUS
10
144.803
20
-97.6596
11
144.803
21
-98.8179
0
LINE
8
BLACK
6
CONTINUOUS
10
144.803
20
-98.8179
11
144.739
21
-98.9465
0
LINE
8
BLACK
6
CONTINUOUS
10
144.739
20
-98.9465
11
144.61
21
-99.0109
0
LINE
8
BLACK
6
CONTINUOUS
10
144.61
20
-99.0109
11
144.481
21
-99.0109
0
LINE
8
BLACK
6
CONTINUOUS
10
143.001
20
-99.0109
11
143.001
21
-97.6596
0
LINE
8
BLACK
6
CONTINUOUS
10
143.001
20
-97.6596
11
142.486
21
-97.6596
0
LINE
8
BLACK
6
CONTINUOUS
10
142.486
20
-97.6596
11
142.358
21
-97.724
0
LINE
8
BLACK
6
CONTINUOUS
10
142.358
20
-97.724
11
142.293
21
-97.7883
0
LINE
8
BLACK
6
CONTINUOUS
10
142.293
20
-97.7883
11
142.229
21
-97.917
0
LINE
8
BLACK
6
CONTINUOUS
10
142.229
20
-97.917
11
142.229
21
-98.11
0
LINE
8
BLACK
6
CONTINUOUS
10
142.229
20
-98.11
11
142.293
21
-98.2387
0
LINE
8
BLACK
6
CONTINUOUS
10
142.293
20
-98.2387
11
142.358
21
-98.3031
0
LINE
8
BLACK
6
CONTINUOUS
10
142.358
20
-98.3031
11
142.486
21
-98.3674
0
LINE
8
BLACK
6
CONTINUOUS
10
142.486
20
-98.3674
11
143.001
21
-98.3674
0
LINE
8
BLACK
6
CONTINUOUS
10
141.779
20
-97.6596
11
141.457
21
-99.0109
0
LINE
8
BLACK
6
CONTINUOUS
10
141.457
20
-99.0109
11
141.199
21
-98.0457
0
LINE
8
BLACK
6
CONTINUOUS
10
141.199
20
-98.0457
11
140.942
21
-99.0109
0
LINE
8
BLACK
6
CONTINUOUS
10
140.942
20
-99.0109
11
140.62
21
-97.6596
0
LINE
8
BLACK
6
CONTINUOUS
10
140.106
20
-99.0109
11
140.106
21
-97.6596
0
LINE
8
BLACK
6
CONTINUOUS
10
140.106
20
-97.6596
11
139.655
21
-98.6248
0
LINE
8
BLACK
6
CONTINUOUS
10
139.655
20
-98.6248
11
139.205
21
-97.6596
0
LINE
8
BLACK
6
CONTINUOUS
10
139.205
20
-97.6596
11
139.205
21
-99.0109
0
LINE
8
BLACK
6
CONTINUOUS
10
137.532
20
-99.0109
11
137.532
21
-97.6596
0
LINE
8
BLACK
6
CONTINUOUS
10
137.532
20
-97.6596
11
137.21
21
-97.6596
0
LINE
8
BLACK
6
CONTINUOUS
10
137.21
20
-97.6596
11
137.017
21
-97.724
0
LINE
8
BLACK
6
CONTINUOUS
10
137.017
20
-97.724
11
136.888
21
-97.8527
0
LINE
8
BLACK
6
CONTINUOUS
10
136.888
20
-97.8527
11
136.824
21
-97.9813
0
LINE
8
BLACK
6
CONTINUOUS
10
136.824
20
-97.9813
11
136.76
21
-98.2387
0
LINE
8
BLACK
6
CONTINUOUS
10
136.76
20
-98.2387
11
136.76
21
-98.4318
0
LINE
8
BLACK
6
CONTINUOUS
10
136.76
20
-98.4318
11
136.824
21
-98.6892
0
LINE
8
BLACK
6
CONTINUOUS
10
136.824
20
-98.6892
11
136.888
21
-98.8179
0
LINE
8
BLACK
6
CONTINUOUS
10
136.888
20
-98.8179
11
137.017
21
-98.9465
0
LINE
8
BLACK
6
CONTINUOUS
10
137.017
20
-98.9465
11
137.21
21
-99.0109
0
LINE
8
BLACK
6
CONTINUOUS
10
137.21
20
-99.0109
11
137.532
21
-99.0109
0
LINE
8
BLACK
6
CONTINUOUS
10
136.18
20
-99.0109
11
136.18
21
-98.11
0
LINE
8
BLACK
6
CONTINUOUS
10
136.18
20
-98.3674
11
136.116
21
-98.2387
0
LINE
8
BLACK
6
CONTINUOUS
10
136.116
20
-98.2387
11
136.052
21
-98.1744
0
LINE
8
BLACK
6
CONTINUOUS
10
136.052
20
-98.1744
11
135.923
21
-98.11
0
LINE
8
BLACK
6
CONTINUOUS
10
135.923
20
-98.11
11
135.794
21
-98.11
0
LINE
8
BLACK
6
CONTINUOUS
10
135.344
20
-99.0109
11
135.344
21
-98.11
0
LINE
8
BLACK
6
CONTINUOUS
10
135.344
20
-97.6596
11
135.408
21
-97.724
0
LINE
8
BLACK
6
CONTINUOUS
10
135.408
20
-97.724
11
135.344
21
-97.7883
0
LINE
8
BLACK
6
CONTINUOUS
10
135.344
20
-97.7883
11
135.28
21
-97.724
0
LINE
8
BLACK
6
CONTINUOUS
10
135.28
20
-97.724
11
135.344
21
-97.6596
0
LINE
8
BLACK
6
CONTINUOUS
10
135.344
20
-97.6596
11
135.344
21
-97.7883
0
LINE
8
BLACK
6
CONTINUOUS
10
134.829
20
-98.11
11
134.507
21
-99.0109
0
LINE
8
BLACK
6
CONTINUOUS
10
134.507
20
-99.0109
11
134.186
21
-98.11
0
LINE
8
BLACK
6
CONTINUOUS
10
133.156
20
-98.9465
11
133.285
21
-99.0109
0
LINE
8
BLACK
6
CONTINUOUS
10
133.285
20
-99.0109
11
133.542
21
-99.0109
0
LINE
8
BLACK
6
CONTINUOUS
10
133.542
20
-99.0109
11
133.671
21
-98.9465
0
LINE
8
BLACK
6
CONTINUOUS
10
133.671
20
-98.9465
11
133.735
21
-98.8179
0
LINE
8
BLACK
6
CONTINUOUS
10
133.735
20
-98.8179
11
133.735
21
-98.3031
0
LINE
8
BLACK
6
CONTINUOUS
10
133.735
20
-98.3031
11
133.671
21
-98.1744
0
LINE
8
BLACK
6
CONTINUOUS
10
133.671
20
-98.1744
11
133.542
21
-98.11
0
LINE
8
BLACK
6
CONTINUOUS
10
133.542
20
-98.11
11
133.285
21
-98.11
0
LINE
8
BLACK
6
CONTINUOUS
10
133.285
20
-98.11
11
133.156
21
-98.1744
0
LINE
8
BLACK
6
CONTINUOUS
10
133.156
20
-98.1744
11
133.092
21
-98.3031
0
LINE
8
BLACK
6
CONTINUOUS
10
133.092
20
-98.3031
11
133.092
21
-98.4318
0
LINE
8
BLACK
6
CONTINUOUS
10
133.092
20
-98.4318
11
133.735
21
-98.5605
0
LINE
8
BLACK
6
CONTINUOUS
10
132.513
20
-99.0109
11
132.513
21
-98.11
0
LINE
8
BLACK
6
CONTINUOUS
10
132.513
20
-98.3674
11
132.448
21
-98.2387
0
LINE
8
BLACK
6
CONTINUOUS
10
132.448
20
-98.2387
11
132.384
21
-98.1744
0
LINE
8
BLACK
6
CONTINUOUS
10
132.384
20
-98.1744
11
132.255
21
-98.11
0
LINE
8
BLACK
6
CONTINUOUS
10
132.255
20
-98.11
11
132.127
21
-98.11
0
CIRCLE
8
BLACK
10
158.28
20
-94.5896
40
0.7
0
CIRCLE
8
BLACK
10
160.82
20
-94.5896
40
0.7
0
CIRCLE
8
BLACK
10
163.36
20
-94.5896
40
0.7
0
CIRCLE
8
BLACK
10
165.9
20
-94.5896
40
0.7
0
CIRCLE
8
BLACK
10
168.44
20
-94.5896
40
0.7
0
CIRCLE
8
BLACK
10
170.98
20
-94.5896
40
0.7
  0
ENDSEC
  0
EOF
