G04 #@! TF.GenerationSoftware,KiCad,Pcbnew,(5.0.2)-1*
G04 #@! TF.CreationDate,2019-01-24T16:58:19-05:00*
G04 #@! TF.ProjectId,TrapologyKicad,54726170-6f6c-46f6-9779-4b696361642e,rev?*
G04 #@! TF.SameCoordinates,Original*
G04 #@! TF.FileFunction,Copper,L2,Bot*
G04 #@! TF.FilePolarity,Positive*
%FSLAX46Y46*%
G04 Gerber Fmt 4.6, Leading zero omitted, Abs format (unit mm)*
G04 Created by KiCad (PCBNEW (5.0.2)-1) date 1/24/2019 4:58:19 PM*
%MOMM*%
%LPD*%
G01*
G04 APERTURE LIST*
G04 #@! TA.AperFunction,ComponentPad*
%ADD10O,2.000000X1.905000*%
G04 #@! TD*
G04 #@! TA.AperFunction,ComponentPad*
%ADD11R,2.000000X1.905000*%
G04 #@! TD*
G04 #@! TA.AperFunction,ComponentPad*
%ADD12C,1.600000*%
G04 #@! TD*
G04 #@! TA.AperFunction,ComponentPad*
%ADD13R,1.600000X1.600000*%
G04 #@! TD*
G04 #@! TA.AperFunction,ComponentPad*
%ADD14C,1.524000*%
G04 #@! TD*
G04 #@! TA.AperFunction,ComponentPad*
%ADD15R,1.700000X1.700000*%
G04 #@! TD*
G04 #@! TA.AperFunction,ComponentPad*
%ADD16O,1.700000X1.700000*%
G04 #@! TD*
G04 #@! TA.AperFunction,ComponentPad*
%ADD17O,1.980000X3.960000*%
G04 #@! TD*
G04 #@! TA.AperFunction,ComponentPad*
%ADD18R,1.980000X3.960000*%
G04 #@! TD*
G04 #@! TA.AperFunction,ComponentPad*
%ADD19O,2.400000X2.400000*%
G04 #@! TD*
G04 #@! TA.AperFunction,ComponentPad*
%ADD20C,2.400000*%
G04 #@! TD*
G04 #@! TA.AperFunction,ComponentPad*
%ADD21O,1.905000X2.000000*%
G04 #@! TD*
G04 #@! TA.AperFunction,ComponentPad*
%ADD22R,1.905000X2.000000*%
G04 #@! TD*
G04 #@! TA.AperFunction,ViaPad*
%ADD23C,0.800000*%
G04 #@! TD*
G04 #@! TA.AperFunction,Conductor*
%ADD24C,0.250000*%
G04 #@! TD*
G04 APERTURE END LIST*
D10*
G04 #@! TO.P,Q1,3*
G04 #@! TO.N,GND*
X38100000Y-106680000D03*
G04 #@! TO.P,Q1,2*
G04 #@! TO.N,Net-(Q1-Pad2)*
X38100000Y-109220000D03*
D11*
G04 #@! TO.P,Q1,1*
G04 #@! TO.N,BTNREDLIGHT*
X38100000Y-111760000D03*
G04 #@! TD*
D12*
G04 #@! TO.P,U1,17*
G04 #@! TO.N,OUTERHALL*
X95250000Y-104140000D03*
G04 #@! TO.P,U1,18*
G04 #@! TO.N,BTNDIALLIGHT*
X95250000Y-106680000D03*
G04 #@! TO.P,U1,19*
G04 #@! TO.N,BTNDIAL*
X95250000Y-109220000D03*
G04 #@! TO.P,U1,20*
G04 #@! TO.N,RFID4*
X95250000Y-111760000D03*
G04 #@! TO.P,U1,16*
G04 #@! TO.N,MIDHALL*
X95250000Y-101600000D03*
G04 #@! TO.P,U1,15*
G04 #@! TO.N,+3V3*
X95250000Y-99060000D03*
G04 #@! TO.P,U1,14*
G04 #@! TO.N,INNERHALL*
X95250000Y-96520000D03*
G04 #@! TO.P,U1,21*
G04 #@! TO.N,BTNREDLIGHT*
X95250000Y-114300000D03*
G04 #@! TO.P,U1,22*
G04 #@! TO.N,BTNRED*
X95250000Y-116840000D03*
G04 #@! TO.P,U1,23*
G04 #@! TO.N,SCALE2POT*
X95250000Y-119380000D03*
G04 #@! TO.P,U1,24*
G04 #@! TO.N,SCALE1POT*
X95250000Y-121920000D03*
G04 #@! TO.P,U1,25*
G04 #@! TO.N,Net-(U1-Pad25)*
X97790000Y-109220000D03*
G04 #@! TO.P,U1,26*
G04 #@! TO.N,Net-(U1-Pad26)*
X100330000Y-109220000D03*
G04 #@! TO.P,U1,27*
G04 #@! TO.N,Net-(U1-Pad27)*
X102870000Y-109220000D03*
G04 #@! TO.P,U1,28*
G04 #@! TO.N,Net-(U1-Pad28)*
X105410000Y-109220000D03*
G04 #@! TO.P,U1,29*
G04 #@! TO.N,Net-(U1-Pad29)*
X107950000Y-109220000D03*
G04 #@! TO.P,U1,30*
G04 #@! TO.N,RFIDRESET*
X110490000Y-121920000D03*
G04 #@! TO.P,U1,31*
G04 #@! TO.N,RADIOCE*
X110490000Y-119380000D03*
G04 #@! TO.P,U1,32*
G04 #@! TO.N,RADIOCSN*
X110490000Y-116840000D03*
G04 #@! TO.P,U1,33*
G04 #@! TO.N,RFID3*
X110490000Y-114300000D03*
G04 #@! TO.P,U1,34*
G04 #@! TO.N,FACEPART3*
X110490000Y-111760000D03*
G04 #@! TO.P,U1,35*
G04 #@! TO.N,BTNYELLOW*
X110490000Y-109220000D03*
G04 #@! TO.P,U1,36*
G04 #@! TO.N,BTNYELLOWLIGHT*
X110490000Y-106680000D03*
G04 #@! TO.P,U1,37*
G04 #@! TO.N,EYE1*
X110490000Y-104140000D03*
G04 #@! TO.P,U1,13*
G04 #@! TO.N,PUZZLERESETBTN*
X95250000Y-93980000D03*
G04 #@! TO.P,U1,12*
G04 #@! TO.N,VOICETX*
X95250000Y-91440000D03*
G04 #@! TO.P,U1,11*
G04 #@! TO.N,VOICERX*
X95250000Y-88900000D03*
G04 #@! TO.P,U1,10*
G04 #@! TO.N,RFIDMISO*
X95250000Y-86360000D03*
G04 #@! TO.P,U1,9*
G04 #@! TO.N,RFIDMOSI*
X95250000Y-83820000D03*
G04 #@! TO.P,U1,8*
G04 #@! TO.N,FACEPART1*
X95250000Y-81280000D03*
G04 #@! TO.P,U1,7*
G04 #@! TO.N,RFID1*
X95250000Y-78740000D03*
G04 #@! TO.P,U1,6*
G04 #@! TO.N,SCALE1MOTOR*
X95250000Y-76200000D03*
G04 #@! TO.P,U1,5*
G04 #@! TO.N,RADIOMISO*
X95250000Y-73660000D03*
G04 #@! TO.P,U1,4*
G04 #@! TO.N,SCALE2MOTOR*
X95250000Y-71120000D03*
G04 #@! TO.P,U1,3*
G04 #@! TO.N,Net-(U1-Pad3)*
X95250000Y-68580000D03*
G04 #@! TO.P,U1,2*
G04 #@! TO.N,Net-(U1-Pad2)*
X95250000Y-66040000D03*
D13*
G04 #@! TO.P,U1,1*
G04 #@! TO.N,GND*
X95250000Y-63500000D03*
D12*
G04 #@! TO.P,U1,38*
G04 #@! TO.N,EYE2*
X110490000Y-101600000D03*
G04 #@! TO.P,U1,39*
G04 #@! TO.N,GND*
X110490000Y-99060000D03*
G04 #@! TO.P,U1,40*
G04 #@! TO.N,FACEPART2*
X110490000Y-96520000D03*
G04 #@! TO.P,U1,41*
G04 #@! TO.N,RFIDSCLK*
X110490000Y-93980000D03*
G04 #@! TO.P,U1,42*
G04 #@! TO.N,RFID2*
X110490000Y-91440000D03*
G04 #@! TO.P,U1,43*
G04 #@! TO.N,BTNBLUELIGHT*
X110490000Y-88900000D03*
G04 #@! TO.P,U1,44*
G04 #@! TO.N,BTNBLUE*
X110490000Y-86360000D03*
G04 #@! TO.P,U1,45*
G04 #@! TO.N,I2CSDA*
X110490000Y-83820000D03*
G04 #@! TO.P,U1,46*
G04 #@! TO.N,I2CSCL*
X110490000Y-81280000D03*
G04 #@! TO.P,U1,47*
G04 #@! TO.N,RADIOSCLK*
X110490000Y-78740000D03*
G04 #@! TO.P,U1,48*
G04 #@! TO.N,RADIOMOSI*
X110490000Y-76200000D03*
G04 #@! TO.P,U1,49*
G04 #@! TO.N,BTNGREEN*
X110490000Y-73660000D03*
G04 #@! TO.P,U1,50*
G04 #@! TO.N,BTNGREENLIGHT*
X110490000Y-71120000D03*
G04 #@! TO.P,U1,51*
G04 #@! TO.N,Net-(U1-Pad51)*
X110490000Y-68580000D03*
G04 #@! TO.P,U1,52*
G04 #@! TO.N,Net-(U1-Pad52)*
X110490000Y-66040000D03*
G04 #@! TO.P,U1,53*
G04 #@! TO.N,+5V*
X110490000Y-63500000D03*
G04 #@! TO.P,U1,54*
G04 #@! TO.N,Net-(U1-Pad54)*
X107950000Y-66040000D03*
G04 #@! TO.P,U1,55*
G04 #@! TO.N,Net-(U1-Pad55)*
X107950000Y-71120000D03*
G04 #@! TO.P,U1,56*
G04 #@! TO.N,Net-(U1-Pad56)*
X107950000Y-73660000D03*
G04 #@! TO.P,U1,57*
G04 #@! TO.N,Net-(U1-Pad57)*
X107950000Y-76200000D03*
G04 #@! TO.P,U1,63*
G04 #@! TO.N,Net-(U1-Pad63)*
X102870000Y-78740000D03*
G04 #@! TO.P,U1,64*
G04 #@! TO.N,Net-(U1-Pad64)*
X102870000Y-81280000D03*
G04 #@! TO.P,U1,65*
G04 #@! TO.N,Net-(U1-Pad65)*
X102870000Y-83820000D03*
G04 #@! TO.P,U1,66*
G04 #@! TO.N,Net-(U1-Pad66)*
X102870000Y-86360000D03*
G04 #@! TO.P,U1,67*
G04 #@! TO.N,Net-(U1-Pad67)*
X102870000Y-101600000D03*
G04 #@! TO.P,U1,68*
G04 #@! TO.N,Net-(U1-Pad68)*
X102870000Y-104140000D03*
G04 #@! TO.P,U1,69*
G04 #@! TO.N,Net-(U1-Pad69)*
X102870000Y-106680000D03*
G04 #@! TO.P,U1,70*
G04 #@! TO.N,Net-(U1-Pad70)*
X102870000Y-111760000D03*
G04 #@! TO.P,U1,71*
G04 #@! TO.N,Net-(U1-Pad71)*
X102870000Y-114300000D03*
G04 #@! TO.P,U1,72*
G04 #@! TO.N,Net-(U1-Pad72)*
X102870000Y-116840000D03*
G04 #@! TO.P,U1,73*
G04 #@! TO.N,FACEPART4*
X102870000Y-119380000D03*
G04 #@! TO.P,U1,74*
G04 #@! TO.N,Net-(U1-Pad74)*
X102870000Y-121920000D03*
G04 #@! TO.P,U1,75*
G04 #@! TO.N,Net-(U1-Pad75)*
X105410000Y-121920000D03*
G04 #@! TO.P,U1,76*
G04 #@! TO.N,Net-(U1-Pad76)*
X105410000Y-119380000D03*
G04 #@! TO.P,U1,77*
G04 #@! TO.N,Net-(U1-Pad77)*
X105410000Y-116840000D03*
G04 #@! TO.P,U1,78*
G04 #@! TO.N,Net-(U1-Pad78)*
X105410000Y-114300000D03*
G04 #@! TO.P,U1,79*
G04 #@! TO.N,Net-(U1-Pad79)*
X105410000Y-111760000D03*
G04 #@! TO.P,U1,80*
G04 #@! TO.N,Net-(U1-Pad80)*
X105410000Y-106680000D03*
G04 #@! TO.P,U1,81*
G04 #@! TO.N,Net-(U1-Pad81)*
X105410000Y-104140000D03*
G04 #@! TO.P,U1,82*
G04 #@! TO.N,Net-(U1-Pad82)*
X105410000Y-101600000D03*
G04 #@! TO.P,U1,83*
G04 #@! TO.N,Net-(U1-Pad83)*
X105410000Y-86360000D03*
G04 #@! TO.P,U1,84*
G04 #@! TO.N,Net-(U1-Pad84)*
X105410000Y-83820000D03*
G04 #@! TO.P,U1,85*
G04 #@! TO.N,Net-(U1-Pad85)*
X105410000Y-81280000D03*
G04 #@! TO.P,U1,86*
G04 #@! TO.N,Net-(U1-Pad86)*
X105410000Y-78740000D03*
G04 #@! TO.P,U1,58*
G04 #@! TO.N,Net-(U1-Pad58)*
X98250000Y-69850000D03*
G04 #@! TO.P,U1,59*
G04 #@! TO.N,Net-(U1-Pad59)*
X98250000Y-72390000D03*
G04 #@! TO.P,U1,60*
G04 #@! TO.N,Net-(U1-Pad60)*
X98250000Y-74930000D03*
G04 #@! TO.P,U1,61*
G04 #@! TO.N,Net-(U1-Pad61)*
X98250000Y-77470000D03*
G04 #@! TO.P,U1,62*
G04 #@! TO.N,Net-(U1-Pad62)*
X98250000Y-80010000D03*
G04 #@! TD*
D14*
G04 #@! TO.P,U2,50*
G04 #@! TO.N,N/C*
X124460000Y-111760000D03*
X124460000Y-109220000D03*
X124460000Y-106680000D03*
X124460000Y-114300000D03*
X124460000Y-66040000D03*
X124460000Y-68580000D03*
X124460000Y-71120000D03*
X124460000Y-73660000D03*
X124460000Y-83820000D03*
X124460000Y-99060000D03*
X124460000Y-81280000D03*
X124460000Y-78740000D03*
X124460000Y-96520000D03*
X124460000Y-86360000D03*
X124460000Y-93980000D03*
X124460000Y-101600000D03*
G04 #@! TO.P,U2,14*
G04 #@! TO.N,GND*
X139700000Y-60960000D03*
G04 #@! TO.P,U2,60*
G04 #@! TO.N,N/C*
X137160000Y-60960000D03*
G04 #@! TO.P,U2,26*
G04 #@! TO.N,I2CSCL*
X134620000Y-60960000D03*
G04 #@! TO.P,U2,27*
G04 #@! TO.N,I2CSDA*
X132080000Y-60960000D03*
G04 #@! TO.P,U2,57*
G04 #@! TO.N,N/C*
X129540000Y-60960000D03*
G04 #@! TO.P,U2,28*
G04 #@! TO.N,+3V3*
X127000000Y-60960000D03*
G04 #@! TO.P,U2,14*
G04 #@! TO.N,GND*
X139700000Y-119380000D03*
G04 #@! TO.P,U2,60*
G04 #@! TO.N,N/C*
X137160000Y-119380000D03*
G04 #@! TO.P,U2,51*
X134620000Y-119380000D03*
G04 #@! TO.P,U2,50*
X132080000Y-119380000D03*
G04 #@! TO.P,U2,57*
X129540000Y-119380000D03*
G04 #@! TO.P,U2,85*
X127000000Y-119380000D03*
G04 #@! TO.P,U2,22*
G04 #@! TO.N,Net-(U2-Pad22)*
X127000000Y-114300000D03*
G04 #@! TO.P,U2,14*
G04 #@! TO.N,GND*
X121920000Y-114300000D03*
X121920000Y-111760000D03*
G04 #@! TO.P,U2,21*
G04 #@! TO.N,HEADLOCKS*
X127000000Y-111760000D03*
G04 #@! TO.P,U2,20*
G04 #@! TO.N,NOSELOCK*
X127000000Y-109220000D03*
G04 #@! TO.P,U2,14*
G04 #@! TO.N,GND*
X121920000Y-109220000D03*
G04 #@! TO.P,U2,19*
G04 #@! TO.N,DIALLOCK4*
X127000000Y-106680000D03*
G04 #@! TO.P,U2,14*
G04 #@! TO.N,GND*
X121920000Y-106680000D03*
X121920000Y-101600000D03*
G04 #@! TO.P,U2,18*
G04 #@! TO.N,Net-(U2-Pad18)*
X127000000Y-101600000D03*
G04 #@! TO.P,U2,17*
G04 #@! TO.N,Net-(U2-Pad17)*
X127000000Y-99060000D03*
G04 #@! TO.P,U2,14*
G04 #@! TO.N,GND*
X121920000Y-99060000D03*
X121920000Y-96520000D03*
G04 #@! TO.P,U2,16*
G04 #@! TO.N,EYEMOUTHLOCK*
X127000000Y-96520000D03*
G04 #@! TO.P,U2,15*
G04 #@! TO.N,DIALLOCK3*
X127000000Y-93980000D03*
G04 #@! TO.P,U2,14*
G04 #@! TO.N,GND*
X121920000Y-93980000D03*
X121920000Y-86360000D03*
G04 #@! TO.P,U2,13*
G04 #@! TO.N,Net-(U2-Pad13)*
X127000000Y-86360000D03*
G04 #@! TO.P,U2,12*
G04 #@! TO.N,Net-(U2-Pad12)*
X127000000Y-83820000D03*
G04 #@! TO.P,U2,14*
G04 #@! TO.N,GND*
X121920000Y-83820000D03*
X121920000Y-81280000D03*
G04 #@! TO.P,U2,11*
G04 #@! TO.N,Net-(U2-Pad11)*
X127000000Y-81280000D03*
G04 #@! TO.P,U2,10*
G04 #@! TO.N,VOICEMOUTHLOCK*
X127000000Y-78740000D03*
G04 #@! TO.P,U2,14*
G04 #@! TO.N,GND*
X121920000Y-78740000D03*
X121920000Y-73660000D03*
G04 #@! TO.P,U2,9*
G04 #@! TO.N,DIALLOCK2*
X127000000Y-73660000D03*
G04 #@! TO.P,U2,8*
G04 #@! TO.N,PRIZELOCK*
X127000000Y-71120000D03*
G04 #@! TO.P,U2,14*
G04 #@! TO.N,GND*
X121920000Y-71120000D03*
X121920000Y-68580000D03*
G04 #@! TO.P,U2,7*
G04 #@! TO.N,SCALEMOUTHLOCK*
X127000000Y-68580000D03*
G04 #@! TO.P,U2,6*
G04 #@! TO.N,DIALLOCK1*
X127000000Y-66040000D03*
G04 #@! TO.P,U2,14*
G04 #@! TO.N,GND*
X121920000Y-66040000D03*
G04 #@! TD*
D15*
G04 #@! TO.P,U11,1*
G04 #@! TO.N,GND*
X172720000Y-99060000D03*
D16*
G04 #@! TO.P,U11,2*
G04 #@! TO.N,VOICERX*
X172720000Y-101600000D03*
G04 #@! TO.P,U11,3*
G04 #@! TO.N,VOICETX*
X172720000Y-104140000D03*
G04 #@! TO.P,U11,4*
G04 #@! TO.N,+3V3*
X172720000Y-106680000D03*
G04 #@! TD*
D15*
G04 #@! TO.P,P5,1*
G04 #@! TO.N,RFID4*
X23495000Y-79375000D03*
D16*
G04 #@! TO.P,P5,2*
G04 #@! TO.N,RFIDSCLK*
X23495000Y-81915000D03*
G04 #@! TO.P,P5,3*
G04 #@! TO.N,RFIDMOSI*
X23495000Y-84455000D03*
G04 #@! TO.P,P5,4*
G04 #@! TO.N,RFIDMISO*
X23495000Y-86995000D03*
G04 #@! TO.P,P5,5*
G04 #@! TO.N,Net-(P5-Pad5)*
X23495000Y-89535000D03*
G04 #@! TO.P,P5,6*
G04 #@! TO.N,GND*
X23495000Y-92075000D03*
G04 #@! TO.P,P5,7*
G04 #@! TO.N,RFIDRESET*
X23495000Y-94615000D03*
G04 #@! TO.P,P5,8*
G04 #@! TO.N,+3V3*
X23495000Y-97155000D03*
G04 #@! TD*
G04 #@! TO.P,P3,8*
G04 #@! TO.N,+3V3*
X173990000Y-81280000D03*
G04 #@! TO.P,P3,7*
G04 #@! TO.N,RFIDRESET*
X173990000Y-78740000D03*
G04 #@! TO.P,P3,6*
G04 #@! TO.N,GND*
X173990000Y-76200000D03*
G04 #@! TO.P,P3,5*
G04 #@! TO.N,Net-(P3-Pad5)*
X173990000Y-73660000D03*
G04 #@! TO.P,P3,4*
G04 #@! TO.N,RFIDMISO*
X173990000Y-71120000D03*
G04 #@! TO.P,P3,3*
G04 #@! TO.N,RFIDMOSI*
X173990000Y-68580000D03*
G04 #@! TO.P,P3,2*
G04 #@! TO.N,RFIDSCLK*
X173990000Y-66040000D03*
D15*
G04 #@! TO.P,P3,1*
G04 #@! TO.N,RFID2*
X173990000Y-63500000D03*
G04 #@! TD*
G04 #@! TO.P,P1,1*
G04 #@! TO.N,RFID1*
X96520000Y-20320000D03*
D16*
G04 #@! TO.P,P1,2*
G04 #@! TO.N,RFIDSCLK*
X99060000Y-20320000D03*
G04 #@! TO.P,P1,3*
G04 #@! TO.N,RFIDMOSI*
X101600000Y-20320000D03*
G04 #@! TO.P,P1,4*
G04 #@! TO.N,RFIDMISO*
X104140000Y-20320000D03*
G04 #@! TO.P,P1,5*
G04 #@! TO.N,Net-(P1-Pad5)*
X106680000Y-20320000D03*
G04 #@! TO.P,P1,6*
G04 #@! TO.N,GND*
X109220000Y-20320000D03*
G04 #@! TO.P,P1,7*
G04 #@! TO.N,RFIDRESET*
X111760000Y-20320000D03*
G04 #@! TO.P,P1,8*
G04 #@! TO.N,+3V3*
X114300000Y-20320000D03*
G04 #@! TD*
D15*
G04 #@! TO.P,SW6,1*
G04 #@! TO.N,PUZZLERESETBTN*
X57785000Y-54610000D03*
D16*
G04 #@! TO.P,SW6,2*
G04 #@! TO.N,GND*
X57785000Y-57150000D03*
G04 #@! TD*
G04 #@! TO.P,P4,8*
G04 #@! TO.N,+3V3*
X95250000Y-150495000D03*
G04 #@! TO.P,P4,7*
G04 #@! TO.N,RFIDRESET*
X97790000Y-150495000D03*
G04 #@! TO.P,P4,6*
G04 #@! TO.N,GND*
X100330000Y-150495000D03*
G04 #@! TO.P,P4,5*
G04 #@! TO.N,Net-(P4-Pad5)*
X102870000Y-150495000D03*
G04 #@! TO.P,P4,4*
G04 #@! TO.N,RFIDMISO*
X105410000Y-150495000D03*
G04 #@! TO.P,P4,3*
G04 #@! TO.N,RFIDMOSI*
X107950000Y-150495000D03*
G04 #@! TO.P,P4,2*
G04 #@! TO.N,RFIDSCLK*
X110490000Y-150495000D03*
D15*
G04 #@! TO.P,P4,1*
G04 #@! TO.N,RFID3*
X113030000Y-150495000D03*
G04 #@! TD*
D14*
G04 #@! TO.P,U4,4*
G04 #@! TO.N,GND*
X24765000Y-41910000D03*
G04 #@! TO.P,U4,3*
G04 #@! TO.N,SERVOPWR*
X24765000Y-46990000D03*
G04 #@! TO.P,U4,2*
G04 #@! TO.N,GND*
X65405000Y-41910000D03*
G04 #@! TO.P,U4,1*
G04 #@! TO.N,+5V*
X65405000Y-46990000D03*
G04 #@! TD*
D17*
G04 #@! TO.P,J1,2*
G04 #@! TO.N,GND*
X29130000Y-24130000D03*
D18*
G04 #@! TO.P,J1,1*
G04 #@! TO.N,SERVOPWR*
X24130000Y-24130000D03*
G04 #@! TD*
D19*
G04 #@! TO.P,R3,2*
G04 #@! TO.N,EYE1*
X168910000Y-144780000D03*
D20*
G04 #@! TO.P,R3,1*
G04 #@! TO.N,GND*
X156210000Y-144780000D03*
G04 #@! TD*
D19*
G04 #@! TO.P,R4,2*
G04 #@! TO.N,EYE2*
X168275000Y-154940000D03*
D20*
G04 #@! TO.P,R4,1*
G04 #@! TO.N,GND*
X155575000Y-154940000D03*
G04 #@! TD*
D21*
G04 #@! TO.P,Q2,3*
G04 #@! TO.N,GND*
X128270000Y-140335000D03*
G04 #@! TO.P,Q2,2*
G04 #@! TO.N,Net-(Q2-Pad2)*
X130810000Y-140335000D03*
D22*
G04 #@! TO.P,Q2,1*
G04 #@! TO.N,BTNYELLOWLIGHT*
X133350000Y-140335000D03*
G04 #@! TD*
D16*
G04 #@! TO.P,SW2,4*
G04 #@! TO.N,GND*
X123190000Y-22860000D03*
G04 #@! TO.P,SW2,3*
G04 #@! TO.N,BTNGREENLIGHT*
X125730000Y-22860000D03*
G04 #@! TO.P,SW2,2*
G04 #@! TO.N,GND*
X128270000Y-22860000D03*
D15*
G04 #@! TO.P,SW2,1*
G04 #@! TO.N,BTNGREEN*
X130810000Y-22860000D03*
G04 #@! TD*
D16*
G04 #@! TO.P,SW1,4*
G04 #@! TO.N,GND*
X22860000Y-57785000D03*
G04 #@! TO.P,SW1,3*
G04 #@! TO.N,BTNDIALLIGHT*
X22860000Y-60325000D03*
G04 #@! TO.P,SW1,2*
G04 #@! TO.N,GND*
X22860000Y-62865000D03*
D15*
G04 #@! TO.P,SW1,1*
G04 #@! TO.N,BTNDIAL*
X22860000Y-65405000D03*
G04 #@! TD*
D16*
G04 #@! TO.P,SW3,4*
G04 #@! TO.N,GND*
X173990000Y-58420000D03*
G04 #@! TO.P,SW3,3*
G04 #@! TO.N,BTNBLUELIGHT*
X173990000Y-55880000D03*
G04 #@! TO.P,SW3,2*
G04 #@! TO.N,GND*
X173990000Y-53340000D03*
D15*
G04 #@! TO.P,SW3,1*
G04 #@! TO.N,BTNBLUE*
X173990000Y-50800000D03*
G04 #@! TD*
D16*
G04 #@! TO.P,SW5,4*
G04 #@! TO.N,Net-(Q2-Pad2)*
X133350000Y-150495000D03*
G04 #@! TO.P,SW5,3*
G04 #@! TO.N,+5V*
X130810000Y-150495000D03*
G04 #@! TO.P,SW5,2*
G04 #@! TO.N,GND*
X128270000Y-150495000D03*
D15*
G04 #@! TO.P,SW5,1*
G04 #@! TO.N,BTNYELLOW*
X125730000Y-150495000D03*
G04 #@! TD*
D16*
G04 #@! TO.P,SW4,4*
G04 #@! TO.N,Net-(Q1-Pad2)*
X24765000Y-106680000D03*
G04 #@! TO.P,SW4,3*
G04 #@! TO.N,+5V*
X24765000Y-109220000D03*
G04 #@! TO.P,SW4,2*
G04 #@! TO.N,GND*
X24765000Y-111760000D03*
D15*
G04 #@! TO.P,SW4,1*
G04 #@! TO.N,BTNRED*
X24765000Y-114300000D03*
G04 #@! TD*
D16*
G04 #@! TO.P,M7,3*
G04 #@! TO.N,GND*
X119380000Y-36830000D03*
G04 #@! TO.P,M7,2*
G04 #@! TO.N,SERVOPWR*
X119380000Y-34290000D03*
D15*
G04 #@! TO.P,M7,1*
G04 #@! TO.N,DIALLOCK1*
X119380000Y-31750000D03*
G04 #@! TD*
G04 #@! TO.P,M1,1*
G04 #@! TO.N,PRIZELOCK*
X133350000Y-31750000D03*
D16*
G04 #@! TO.P,M1,2*
G04 #@! TO.N,SERVOPWR*
X133350000Y-34290000D03*
G04 #@! TO.P,M1,3*
G04 #@! TO.N,GND*
X133350000Y-36830000D03*
G04 #@! TD*
G04 #@! TO.P,R2,2*
G04 #@! TO.N,EYE2*
X155575000Y-159385000D03*
D15*
G04 #@! TO.P,R2,1*
G04 #@! TO.N,+3V3*
X153035000Y-159385000D03*
G04 #@! TD*
D16*
G04 #@! TO.P,U12,7*
G04 #@! TO.N,+3V3*
X81280000Y-143510000D03*
G04 #@! TO.P,U12,6*
G04 #@! TO.N,GND*
X78740000Y-143510000D03*
G04 #@! TO.P,U12,5*
G04 #@! TO.N,RADIOCSN*
X76200000Y-143510000D03*
G04 #@! TO.P,U12,4*
G04 #@! TO.N,RADIOCE*
X73660000Y-143510000D03*
G04 #@! TO.P,U12,3*
G04 #@! TO.N,RADIOSCLK*
X71120000Y-143510000D03*
G04 #@! TO.P,U12,2*
G04 #@! TO.N,RADIOMISO*
X68580000Y-143510000D03*
D15*
G04 #@! TO.P,U12,1*
G04 #@! TO.N,RADIOMOSI*
X66040000Y-143510000D03*
G04 #@! TD*
D16*
G04 #@! TO.P,R1,2*
G04 #@! TO.N,EYE1*
X156210000Y-149225000D03*
D15*
G04 #@! TO.P,R1,1*
G04 #@! TO.N,+3V3*
X153670000Y-149225000D03*
G04 #@! TD*
G04 #@! TO.P,U8,1*
G04 #@! TO.N,+3V3*
X46990000Y-64135000D03*
D16*
G04 #@! TO.P,U8,2*
G04 #@! TO.N,INNERHALL*
X46990000Y-61595000D03*
G04 #@! TO.P,U8,3*
G04 #@! TO.N,GND*
X46990000Y-59055000D03*
G04 #@! TD*
G04 #@! TO.P,M6,3*
G04 #@! TO.N,GND*
X125730000Y-36830000D03*
G04 #@! TO.P,M6,2*
G04 #@! TO.N,SERVOPWR*
X125730000Y-34290000D03*
D15*
G04 #@! TO.P,M6,1*
G04 #@! TO.N,SCALEMOUTHLOCK*
X125730000Y-31750000D03*
G04 #@! TD*
G04 #@! TO.P,U3,1*
G04 #@! TO.N,+3V3*
X31750000Y-64770000D03*
D16*
G04 #@! TO.P,U3,2*
G04 #@! TO.N,OUTERHALL*
X31750000Y-62230000D03*
G04 #@! TO.P,U3,3*
G04 #@! TO.N,GND*
X31750000Y-59690000D03*
G04 #@! TD*
G04 #@! TO.P,M4,3*
G04 #@! TO.N,GND*
X161290000Y-129540000D03*
G04 #@! TO.P,M4,2*
G04 #@! TO.N,SERVOPWR*
X161290000Y-127000000D03*
D15*
G04 #@! TO.P,M4,1*
G04 #@! TO.N,EYEMOUTHLOCK*
X161290000Y-124460000D03*
G04 #@! TD*
D16*
G04 #@! TO.P,M12,3*
G04 #@! TO.N,GND*
X168275000Y-129540000D03*
G04 #@! TO.P,M12,2*
G04 #@! TO.N,SERVOPWR*
X168275000Y-127000000D03*
D15*
G04 #@! TO.P,M12,1*
G04 #@! TO.N,DIALLOCK3*
X168275000Y-124460000D03*
G04 #@! TD*
D16*
G04 #@! TO.P,U7,3*
G04 #@! TO.N,GND*
X162560000Y-74930000D03*
G04 #@! TO.P,U7,2*
G04 #@! TO.N,FACEPART2*
X160020000Y-74930000D03*
D15*
G04 #@! TO.P,U7,1*
G04 #@! TO.N,+3V3*
X157480000Y-74930000D03*
G04 #@! TD*
D16*
G04 #@! TO.P,M3,3*
G04 #@! TO.N,GND*
X39370000Y-154305000D03*
G04 #@! TO.P,M3,2*
G04 #@! TO.N,SERVOPWR*
X39370000Y-156845000D03*
D15*
G04 #@! TO.P,M3,1*
G04 #@! TO.N,NOSELOCK*
X39370000Y-159385000D03*
G04 #@! TD*
D16*
G04 #@! TO.P,M11,3*
G04 #@! TO.N,GND*
X34925000Y-139065000D03*
G04 #@! TO.P,M11,2*
G04 #@! TO.N,SERVOPWR*
X34925000Y-141605000D03*
D15*
G04 #@! TO.P,M11,1*
G04 #@! TO.N,HEADLOCKS*
X34925000Y-144145000D03*
G04 #@! TD*
D16*
G04 #@! TO.P,U5,3*
G04 #@! TO.N,GND*
X100330000Y-36830000D03*
G04 #@! TO.P,U5,2*
G04 #@! TO.N,FACEPART1*
X100330000Y-34290000D03*
D15*
G04 #@! TO.P,U5,1*
G04 #@! TO.N,+3V3*
X100330000Y-31750000D03*
G04 #@! TD*
G04 #@! TO.P,M13,1*
G04 #@! TO.N,DIALLOCK4*
X27940000Y-158750000D03*
D16*
G04 #@! TO.P,M13,2*
G04 #@! TO.N,SERVOPWR*
X27940000Y-156210000D03*
G04 #@! TO.P,M13,3*
G04 #@! TO.N,GND*
X27940000Y-153670000D03*
G04 #@! TD*
G04 #@! TO.P,M2,3*
G04 #@! TO.N,GND*
X25400000Y-139065000D03*
G04 #@! TO.P,M2,2*
G04 #@! TO.N,SERVOPWR*
X25400000Y-141605000D03*
D15*
G04 #@! TO.P,M2,1*
G04 #@! TO.N,HEADLOCKS*
X25400000Y-144145000D03*
G04 #@! TD*
D16*
G04 #@! TO.P,M9,3*
G04 #@! TO.N,GND*
X46355000Y-139065000D03*
G04 #@! TO.P,M9,2*
G04 #@! TO.N,SERVOPWR*
X46355000Y-141605000D03*
D15*
G04 #@! TO.P,M9,1*
G04 #@! TO.N,HEADLOCKS*
X46355000Y-144145000D03*
G04 #@! TD*
D16*
G04 #@! TO.P,RV1,3*
G04 #@! TO.N,GND*
X66040000Y-35560000D03*
G04 #@! TO.P,RV1,2*
G04 #@! TO.N,SCALE1POT*
X66040000Y-33020000D03*
D15*
G04 #@! TO.P,RV1,1*
G04 #@! TO.N,+3V3*
X66040000Y-30480000D03*
G04 #@! TD*
D16*
G04 #@! TO.P,M10,3*
G04 #@! TO.N,GND*
X54610000Y-139362863D03*
G04 #@! TO.P,M10,2*
G04 #@! TO.N,SERVOPWR*
X54610000Y-141902863D03*
D15*
G04 #@! TO.P,M10,1*
G04 #@! TO.N,HEADLOCKS*
X54610000Y-144442863D03*
G04 #@! TD*
D16*
G04 #@! TO.P,U10,3*
G04 #@! TO.N,GND*
X75565000Y-133350000D03*
G04 #@! TO.P,U10,2*
G04 #@! TO.N,FACEPART4*
X78105000Y-133350000D03*
D15*
G04 #@! TO.P,U10,1*
G04 #@! TO.N,+3V3*
X80645000Y-133350000D03*
G04 #@! TD*
G04 #@! TO.P,U6,1*
G04 #@! TO.N,+3V3*
X40005000Y-64135000D03*
D16*
G04 #@! TO.P,U6,2*
G04 #@! TO.N,MIDHALL*
X40005000Y-61595000D03*
G04 #@! TO.P,U6,3*
G04 #@! TO.N,GND*
X40005000Y-59055000D03*
G04 #@! TD*
G04 #@! TO.P,M14,3*
G04 #@! TO.N,GND*
X66040000Y-19050000D03*
G04 #@! TO.P,M14,2*
G04 #@! TO.N,+5V*
X66040000Y-21590000D03*
D15*
G04 #@! TO.P,M14,1*
G04 #@! TO.N,SCALE1MOTOR*
X66040000Y-24130000D03*
G04 #@! TD*
D16*
G04 #@! TO.P,M8,3*
G04 #@! TO.N,GND*
X162560000Y-47625000D03*
G04 #@! TO.P,M8,2*
G04 #@! TO.N,SERVOPWR*
X160020000Y-47625000D03*
D15*
G04 #@! TO.P,M8,1*
G04 #@! TO.N,DIALLOCK2*
X157480000Y-47625000D03*
G04 #@! TD*
D16*
G04 #@! TO.P,M15,3*
G04 #@! TO.N,GND*
X78740000Y-19050000D03*
G04 #@! TO.P,M15,2*
G04 #@! TO.N,+5V*
X78740000Y-21590000D03*
D15*
G04 #@! TO.P,M15,1*
G04 #@! TO.N,SCALE2MOTOR*
X78740000Y-24130000D03*
G04 #@! TD*
D16*
G04 #@! TO.P,RV2,3*
G04 #@! TO.N,GND*
X78740000Y-35560000D03*
G04 #@! TO.P,RV2,2*
G04 #@! TO.N,SCALE2POT*
X78740000Y-33020000D03*
D15*
G04 #@! TO.P,RV2,1*
G04 #@! TO.N,+3V3*
X78740000Y-30480000D03*
G04 #@! TD*
D16*
G04 #@! TO.P,M5,3*
G04 #@! TO.N,GND*
X162560000Y-67310000D03*
G04 #@! TO.P,M5,2*
G04 #@! TO.N,SERVOPWR*
X160020000Y-67310000D03*
D15*
G04 #@! TO.P,M5,1*
G04 #@! TO.N,VOICEMOUTHLOCK*
X157480000Y-67310000D03*
G04 #@! TD*
D16*
G04 #@! TO.P,U9,3*
G04 #@! TO.N,GND*
X117475000Y-142875000D03*
G04 #@! TO.P,U9,2*
G04 #@! TO.N,FACEPART3*
X117475000Y-140335000D03*
D15*
G04 #@! TO.P,U9,1*
G04 #@! TO.N,+3V3*
X117475000Y-137795000D03*
G04 #@! TD*
D23*
G04 #@! TO.N,+3V3*
X103974002Y-32385000D03*
X55221000Y-80010000D03*
G04 #@! TO.N,SCALE1POT*
X78740000Y-64135000D03*
X45085000Y-121285000D03*
G04 #@! TO.N,SCALE2POT*
X80645000Y-66040000D03*
X49530000Y-118745000D03*
G04 #@! TO.N,RFIDMOSI*
X70952592Y-55245000D03*
G04 #@! TO.N,GND*
X121920000Y-89535000D03*
G04 #@! TD*
D24*
G04 #@! TO.N,BTNDIALLIGHT*
X23709999Y-61174999D02*
X22860000Y-60325000D01*
X68415001Y-105880001D02*
X23709999Y-61174999D01*
X94450001Y-105880001D02*
X68415001Y-105880001D01*
X95250000Y-106680000D02*
X94450001Y-105880001D01*
G04 #@! TO.N,BTNGREENLIGHT*
X121920000Y-26670000D02*
X124880001Y-23709999D01*
X124880001Y-23709999D02*
X125730000Y-22860000D01*
X113030000Y-26670000D02*
X121920000Y-26670000D01*
X111615001Y-28084999D02*
X113030000Y-26670000D01*
X111615001Y-69994999D02*
X111615001Y-28084999D01*
X110490000Y-71120000D02*
X111615001Y-69994999D01*
G04 #@! TO.N,RADIOCSN*
X93558480Y-141884988D02*
X77825012Y-141884988D01*
X77049999Y-142660001D02*
X76200000Y-143510000D01*
X112065012Y-123378456D02*
X93558480Y-141884988D01*
X112065012Y-118415012D02*
X112065012Y-123378456D01*
X110490000Y-116840000D02*
X112065012Y-118415012D01*
X77825012Y-141884988D02*
X77049999Y-142660001D01*
G04 #@! TO.N,RADIOCE*
X75735023Y-141434977D02*
X74509999Y-142660001D01*
X111615001Y-122699999D02*
X92880023Y-141434977D01*
X111615001Y-120505001D02*
X111615001Y-122699999D01*
X110490000Y-119380000D02*
X111615001Y-120505001D01*
X74509999Y-142660001D02*
X73660000Y-143510000D01*
X92880023Y-141434977D02*
X75735023Y-141434977D01*
G04 #@! TO.N,BTNDIAL*
X23960000Y-65405000D02*
X22860000Y-65405000D01*
X66975001Y-108420001D02*
X23960000Y-65405000D01*
X94450001Y-108420001D02*
X66975001Y-108420001D01*
X95250000Y-109220000D02*
X94450001Y-108420001D01*
G04 #@! TO.N,+3V3*
X23960000Y-96520000D02*
X22860000Y-96520000D01*
X153035000Y-149860000D02*
X153670000Y-149225000D01*
X153035000Y-159385000D02*
X153035000Y-149860000D01*
X88265000Y-143510000D02*
X81280000Y-143510000D01*
X95250000Y-150495000D02*
X88265000Y-143510000D01*
X39370000Y-64770000D02*
X40005000Y-64135000D01*
X31750000Y-64770000D02*
X39370000Y-64770000D01*
X40005000Y-64135000D02*
X46990000Y-64135000D01*
X173990000Y-81280000D02*
X162730000Y-81280000D01*
X157480000Y-76030000D02*
X157480000Y-74930000D01*
X162730000Y-81280000D02*
X157480000Y-76030000D01*
X102235000Y-32385000D02*
X103974002Y-32385000D01*
X101430000Y-31750000D02*
X102065000Y-32385000D01*
X100330000Y-31750000D02*
X101430000Y-31750000D01*
X171544999Y-100170001D02*
X171544999Y-83725001D01*
X171609999Y-100235001D02*
X171544999Y-100170001D01*
X173140001Y-82129999D02*
X173990000Y-81280000D01*
X173094003Y-100235001D02*
X171609999Y-100235001D01*
X173990000Y-105410000D02*
X173990000Y-101130998D01*
X172720000Y-106680000D02*
X173990000Y-105410000D01*
X171544999Y-83725001D02*
X173140001Y-82129999D01*
X173990000Y-101130998D02*
X173094003Y-100235001D01*
X78740000Y-30480000D02*
X66040000Y-30480000D01*
X40005000Y-65235000D02*
X54780000Y-80010000D01*
X40005000Y-64135000D02*
X40005000Y-65235000D01*
X54780000Y-80010000D02*
X55221000Y-80010000D01*
G04 #@! TO.N,EYE1*
X164465000Y-149225000D02*
X168910000Y-144780000D01*
X156210000Y-149225000D02*
X164465000Y-149225000D01*
X147135011Y-140150011D02*
X155360001Y-148375001D01*
X155360001Y-148375001D02*
X156210000Y-149225000D01*
X110490000Y-104140000D02*
X132717821Y-104140000D01*
X147135011Y-118557190D02*
X147135011Y-140150011D01*
X132717821Y-104140000D02*
X147135011Y-118557190D01*
G04 #@! TO.N,SCALE1POT*
X64864999Y-39761237D02*
X78740000Y-53636238D01*
X66040000Y-33020000D02*
X64864999Y-34195001D01*
X64864999Y-34195001D02*
X64864999Y-39761237D01*
X78740000Y-53636238D02*
X78740000Y-64135000D01*
X78740000Y-64135000D02*
X78740000Y-64135000D01*
X94615000Y-121285000D02*
X95250000Y-121920000D01*
X45085000Y-121285000D02*
X94615000Y-121285000D01*
G04 #@! TO.N,SCALE2POT*
X78740000Y-33020000D02*
X80645000Y-34925000D01*
X80645000Y-34925000D02*
X80645000Y-66040000D01*
X80645000Y-66040000D02*
X80645000Y-66040000D01*
X94450001Y-118580001D02*
X95250000Y-119380000D01*
X94124999Y-118254999D02*
X94450001Y-118580001D01*
X50020001Y-118254999D02*
X94124999Y-118254999D01*
X49530000Y-118745000D02*
X50020001Y-118254999D01*
G04 #@! TO.N,RFID1*
X96520000Y-42379002D02*
X101505001Y-37394001D01*
X101505001Y-36265999D02*
X100894001Y-35654999D01*
X99791409Y-35654999D02*
X96520000Y-32383590D01*
X95250000Y-78740000D02*
X96520000Y-77470000D01*
X96520000Y-21420000D02*
X96520000Y-20320000D01*
X100894001Y-35654999D02*
X99791409Y-35654999D01*
X96520000Y-32383590D02*
X96520000Y-21420000D01*
X96520000Y-77470000D02*
X96520000Y-42379002D01*
X101505001Y-37394001D02*
X101505001Y-36265999D01*
G04 #@! TO.N,RFID2*
X172890000Y-63500000D02*
X173990000Y-63500000D01*
X165004980Y-55614980D02*
X172890000Y-63500000D01*
X159012199Y-55614980D02*
X165004980Y-55614980D01*
X137424191Y-77202988D02*
X159012199Y-55614980D01*
X113030000Y-85384827D02*
X121211839Y-77202988D01*
X110490000Y-91440000D02*
X113030000Y-88900000D01*
X121211839Y-77202988D02*
X137424191Y-77202988D01*
X113030000Y-88900000D02*
X113030000Y-85384827D01*
G04 #@! TO.N,RFID3*
X113665000Y-148760000D02*
X113665000Y-117475000D01*
X113030000Y-149395000D02*
X113665000Y-148760000D01*
X113030000Y-150495000D02*
X113030000Y-149395000D01*
X110490000Y-114300000D02*
X113665000Y-117475000D01*
G04 #@! TO.N,RFID4*
X95250000Y-111760000D02*
X68578590Y-111760000D01*
X36193590Y-79375000D02*
X53973590Y-97155000D01*
X23495000Y-79375000D02*
X36193590Y-79375000D01*
X68578590Y-111760000D02*
X53973590Y-97155000D01*
X53973590Y-97155000D02*
X53338590Y-96520000D01*
G04 #@! TO.N,BTNRED*
X24765000Y-115400000D02*
X24765000Y-114300000D01*
X26205000Y-116840000D02*
X24765000Y-115400000D01*
X95250000Y-116840000D02*
X26205000Y-116840000D01*
G04 #@! TO.N,RFIDRESET*
X23709999Y-94829999D02*
X22860000Y-93980000D01*
X23985001Y-95105001D02*
X23709999Y-94829999D01*
X94118630Y-137160000D02*
X37465000Y-137160000D01*
X22319999Y-122014999D02*
X22319999Y-95790001D01*
X37465000Y-137160000D02*
X22319999Y-122014999D01*
X110490000Y-121920000D02*
X109358630Y-121920000D01*
X109358630Y-121920000D02*
X94118630Y-137160000D01*
X22319999Y-95790001D02*
X22645001Y-95464999D01*
X22645001Y-95464999D02*
X23495000Y-94615000D01*
G04 #@! TO.N,MIDHALL*
X40854999Y-62444999D02*
X40005000Y-61595000D01*
X95250000Y-101600000D02*
X56420001Y-62770001D01*
X41180001Y-62770001D02*
X40854999Y-62444999D01*
X56420001Y-62770001D02*
X41180001Y-62770001D01*
G04 #@! TO.N,OUTERHALL*
X32599999Y-63079999D02*
X32385000Y-62865000D01*
X32599999Y-63079999D02*
X31750000Y-62230000D01*
X95250000Y-104140000D02*
X68834998Y-104140000D01*
X31154999Y-63079999D02*
X32599999Y-63079999D01*
X68834998Y-104140000D02*
X30574999Y-65880001D01*
X30574999Y-63659999D02*
X31154999Y-63079999D01*
X30574999Y-65880001D02*
X30574999Y-63659999D01*
G04 #@! TO.N,EYE2*
X160020000Y-154940000D02*
X168275000Y-154940000D01*
X155575000Y-159385000D02*
X160020000Y-154940000D01*
X168275000Y-154940000D02*
X170435001Y-152779999D01*
X111289999Y-102399999D02*
X110490000Y-101600000D01*
X168839001Y-128364999D02*
X158211409Y-128364999D01*
X111760000Y-102870000D02*
X111289999Y-102399999D01*
X132716410Y-102870000D02*
X111760000Y-102870000D01*
X158211409Y-128364999D02*
X132716410Y-102870000D01*
X170435001Y-129960999D02*
X168839001Y-128364999D01*
X170435001Y-152779999D02*
X170435001Y-129960999D01*
G04 #@! TO.N,VOICETX*
X105126371Y-100185001D02*
X96381370Y-91440000D01*
X172720000Y-104140000D02*
X161472999Y-92892999D01*
X111030001Y-100185001D02*
X105126371Y-100185001D01*
X118322003Y-92892999D02*
X111030001Y-100185001D01*
X161472999Y-92892999D02*
X118322003Y-92892999D01*
X96381370Y-91440000D02*
X95250000Y-91440000D01*
G04 #@! TO.N,VOICERX*
X171517919Y-101600000D02*
X162360907Y-92442988D01*
X111030001Y-97645001D02*
X103995001Y-97645001D01*
X103995001Y-97645001D02*
X96049999Y-89699999D01*
X162360907Y-92442988D02*
X116232014Y-92442988D01*
X172720000Y-101600000D02*
X171517919Y-101600000D01*
X96049999Y-89699999D02*
X95250000Y-88900000D01*
X116232014Y-92442988D02*
X111030001Y-97645001D01*
G04 #@! TO.N,RFIDMISO*
X104140000Y-20320000D02*
X104989999Y-21169999D01*
X101744999Y-79865001D02*
X96049999Y-85560001D01*
X104989999Y-35181824D02*
X101744999Y-38426824D01*
X101744999Y-38426824D02*
X101744999Y-79865001D01*
X104989999Y-21169999D02*
X104989999Y-35181824D01*
X96049999Y-85560001D02*
X95250000Y-86360000D01*
G04 #@! TO.N,RFIDMOSI*
X94450001Y-83020001D02*
X93815001Y-83020001D01*
X95250000Y-83820000D02*
X94450001Y-83020001D01*
X93815001Y-83020001D02*
X72390000Y-61595000D01*
X72390000Y-56682408D02*
X70952592Y-55245000D01*
X72390000Y-61595000D02*
X72390000Y-56682408D01*
G04 #@! TO.N,PUZZLERESETBTN*
X58885000Y-54610000D02*
X64135000Y-59860000D01*
X57785000Y-54610000D02*
X58885000Y-54610000D01*
X64135000Y-59860000D02*
X63965000Y-59690000D01*
X64135000Y-62865000D02*
X64135000Y-59860000D01*
X95250000Y-93980000D02*
X64135000Y-62865000D01*
G04 #@! TO.N,BTNYELLOWLIGHT*
X133350000Y-139085000D02*
X133350000Y-129540000D01*
X133350000Y-140335000D02*
X133350000Y-139085000D01*
X110490000Y-106680000D02*
X133350000Y-129540000D01*
G04 #@! TO.N,BTNYELLOW*
X125730000Y-150495000D02*
X125730000Y-124460000D01*
X110490000Y-109220000D02*
X125730000Y-124460000D01*
G04 #@! TO.N,BTNGREEN*
X113030000Y-71120000D02*
X110490000Y-73660000D01*
X130810000Y-23960000D02*
X129370000Y-25400000D01*
X129370000Y-25400000D02*
X124460000Y-25400000D01*
X130810000Y-22860000D02*
X130810000Y-23960000D01*
X124460000Y-25400000D02*
X121920000Y-27940000D01*
X121920000Y-27940000D02*
X115570000Y-27940000D01*
X113030000Y-30480000D02*
X113030000Y-71120000D01*
X115570000Y-27940000D02*
X113030000Y-30480000D01*
G04 #@! TO.N,GND*
X29130000Y-37545000D02*
X29130000Y-24130000D01*
X24765000Y-41910000D02*
X29130000Y-37545000D01*
X128270000Y-150495000D02*
X128270000Y-140335000D01*
X66040000Y-19050000D02*
X78740000Y-19050000D01*
X127420001Y-22010001D02*
X128270000Y-22860000D01*
X124554999Y-19144999D02*
X127420001Y-22010001D01*
X123190000Y-19144999D02*
X123190000Y-22860000D01*
X123190000Y-19144999D02*
X124554999Y-19144999D01*
X54312137Y-139065000D02*
X54610000Y-139362863D01*
X25400000Y-139065000D02*
X54312137Y-139065000D01*
X27090001Y-152820001D02*
X27940000Y-153670000D01*
X22225000Y-147955000D02*
X27090001Y-152820001D01*
X22225000Y-142240000D02*
X22225000Y-147955000D01*
X25400000Y-139065000D02*
X22225000Y-142240000D01*
X26764999Y-154845001D02*
X26764999Y-157385001D01*
X27940000Y-153670000D02*
X26764999Y-154845001D01*
X26764999Y-157385001D02*
X31844999Y-157385001D01*
X34925000Y-154305000D02*
X39370000Y-154305000D01*
X31844999Y-157385001D02*
X34925000Y-154305000D01*
X79915001Y-142334999D02*
X79589999Y-142660001D01*
X79589999Y-142660001D02*
X78740000Y-143510000D01*
X100330000Y-149292919D02*
X93372080Y-142334999D01*
X93372080Y-142334999D02*
X79915001Y-142334999D01*
X100330000Y-150495000D02*
X100330000Y-149292919D01*
X77890001Y-144359999D02*
X78740000Y-143510000D01*
X77564999Y-144685001D02*
X77890001Y-144359999D01*
X61134219Y-144685001D02*
X77564999Y-144685001D01*
X55812081Y-139362863D02*
X61134219Y-144685001D01*
X54610000Y-139362863D02*
X55812081Y-139362863D01*
X24765000Y-111760000D02*
X29845000Y-106680000D01*
X29845000Y-106680000D02*
X34290000Y-106680000D01*
X23915001Y-110910001D02*
X24765000Y-111760000D01*
X23589999Y-110584999D02*
X23915001Y-110910001D01*
X23589999Y-106115999D02*
X23589999Y-110584999D01*
X24670001Y-105035997D02*
X23589999Y-106115999D01*
X24670001Y-93250001D02*
X24670001Y-105035997D01*
X23495000Y-92075000D02*
X24670001Y-93250001D01*
X39370000Y-59690000D02*
X40005000Y-59055000D01*
X31750000Y-59690000D02*
X39370000Y-59690000D01*
X40005000Y-59055000D02*
X46990000Y-59055000D01*
X24765000Y-59690000D02*
X22860000Y-57785000D01*
X31750000Y-59690000D02*
X24765000Y-59690000D01*
X22010001Y-58634999D02*
X22860000Y-57785000D01*
X21684999Y-58960001D02*
X22010001Y-58634999D01*
X21684999Y-61689999D02*
X21684999Y-58960001D01*
X22860000Y-62865000D02*
X21684999Y-61689999D01*
X22860000Y-43815000D02*
X24765000Y-41910000D01*
X22860000Y-57785000D02*
X22860000Y-43815000D01*
X48895000Y-57150000D02*
X46990000Y-59055000D01*
X57785000Y-57150000D02*
X48895000Y-57150000D01*
X64643001Y-42671999D02*
X65405000Y-41910000D01*
X55880000Y-51435000D02*
X64643001Y-42671999D01*
X55880000Y-55245000D02*
X55880000Y-51435000D01*
X57785000Y-57150000D02*
X55880000Y-55245000D01*
X163830000Y-76200000D02*
X173990000Y-76200000D01*
X162560000Y-74930000D02*
X163830000Y-76200000D01*
X174839999Y-77049999D02*
X173990000Y-76200000D01*
X175165001Y-77375001D02*
X174839999Y-77049999D01*
X175165001Y-95514999D02*
X175165001Y-77375001D01*
X172720000Y-97960000D02*
X175165001Y-95514999D01*
X172720000Y-99060000D02*
X172720000Y-97960000D01*
X161290000Y-129540000D02*
X168275000Y-129540000D01*
X162560000Y-74930000D02*
X162560000Y-67310000D01*
X174839999Y-52490001D02*
X173990000Y-53340000D01*
X175165001Y-52164999D02*
X174839999Y-52490001D01*
X175165001Y-49689999D02*
X175165001Y-52164999D01*
X173950001Y-48474999D02*
X175165001Y-49689999D01*
X163409999Y-48474999D02*
X173950001Y-48474999D01*
X162560000Y-47625000D02*
X163409999Y-48474999D01*
X174839999Y-54189999D02*
X173990000Y-53340000D01*
X175165001Y-54515001D02*
X174839999Y-54189999D01*
X175165001Y-57244999D02*
X175165001Y-54515001D01*
X173990000Y-58420000D02*
X175165001Y-57244999D01*
X121987919Y-22860000D02*
X123190000Y-22860000D01*
X110557919Y-22860000D02*
X121987919Y-22860000D01*
X109220000Y-21522081D02*
X110557919Y-22860000D01*
X109220000Y-20320000D02*
X109220000Y-21522081D01*
X110395001Y-21495001D02*
X120839998Y-21495001D01*
X120839998Y-21495001D02*
X123190000Y-19144999D01*
X109220000Y-20320000D02*
X110395001Y-21495001D01*
X139700000Y-59882370D02*
X139700000Y-60960000D01*
X139700000Y-44382081D02*
X139700000Y-59882370D01*
X133350000Y-38032081D02*
X139700000Y-44382081D01*
X133350000Y-36830000D02*
X133350000Y-38032081D01*
X156210000Y-144780000D02*
X161290000Y-139700000D01*
X161290000Y-139700000D02*
X161290000Y-129540000D01*
X101179999Y-151344999D02*
X100330000Y-150495000D01*
X101505001Y-151670001D02*
X101179999Y-151344999D01*
X128270000Y-150495000D02*
X127094999Y-151670001D01*
X77890001Y-36409999D02*
X78740000Y-35560000D01*
X66889999Y-36409999D02*
X77890001Y-36409999D01*
X66040000Y-35560000D02*
X66889999Y-36409999D01*
X138938001Y-118618001D02*
X139700000Y-119380000D01*
X135707001Y-115387001D02*
X138938001Y-118618001D01*
X123007001Y-115387001D02*
X135707001Y-115387001D01*
X121920000Y-114300000D02*
X123007001Y-115387001D01*
X117475000Y-142875000D02*
X117475000Y-149860000D01*
X119285001Y-151670001D02*
X119380000Y-151670001D01*
X117475000Y-149860000D02*
X119285001Y-151670001D01*
X127094999Y-151670001D02*
X119380000Y-151670001D01*
X119380000Y-151670001D02*
X101505001Y-151670001D01*
X64414988Y-40919988D02*
X64643001Y-41148001D01*
X64643001Y-41148001D02*
X65405000Y-41910000D01*
X64414988Y-20675012D02*
X64414988Y-40919988D01*
X66040000Y-19050000D02*
X64414988Y-20675012D01*
X121920000Y-86360000D02*
X121920000Y-89535000D01*
X121920000Y-89535000D02*
X121920000Y-89535000D01*
X96520000Y-36830000D02*
X78740000Y-19050000D01*
X100330000Y-36830000D02*
X96520000Y-36830000D01*
X22010001Y-63714999D02*
X22860000Y-62865000D01*
X21684999Y-64040001D02*
X22010001Y-63714999D01*
X21684999Y-90264999D02*
X21684999Y-64040001D01*
X23495000Y-92075000D02*
X21684999Y-90264999D01*
G04 #@! TO.N,INNERHALL*
X60325000Y-61595000D02*
X46990000Y-61595000D01*
X95250000Y-96520000D02*
X60325000Y-61595000D01*
G04 #@! TO.N,BTNBLUELIGHT*
X110490000Y-88900000D02*
X111760000Y-87630000D01*
X121578416Y-76200000D02*
X137790770Y-76200000D01*
X111760000Y-87630000D02*
X111760000Y-86018416D01*
X137790770Y-76200000D02*
X158960769Y-55030001D01*
X111760000Y-86018416D02*
X121578416Y-76200000D01*
X158960769Y-55030001D02*
X173140001Y-55030001D01*
X173140001Y-55030001D02*
X173990000Y-55880000D01*
G04 #@! TO.N,RFIDSCLK*
X121398239Y-77652999D02*
X137610591Y-77652999D01*
X137610591Y-77652999D02*
X159198599Y-56064991D01*
X164014991Y-56064991D02*
X173140001Y-65190001D01*
X173140001Y-65190001D02*
X173990000Y-66040000D01*
X120199989Y-84270011D02*
X120199989Y-78851249D01*
X110490000Y-93980000D02*
X120199989Y-84270011D01*
X120199989Y-78851249D02*
X121398239Y-77652999D01*
X159198599Y-56064991D02*
X164014991Y-56064991D01*
X175895000Y-64135000D02*
X173990000Y-66040000D01*
X99060000Y-20320000D02*
X100235001Y-19144999D01*
X122553590Y-19144999D02*
X123003600Y-18694989D01*
X100235001Y-19144999D02*
X122553590Y-19144999D01*
X123003600Y-18694989D02*
X148235004Y-18695004D01*
X148235004Y-18695004D02*
X175895000Y-46355000D01*
X175895000Y-46355000D02*
X175895000Y-64135000D01*
G04 #@! TO.N,BTNBLUE*
X110490000Y-86360000D02*
X121652988Y-75197012D01*
X121652988Y-75197012D02*
X138157345Y-75197012D01*
X138157345Y-75197012D02*
X162554357Y-50800000D01*
X162554357Y-50800000D02*
X172890000Y-50800000D01*
X172890000Y-50800000D02*
X173990000Y-50800000D01*
G04 #@! TO.N,BTNREDLIGHT*
X95250000Y-114300000D02*
X35627500Y-114300000D01*
G04 #@! TO.N,I2CSDA*
X131437619Y-62680011D02*
X132080000Y-62037630D01*
X110490000Y-83820000D02*
X120832999Y-73477001D01*
X121398239Y-67127001D02*
X122441761Y-67127001D01*
X120832999Y-73477001D02*
X120832999Y-67692241D01*
X125845229Y-62680011D02*
X131437619Y-62680011D01*
X132080000Y-62037630D02*
X132080000Y-60960000D01*
X123007001Y-66561761D02*
X123007001Y-65518239D01*
X123007001Y-65518239D02*
X125845229Y-62680011D01*
X122441761Y-67127001D02*
X123007001Y-66561761D01*
X120832999Y-67692241D02*
X121398239Y-67127001D01*
G04 #@! TO.N,I2CSCL*
X133858001Y-60198001D02*
X134620000Y-60960000D01*
X133532999Y-59872999D02*
X133858001Y-60198001D01*
X131445000Y-59872999D02*
X133532999Y-59872999D01*
X130810000Y-60507999D02*
X131445000Y-59872999D01*
X110490000Y-81280000D02*
X111615001Y-80154999D01*
X111615001Y-74439999D02*
X123825000Y-62230000D01*
X111615001Y-80154999D02*
X111615001Y-74439999D01*
X123825000Y-62230000D02*
X130175000Y-62230000D01*
X130175000Y-62230000D02*
X130810000Y-61595000D01*
X130810000Y-61595000D02*
X130810000Y-60507999D01*
G04 #@! TO.N,SCALE2MOTOR*
X78740000Y-25230000D02*
X82550000Y-29040000D01*
X78740000Y-24130000D02*
X78740000Y-25230000D01*
X82550000Y-29040000D02*
X82550000Y-58420000D01*
X82550000Y-58420000D02*
X95250000Y-71120000D01*
G04 #@! TO.N,SCALE1MOTOR*
X76200000Y-24130000D02*
X66040000Y-24130000D01*
X81280000Y-29210000D02*
X76200000Y-24130000D01*
X95250000Y-76200000D02*
X81280000Y-62230000D01*
X81280000Y-62230000D02*
X81280000Y-29210000D01*
G04 #@! TO.N,PRIZELOCK*
X132250000Y-31750000D02*
X133350000Y-31750000D01*
X127000000Y-71120000D02*
X131148762Y-71120000D01*
X132174999Y-31825001D02*
X132250000Y-31750000D01*
X132785999Y-35465001D02*
X132174999Y-34854001D01*
X133914001Y-35465001D02*
X132785999Y-35465001D01*
X132174999Y-34854001D02*
X132174999Y-31825001D01*
X140787001Y-42338001D02*
X133914001Y-35465001D01*
X131148762Y-71120000D02*
X140787001Y-61481761D01*
X140787001Y-61481761D02*
X140787001Y-42338001D01*
G04 #@! TO.N,HEADLOCKS*
X127000000Y-111760000D02*
X137795000Y-111760000D01*
X137795000Y-111760000D02*
X145415000Y-119380000D01*
X145415000Y-119380000D02*
X145415000Y-158115000D01*
X145415000Y-158115000D02*
X143510000Y-160020000D01*
X55245000Y-160020000D02*
X54386465Y-159161465D01*
X39370000Y-144145000D02*
X55245000Y-160020000D01*
X25400000Y-144145000D02*
X39370000Y-144145000D01*
X59690000Y-160020000D02*
X57785000Y-160020000D01*
X57785000Y-160020000D02*
X55245000Y-160020000D01*
X61130000Y-160020000D02*
X64135000Y-160020000D01*
X46355000Y-145245000D02*
X61130000Y-160020000D01*
X46355000Y-144145000D02*
X46355000Y-145245000D01*
X64135000Y-160020000D02*
X59690000Y-160020000D01*
X143510000Y-160020000D02*
X68580000Y-160020000D01*
X68580000Y-160020000D02*
X64135000Y-160020000D01*
X67945000Y-160020000D02*
X68580000Y-160020000D01*
X54610000Y-144442863D02*
X54610000Y-146685000D01*
X54610000Y-146685000D02*
X67945000Y-160020000D01*
G04 #@! TO.N,NOSELOCK*
X127000000Y-109220000D02*
X136525000Y-109220000D01*
X136525000Y-109220000D02*
X146050000Y-118745000D01*
X146050000Y-118745000D02*
X146050000Y-159385000D01*
X146050000Y-159385000D02*
X144780000Y-160655000D01*
X144780000Y-160655000D02*
X55880000Y-160655000D01*
X55880000Y-160655000D02*
X55245000Y-160655000D01*
X48260000Y-159385000D02*
X49530000Y-160655000D01*
X39370000Y-159385000D02*
X48260000Y-159385000D01*
X49530000Y-160655000D02*
X55880000Y-160655000D01*
G04 #@! TO.N,EYEMOUTHLOCK*
X128077630Y-96520000D02*
X127000000Y-96520000D01*
X134450000Y-96520000D02*
X128077630Y-96520000D01*
X161290000Y-123360000D02*
X134450000Y-96520000D01*
X161290000Y-124460000D02*
X161290000Y-123360000D01*
G04 #@! TO.N,VOICEMOUTHLOCK*
X157480000Y-67140000D02*
X157480000Y-66040000D01*
X145880000Y-78740000D02*
X157480000Y-67140000D01*
X127000000Y-78740000D02*
X145880000Y-78740000D01*
G04 #@! TO.N,SCALEMOUTHLOCK*
X131910761Y-67818001D02*
X138430000Y-61298762D01*
X127761999Y-67818001D02*
X131910761Y-67818001D01*
X127000000Y-68580000D02*
X127761999Y-67818001D01*
X124630000Y-31750000D02*
X125730000Y-31750000D01*
X124554999Y-31825001D02*
X124630000Y-31750000D01*
X124554999Y-37394001D02*
X124554999Y-31825001D01*
X138430000Y-51269002D02*
X124554999Y-37394001D01*
X138430000Y-61298762D02*
X138430000Y-51269002D01*
G04 #@! TO.N,DIALLOCK1*
X135707001Y-61481761D02*
X135707001Y-60142001D01*
X127000000Y-66040000D02*
X127761999Y-65278001D01*
X131910761Y-65278001D02*
X135707001Y-61481761D01*
X127761999Y-65278001D02*
X131910761Y-65278001D01*
X118280000Y-31750000D02*
X119380000Y-31750000D01*
X118204999Y-31825001D02*
X118280000Y-31750000D01*
X118204999Y-42639999D02*
X118204999Y-31825001D01*
X135707001Y-60142001D02*
X118204999Y-42639999D01*
G04 #@! TO.N,DIALLOCK2*
X127000000Y-73660000D02*
X138430000Y-73660000D01*
X138430000Y-73660000D02*
X157480000Y-54610000D01*
X157480000Y-54610000D02*
X157480000Y-47625000D01*
G04 #@! TO.N,DIALLOCK3*
X139065000Y-93980000D02*
X127000000Y-93980000D01*
X154305000Y-109220000D02*
X139065000Y-93980000D01*
X168275000Y-124460000D02*
X168275000Y-123360000D01*
X168275000Y-123360000D02*
X154305000Y-109390000D01*
X154305000Y-109390000D02*
X154305000Y-109220000D01*
G04 #@! TO.N,DIALLOCK4*
X127000000Y-106680000D02*
X134621410Y-106680000D01*
X134621410Y-106680000D02*
X146500011Y-118558600D01*
X146500011Y-118558600D02*
X146500011Y-159571400D01*
X146500011Y-159571400D02*
X144781411Y-161290000D01*
X144781411Y-161290000D02*
X56515000Y-161290000D01*
X56515000Y-161290000D02*
X55245000Y-161290000D01*
X31580000Y-161290000D02*
X36830000Y-161290000D01*
X29040000Y-158750000D02*
X31580000Y-161290000D01*
X27940000Y-158750000D02*
X29040000Y-158750000D01*
X36365000Y-161290000D02*
X36830000Y-161290000D01*
X36830000Y-161290000D02*
X56515000Y-161290000D01*
G04 #@! TO.N,SERVOPWR*
X54312137Y-141605000D02*
X54610000Y-141902863D01*
X25400000Y-141605000D02*
X54312137Y-141605000D01*
X28789999Y-155360001D02*
X27940000Y-156210000D01*
X29115001Y-155034999D02*
X28789999Y-155360001D01*
X29115001Y-153105999D02*
X29115001Y-155034999D01*
X24224999Y-148215997D02*
X29115001Y-153105999D01*
X24224999Y-142780001D02*
X24224999Y-148215997D01*
X25400000Y-141605000D02*
X24224999Y-142780001D01*
X27940000Y-156210000D02*
X31750000Y-152400000D01*
X31750000Y-152400000D02*
X40640000Y-152400000D01*
X40640000Y-155575000D02*
X39370000Y-156845000D01*
X40640000Y-152400000D02*
X40640000Y-155575000D01*
X29674694Y-21824990D02*
X30445010Y-22595306D01*
X30445010Y-41309990D02*
X25526999Y-46228001D01*
X25526999Y-46228001D02*
X24765000Y-46990000D01*
X30445010Y-22595306D02*
X30445010Y-41309990D01*
X27675010Y-21824990D02*
X29674694Y-21824990D01*
X25370000Y-24130000D02*
X27675010Y-21824990D01*
X24130000Y-24130000D02*
X25370000Y-24130000D01*
X161290000Y-127000000D02*
X168275000Y-127000000D01*
X160020000Y-67310000D02*
X160020000Y-56515001D01*
X134552081Y-34290000D02*
X133350000Y-34290000D01*
X147887081Y-34290000D02*
X134552081Y-34290000D01*
X160020000Y-46422919D02*
X147887081Y-34290000D01*
X160020000Y-47625000D02*
X160020000Y-46422919D01*
X172345997Y-66134999D02*
X173520998Y-67310000D01*
X160020000Y-67310000D02*
X161195001Y-66134999D01*
X161195001Y-66134999D02*
X172345997Y-66134999D01*
X174459002Y-67310000D02*
X175895000Y-68745998D01*
X173520998Y-67310000D02*
X174459002Y-67310000D01*
X175895000Y-68745998D02*
X175895000Y-125730000D01*
X174625000Y-127000000D02*
X168275000Y-127000000D01*
X175895000Y-125730000D02*
X174625000Y-127000000D01*
G04 #@! TO.N,Net-(Q2-Pad2)*
X130810000Y-140382500D02*
X130810000Y-140335000D01*
X132012500Y-141585000D02*
X130810000Y-140382500D01*
X132060000Y-141585000D02*
X132012500Y-141585000D01*
X133350000Y-142875000D02*
X132060000Y-141585000D01*
X133350000Y-150495000D02*
X133350000Y-142875000D01*
G04 #@! TO.N,GND*
X37512500Y-106680000D02*
X37465000Y-106680000D01*
X34290000Y-106680000D02*
X38100000Y-106680000D01*
G04 #@! TO.N,BTNREDLIGHT*
X38147500Y-111760000D02*
X40640000Y-114252500D01*
X38100000Y-111760000D02*
X38147500Y-111760000D01*
G04 #@! TO.N,Net-(Q1-Pad2)*
X38147500Y-109220000D02*
X38100000Y-109220000D01*
X39425010Y-107942490D02*
X38147500Y-109220000D01*
X39425010Y-106150839D02*
X39425010Y-107942490D01*
X38676661Y-105402490D02*
X39425010Y-106150839D01*
X26042510Y-105402490D02*
X38676661Y-105402490D01*
X24765000Y-106680000D02*
X26042510Y-105402490D01*
G04 #@! TO.N,FACEPART4*
X78954999Y-132500001D02*
X78105000Y-133350000D01*
X79280001Y-132174999D02*
X78954999Y-132500001D01*
X88943631Y-132174999D02*
X79280001Y-132174999D01*
X101738630Y-119380000D02*
X88943631Y-132174999D01*
X102870000Y-119380000D02*
X101738630Y-119380000D01*
G04 #@! TO.N,FACEPART3*
X111289999Y-112559999D02*
X110490000Y-111760000D01*
X116205000Y-117475000D02*
X111289999Y-112559999D01*
X116205000Y-139065000D02*
X116205000Y-117475000D01*
X117475000Y-140335000D02*
X116205000Y-139065000D01*
G04 #@! TO.N,FACEPART1*
X97124999Y-79405001D02*
X97124999Y-42410414D01*
X97124999Y-42410414D02*
X101955012Y-37580401D01*
X95250000Y-81280000D02*
X97124999Y-79405001D01*
X101179999Y-35139999D02*
X100330000Y-34290000D01*
X101955012Y-37580401D02*
X101955012Y-35915012D01*
X101955012Y-35915012D02*
X101179999Y-35139999D01*
G04 #@! TO.N,FACEPART2*
X110490000Y-96520000D02*
X120650000Y-86360000D01*
X120650000Y-86360000D02*
X120650000Y-80941238D01*
X158844999Y-73754999D02*
X159170001Y-74080001D01*
X159170001Y-74080001D02*
X160020000Y-74930000D01*
X156369999Y-73754999D02*
X158844999Y-73754999D01*
X150114998Y-80010000D02*
X156369999Y-73754999D01*
X121581238Y-80010000D02*
X150114998Y-80010000D01*
X120650000Y-80941238D02*
X121581238Y-80010000D01*
G04 #@! TO.N,+5V*
X66040000Y-21590000D02*
X78740000Y-21590000D01*
X109358630Y-63500000D02*
X110490000Y-63500000D01*
X103995001Y-68091410D02*
X108586411Y-63500000D01*
X108586411Y-63500000D02*
X109358630Y-63500000D01*
X103995001Y-81820001D02*
X103995001Y-68091410D01*
X103410001Y-82405001D02*
X103995001Y-81820001D01*
X102329999Y-82405001D02*
X103410001Y-82405001D01*
X97249999Y-87485001D02*
X102329999Y-82405001D01*
X94709999Y-87485001D02*
X97249999Y-87485001D01*
X65405000Y-46990000D02*
X65405000Y-58180002D01*
X65405000Y-58180002D02*
X94709999Y-87485001D01*
G04 #@! TD*
M02*
