M48
;DRILL file {KiCad (5.0.2)-1} date 1/24/2019 4:58:45 PM
;FORMAT={3:3/ absolute / metric / suppress leading zeros}
FMAT,2
METRIC,TZ
T1C0.400
T2C0.762
T3C1.000
T4C1.100
T5C1.200
T6C1.320
T7C5.300
%
G90
G05
T1
X45085Y-121285
X49530Y-118745
X55221Y-80010
X70953Y-55245
X78740Y-64135
X80645Y-66040
X103974Y-32385
X121920Y-89535
T2
X121920Y-66040
X121920Y-68580
X121920Y-71120
X121920Y-73660
X121920Y-78740
X121920Y-81280
X121920Y-83820
X121920Y-86360
X121920Y-93980
X121920Y-96520
X121920Y-99060
X121920Y-101600
X121920Y-106680
X121920Y-109220
X121920Y-111760
X121920Y-114300
X124460Y-66040
X124460Y-68580
X124460Y-71120
X124460Y-73660
X124460Y-78740
X124460Y-81280
X124460Y-83820
X124460Y-86360
X124460Y-93980
X124460Y-96520
X124460Y-99060
X124460Y-101600
X124460Y-106680
X124460Y-109220
X124460Y-111760
X124460Y-114300
X127000Y-60960
X127000Y-66040
X127000Y-68580
X127000Y-71120
X127000Y-73660
X127000Y-78740
X127000Y-81280
X127000Y-83820
X127000Y-86360
X127000Y-93980
X127000Y-96520
X127000Y-99060
X127000Y-101600
X127000Y-106680
X127000Y-109220
X127000Y-111760
X127000Y-114300
X127000Y-119380
X129540Y-60960
X129540Y-119380
X132080Y-60960
X132080Y-119380
X134620Y-60960
X134620Y-119380
X137160Y-60960
X137160Y-119380
X139700Y-60960
X139700Y-119380
X24765Y-41910
X24765Y-46990
X65405Y-41910
X65405Y-46990
T3
X95250Y-150495
X97790Y-150495
X100330Y-150495
X102870Y-150495
X105410Y-150495
X107950Y-150495
X110490Y-150495
X113030Y-150495
X57785Y-54610
X57785Y-57150
X54610Y-139363
X54610Y-141903
X54610Y-144443
X133350Y-31750
X133350Y-34290
X133350Y-36830
X123190Y-22860
X125730Y-22860
X128270Y-22860
X130810Y-22860
X96520Y-20320
X99060Y-20320
X101600Y-20320
X104140Y-20320
X106680Y-20320
X109220Y-20320
X111760Y-20320
X114300Y-20320
X78740Y-19050
X78740Y-21590
X78740Y-24130
X75565Y-133350
X78105Y-133350
X80645Y-133350
X34925Y-139065
X34925Y-141605
X34925Y-144145
X24765Y-106680
X24765Y-109220
X24765Y-111760
X24765Y-114300
X173990Y-63500
X173990Y-66040
X173990Y-68580
X173990Y-71120
X173990Y-73660
X173990Y-76200
X173990Y-78740
X173990Y-81280
X172720Y-99060
X172720Y-101600
X172720Y-104140
X172720Y-106680
X100330Y-31750
X100330Y-34290
X100330Y-36830
X27940Y-153670
X27940Y-156210
X27940Y-158750
X153670Y-149225
X156210Y-149225
X39370Y-154305
X39370Y-156845
X39370Y-159385
X66040Y-143510
X68580Y-143510
X71120Y-143510
X73660Y-143510
X76200Y-143510
X78740Y-143510
X81280Y-143510
X23495Y-79375
X23495Y-81915
X23495Y-84455
X23495Y-86995
X23495Y-89535
X23495Y-92075
X23495Y-94615
X23495Y-97155
X117475Y-137795
X117475Y-140335
X117475Y-142875
X157480Y-47625
X160020Y-47625
X162560Y-47625
X157480Y-74930
X160020Y-74930
X162560Y-74930
X125730Y-31750
X125730Y-34290
X125730Y-36830
X119380Y-31750
X119380Y-34290
X119380Y-36830
X157480Y-67310
X160020Y-67310
X162560Y-67310
X66040Y-19050
X66040Y-21590
X66040Y-24130
X78740Y-30480
X78740Y-33020
X78740Y-35560
X161290Y-124460
X161290Y-127000
X161290Y-129540
X125730Y-150495
X128270Y-150495
X130810Y-150495
X133350Y-150495
X173990Y-50800
X173990Y-53340
X173990Y-55880
X173990Y-58420
X46355Y-139065
X46355Y-141605
X46355Y-144145
X40005Y-59055
X40005Y-61595
X40005Y-64135
X153035Y-159385
X155575Y-159385
X168275Y-124460
X168275Y-127000
X168275Y-129540
X46990Y-59055
X46990Y-61595
X46990Y-64135
X25400Y-139065
X25400Y-141605
X25400Y-144145
X66040Y-30480
X66040Y-33020
X66040Y-35560
X22860Y-57785
X22860Y-60325
X22860Y-62865
X22860Y-65405
X31750Y-59690
X31750Y-62230
X31750Y-64770
T4
X128270Y-140335
X130810Y-140335
X133350Y-140335
X95250Y-63500
X95250Y-66040
X95250Y-68580
X95250Y-71120
X95250Y-73660
X95250Y-76200
X95250Y-78740
X95250Y-81280
X95250Y-83820
X95250Y-86360
X95250Y-88900
X95250Y-91440
X95250Y-93980
X95250Y-96520
X95250Y-99060
X95250Y-101600
X95250Y-104140
X95250Y-106680
X95250Y-109220
X95250Y-111760
X95250Y-114300
X95250Y-116840
X95250Y-119380
X95250Y-121920
X97790Y-109220
X98250Y-69850
X98250Y-72390
X98250Y-74930
X98250Y-77470
X98250Y-80010
X100330Y-109220
X102870Y-78740
X102870Y-81280
X102870Y-83820
X102870Y-86360
X102870Y-101600
X102870Y-104140
X102870Y-106680
X102870Y-109220
X102870Y-111760
X102870Y-114300
X102870Y-116840
X102870Y-119380
X102870Y-121920
X105410Y-78740
X105410Y-81280
X105410Y-83820
X105410Y-86360
X105410Y-101600
X105410Y-104140
X105410Y-106680
X105410Y-109220
X105410Y-111760
X105410Y-114300
X105410Y-116840
X105410Y-119380
X105410Y-121920
X107950Y-66040
X107950Y-71120
X107950Y-73660
X107950Y-76200
X107950Y-109220
X110490Y-63500
X110490Y-66040
X110490Y-68580
X110490Y-71120
X110490Y-73660
X110490Y-76200
X110490Y-78740
X110490Y-81280
X110490Y-83820
X110490Y-86360
X110490Y-88900
X110490Y-91440
X110490Y-93980
X110490Y-96520
X110490Y-99060
X110490Y-101600
X110490Y-104140
X110490Y-106680
X110490Y-109220
X110490Y-111760
X110490Y-114300
X110490Y-116840
X110490Y-119380
X110490Y-121920
X38100Y-106680
X38100Y-109220
X38100Y-111760
T5
X155575Y-154940
X168275Y-154940
X156210Y-144780
X168910Y-144780
T6
X24130Y-24130
X29130Y-24130
T7
X41656Y-129032
X169672Y-23368
X46736Y-24384
X170688Y-162560
T0
M30
